<svg version="1.1" xmlns="http://www.w3.org/2000/svg" xmlns:xlink="http://www.w3.org/1999/xlink" width="700" height="500"><defs><clipPath id="IlFuHkPrmkDb"><path fill="none" stroke="none" d="M 26.5 29.5 L 695.5 29.5 L 695.5 473.5 L 26.5 473.5 L 26.5 29.5"/></clipPath><clipPath id="yBkZDLekuTPw"><path fill="none" stroke="none" d="M 26.5 29.5 L 695.5 29.5 L 695.5 473.5 L 26.5 473.5 L 26.5 29.5"/></clipPath><clipPath id="aTQayagWAIGL"><path fill="none" stroke="none" d="M 26.5 29.5 L 695.5 29.5 L 695.5 473.5 L 26.5 473.5 L 26.5 29.5"/></clipPath><clipPath id="fHQFdLswbqdd"><path fill="none" stroke="none" d="M 26.5 29.5 L 695.5 29.5 L 695.5 473.5 L 26.5 473.5 L 26.5 29.5"/></clipPath><clipPath id="GbqSrxHcNtqJ"><path fill="none" stroke="none" d="M 26.5 29.5 L 695.5 29.5 L 695.5 473.5 L 26.5 473.5 L 26.5 29.5"/></clipPath><clipPath id="eaURKrLtxFrI"><path fill="none" stroke="none" d="M 26.5 29.5 L 695.5 29.5 L 695.5 473.5 L 26.5 473.5 L 26.5 29.5"/></clipPath><clipPath id="WwFaAUSmbWVm"><path fill="none" stroke="none" d="M 26.5 29.5 L 695.5 29.5 L 695.5 473.5 L 26.5 473.5 L 26.5 29.5"/></clipPath><clipPath id="GNktkmBNQRPi"><path fill="none" stroke="none" d="M 26.5 29.5 L 695.5 29.5 L 695.5 473.5 L 26.5 473.5 L 26.5 29.5"/></clipPath><clipPath id="MExfwCBpnBzN"><path fill="none" stroke="none" d="M 26.5 29.5 L 695.5 29.5 L 695.5 473.5 L 26.5 473.5 L 26.5 29.5"/></clipPath></defs><path fill="rgb(255,255,255)" stroke="none" paint-order="stroke" d="M 0.5 0.5 L 700.5 0.5 L 700.5 500.5 L 0.5 500.5 L 0.5 0.5" fill-opacity="1"/><rect fill="#FFFFFF" stroke="none" x="26" y="29" width="669" height="444" transform="matrix(1, 0, 0, 1, 0.5, 0.5)"/><path fill="rgb(239,239,239)" stroke="none" paint-order="stroke" d="M 26.5 29.5 L 695.5 29.5 L 695.5 473.5 L 26.5 473.5 L 26.5 29.5" fill-opacity="1"/><path fill="none" stroke="rgb(229,229,229)" paint-order="fill" d="M 26.5 29.5 L 695.5 29.5 L 695.5 473.5 L 26.5 473.5 L 26.5 29.5" stroke-opacity="1" stroke-linejoin="bevel" stroke-miterlimit="10" stroke-dasharray=""/><path fill="none" stroke="rgb(255,255,255)" paint-order="fill" d="M 26.5 453.5 L 695.5 453.5 M 26.5 395.5 L 695.5 395.5 M 26.5 338.5 L 695.5 338.5 M 26.5 280.5 L 695.5 280.5 M 26.5 222.5 L 695.5 222.5 M 26.5 165.5 L 695.5 165.5 M 26.5 107.5 L 695.5 107.5 M 26.5 49.5 L 695.5 49.5" stroke-opacity="1" stroke-linejoin="bevel" stroke-miterlimit="10" stroke-width="2" stroke-dasharray="" clip-path="url(#yBkZDLekuTPw)"/><path fill="none" stroke="none"/><path fill="none" stroke="rgb(0,0,0)" paint-order="fill" d="M 42.42856979370117 193.9302978515625 L 42.42856979370117 251.57205200195312" stroke-opacity="1" stroke-linejoin="bevel" stroke-miterlimit="10" stroke-dasharray="" clip-path="url(#aTQayagWAIGL)"/><path fill="none" stroke="rgb(0,0,0)" paint-order="fill" d="M 74.28571319580078 165.1094207763672 L 74.28571319580078 251.57205200195312" stroke-opacity="1" stroke-linejoin="bevel" stroke-miterlimit="10" stroke-dasharray="" clip-path="url(#aTQayagWAIGL)"/><path fill="none" stroke="rgb(0,0,0)" paint-order="fill" d="M 106.14286041259766 49.825923919677734 L 106.14286041259766 136.28854370117188" stroke-opacity="1" stroke-linejoin="bevel" stroke-miterlimit="10" stroke-dasharray="" clip-path="url(#aTQayagWAIGL)"/><path fill="none" stroke="rgb(0,0,0)" paint-order="fill" d="M 138 121.87811279296875 L 138 165.1094207763672" stroke-opacity="1" stroke-linejoin="bevel" stroke-miterlimit="10" stroke-dasharray="" clip-path="url(#aTQayagWAIGL)"/><path fill="none" stroke="rgb(0,0,0)" paint-order="fill" d="M 169.85714721679688 208.3407440185547 L 169.85714721679688 251.57205200195312" stroke-opacity="1" stroke-linejoin="bevel" stroke-miterlimit="10" stroke-dasharray="" clip-path="url(#aTQayagWAIGL)"/><path fill="none" stroke="rgb(0,0,0)" paint-order="fill" d="M 201.7142791748047 165.1094207763672 L 201.7142791748047 251.57205200195312" stroke-opacity="1" stroke-linejoin="bevel" stroke-miterlimit="10" stroke-dasharray="" clip-path="url(#aTQayagWAIGL)"/><path fill="none" stroke="rgb(0,0,0)" paint-order="fill" d="M 233.57142639160156 165.1094207763672 L 233.57142639160156 251.57205200195312" stroke-opacity="1" stroke-linejoin="bevel" stroke-miterlimit="10" stroke-dasharray="" clip-path="url(#aTQayagWAIGL)"/><path fill="none" stroke="rgb(0,0,0)" paint-order="fill" d="M 265.4285583496094 179.51986694335938 L 265.4285583496094 222.7511749267578" stroke-opacity="1" stroke-linejoin="bevel" stroke-miterlimit="10" stroke-dasharray="" clip-path="url(#aTQayagWAIGL)"/><path fill="none" stroke="rgb(0,0,0)" paint-order="fill" d="M 297.28570556640625 165.1094207763672 L 297.28570556640625 222.7511749267578" stroke-opacity="1" stroke-linejoin="bevel" stroke-miterlimit="10" stroke-dasharray="" clip-path="url(#aTQayagWAIGL)"/><path fill="none" stroke="rgb(0,0,0)" paint-order="fill" d="M 329.1428527832031 136.28854370117188 L 329.1428527832031 193.9302978515625" stroke-opacity="1" stroke-linejoin="bevel" stroke-miterlimit="10" stroke-dasharray="" clip-path="url(#aTQayagWAIGL)"/><path fill="none" stroke="rgb(0,0,0)" paint-order="fill" d="M 361 165.1094207763672 L 361 165.1094207763672" stroke-opacity="1" stroke-linejoin="bevel" stroke-miterlimit="10" stroke-dasharray="" clip-path="url(#aTQayagWAIGL)"/><path fill="none" stroke="rgb(0,0,0)" paint-order="fill" d="M 392.8571472167969 193.9302978515625 L 392.8571472167969 222.7511749267578" stroke-opacity="1" stroke-linejoin="bevel" stroke-miterlimit="10" stroke-dasharray="" clip-path="url(#aTQayagWAIGL)"/><path fill="none" stroke="rgb(0,0,0)" paint-order="fill" d="M 424.71429443359375 165.1094207763672 L 424.71429443359375 165.1094207763672" stroke-opacity="1" stroke-linejoin="bevel" stroke-miterlimit="10" stroke-dasharray="" clip-path="url(#aTQayagWAIGL)"/><path fill="none" stroke="rgb(0,0,0)" paint-order="fill" d="M 456.5714416503906 78.64679718017578 L 456.5714416503906 165.1094207763672" stroke-opacity="1" stroke-linejoin="bevel" stroke-miterlimit="10" stroke-dasharray="" clip-path="url(#aTQayagWAIGL)"/><path fill="none" stroke="rgb(0,0,0)" paint-order="fill" d="M 488.4285583496094 107.4676742553711 L 488.4285583496094 136.28854370117188" stroke-opacity="1" stroke-linejoin="bevel" stroke-miterlimit="10" stroke-dasharray="" clip-path="url(#aTQayagWAIGL)"/><path fill="none" stroke="rgb(0,0,0)" paint-order="fill" d="M 520.2857055664062 78.64679718017578 L 520.2857055664062 165.1094207763672" stroke-opacity="1" stroke-linejoin="bevel" stroke-miterlimit="10" stroke-dasharray="" clip-path="url(#aTQayagWAIGL)"/><path fill="none" stroke="rgb(0,0,0)" paint-order="fill" d="M 552.1428833007812 193.9302978515625 L 552.1428833007812 280.3929138183594" stroke-opacity="1" stroke-linejoin="bevel" stroke-miterlimit="10" stroke-dasharray="" clip-path="url(#aTQayagWAIGL)"/><path fill="none" stroke="rgb(0,0,0)" paint-order="fill" d="M 584 251.57205200195312 L 584 265.98248291015625" stroke-opacity="1" stroke-linejoin="bevel" stroke-miterlimit="10" stroke-dasharray="" clip-path="url(#aTQayagWAIGL)"/><path fill="none" stroke="rgb(0,0,0)" paint-order="fill" d="M 615.8571166992188 165.1094207763672 L 615.8571166992188 251.57205200195312" stroke-opacity="1" stroke-linejoin="bevel" stroke-miterlimit="10" stroke-dasharray="" clip-path="url(#aTQayagWAIGL)"/><path fill="none" stroke="rgb(0,0,0)" paint-order="fill" d="M 647.7142944335938 49.825923919677734 L 647.7142944335938 107.4676742553711" stroke-opacity="1" stroke-linejoin="bevel" stroke-miterlimit="10" stroke-dasharray="" clip-path="url(#aTQayagWAIGL)"/><path fill="none" stroke="rgb(0,0,0)" paint-order="fill" d="M 679.5714111328125 136.28854370117188 L 679.5714111328125 193.9302978515625" stroke-opacity="1" stroke-linejoin="bevel" stroke-miterlimit="10" stroke-dasharray="" clip-path="url(#aTQayagWAIGL)"/><path fill="none" stroke="none"/><path fill="none" stroke="rgb(0,0,0)" paint-order="fill" d="M 42.42856979370117 395.6764221191406 L 42.42856979370117 309.21380615234375" stroke-opacity="1" stroke-linejoin="bevel" stroke-miterlimit="10" stroke-dasharray="" clip-path="url(#fHQFdLswbqdd)"/><path fill="none" stroke="rgb(0,0,0)" paint-order="fill" d="M 74.28571319580078 366.8555603027344 L 74.28571319580078 309.21380615234375" stroke-opacity="1" stroke-linejoin="bevel" stroke-miterlimit="10" stroke-dasharray="" clip-path="url(#fHQFdLswbqdd)"/><path fill="none" stroke="rgb(0,0,0)" paint-order="fill" d="M 106.14286041259766 222.7511749267578 L 106.14286041259766 193.9302978515625" stroke-opacity="1" stroke-linejoin="bevel" stroke-miterlimit="10" stroke-dasharray="" clip-path="url(#fHQFdLswbqdd)"/><path fill="none" stroke="rgb(0,0,0)" paint-order="fill" d="M 138 237.16162109375 L 138 193.9302978515625" stroke-opacity="1" stroke-linejoin="bevel" stroke-miterlimit="10" stroke-dasharray="" clip-path="url(#fHQFdLswbqdd)"/><path fill="none" stroke="rgb(0,0,0)" paint-order="fill" d="M 169.85714721679688 323.6242370605469 L 169.85714721679688 280.3929138183594" stroke-opacity="1" stroke-linejoin="bevel" stroke-miterlimit="10" stroke-dasharray="" clip-path="url(#fHQFdLswbqdd)"/><path fill="none" stroke="rgb(0,0,0)" paint-order="fill" d="M 201.7142791748047 395.6764221191406 L 201.7142791748047 309.21380615234375" stroke-opacity="1" stroke-linejoin="bevel" stroke-miterlimit="10" stroke-dasharray="" clip-path="url(#fHQFdLswbqdd)"/><path fill="none" stroke="rgb(0,0,0)" paint-order="fill" d="M 233.57142639160156 366.8555603027344 L 233.57142639160156 338.03466796875" stroke-opacity="1" stroke-linejoin="bevel" stroke-miterlimit="10" stroke-dasharray="" clip-path="url(#fHQFdLswbqdd)"/><path fill="none" stroke="rgb(0,0,0)" paint-order="fill" d="M 265.4285583496094 294.8033752441406 L 265.4285583496094 251.57205200195312" stroke-opacity="1" stroke-linejoin="bevel" stroke-miterlimit="10" stroke-dasharray="" clip-path="url(#fHQFdLswbqdd)"/><path fill="none" stroke="rgb(0,0,0)" paint-order="fill" d="M 297.28570556640625 338.03466796875 L 297.28570556640625 280.3929138183594" stroke-opacity="1" stroke-linejoin="bevel" stroke-miterlimit="10" stroke-dasharray="" clip-path="url(#fHQFdLswbqdd)"/><path fill="none" stroke="rgb(0,0,0)" paint-order="fill" d="M 329.1428527832031 280.3929138183594 L 329.1428527832031 251.57205200195312" stroke-opacity="1" stroke-linejoin="bevel" stroke-miterlimit="10" stroke-dasharray="" clip-path="url(#fHQFdLswbqdd)"/><path fill="none" stroke="rgb(0,0,0)" paint-order="fill" d="M 361 251.57205200195312 L 361 229.95639038085938" stroke-opacity="1" stroke-linejoin="bevel" stroke-miterlimit="10" stroke-dasharray="" clip-path="url(#fHQFdLswbqdd)"/><path fill="none" stroke="rgb(0,0,0)" paint-order="fill" d="M 392.8571472167969 280.3929138183594 L 392.8571472167969 280.3929138183594" stroke-opacity="1" stroke-linejoin="bevel" stroke-miterlimit="10" stroke-dasharray="" clip-path="url(#fHQFdLswbqdd)"/><path fill="none" stroke="rgb(0,0,0)" paint-order="fill" d="M 424.71429443359375 251.57205200195312 L 424.71429443359375 222.7511749267578" stroke-opacity="1" stroke-linejoin="bevel" stroke-miterlimit="10" stroke-dasharray="" clip-path="url(#fHQFdLswbqdd)"/><path fill="none" stroke="rgb(0,0,0)" paint-order="fill" d="M 456.5714416503906 309.21380615234375 L 456.5714416503906 251.57205200195312" stroke-opacity="1" stroke-linejoin="bevel" stroke-miterlimit="10" stroke-dasharray="" clip-path="url(#fHQFdLswbqdd)"/><path fill="none" stroke="rgb(0,0,0)" paint-order="fill" d="M 488.4285583496094 309.21380615234375 L 488.4285583496094 251.57205200195312" stroke-opacity="1" stroke-linejoin="bevel" stroke-miterlimit="10" stroke-dasharray="" clip-path="url(#fHQFdLswbqdd)"/><path fill="none" stroke="rgb(0,0,0)" paint-order="fill" d="M 520.2857055664062 309.21380615234375 L 520.2857055664062 222.7511749267578" stroke-opacity="1" stroke-linejoin="bevel" stroke-miterlimit="10" stroke-dasharray="" clip-path="url(#fHQFdLswbqdd)"/><path fill="none" stroke="rgb(0,0,0)" paint-order="fill" d="M 552.1428833007812 424.497314453125 L 552.1428833007812 338.03466796875" stroke-opacity="1" stroke-linejoin="bevel" stroke-miterlimit="10" stroke-dasharray="" clip-path="url(#fHQFdLswbqdd)"/><path fill="none" stroke="rgb(0,0,0)" paint-order="fill" d="M 584 338.03466796875 L 584 294.8033752441406" stroke-opacity="1" stroke-linejoin="bevel" stroke-miterlimit="10" stroke-dasharray="" clip-path="url(#fHQFdLswbqdd)"/><path fill="none" stroke="rgb(0,0,0)" paint-order="fill" d="M 615.8571166992188 366.8555603027344 L 615.8571166992188 309.21380615234375" stroke-opacity="1" stroke-linejoin="bevel" stroke-miterlimit="10" stroke-dasharray="" clip-path="url(#fHQFdLswbqdd)"/><path fill="none" stroke="rgb(0,0,0)" paint-order="fill" d="M 647.7142944335938 251.57205200195312 L 647.7142944335938 165.1094207763672" stroke-opacity="1" stroke-linejoin="bevel" stroke-miterlimit="10" stroke-dasharray="" clip-path="url(#fHQFdLswbqdd)"/><path fill="none" stroke="rgb(0,0,0)" paint-order="fill" d="M 679.5714111328125 424.497314453125 L 679.5714111328125 309.21380615234375" stroke-opacity="1" stroke-linejoin="bevel" stroke-miterlimit="10" stroke-dasharray="" clip-path="url(#fHQFdLswbqdd)"/><path fill="none" stroke="none"/><path fill="rgb(215,25,28)" stroke="none" paint-order="stroke" d="M 31.2785701751709 309.21380615234375 L 53.57856750488281 309.21380615234375 L 53.57856750488281 251.57205200195312 L 31.2785701751709 251.57205200195312 L 31.2785701751709 309.21380615234375" fill-opacity="0.75" clip-path="url(#GbqSrxHcNtqJ)"/><path fill="none" stroke="rgb(0,0,0)" paint-order="fill" d="M 31.2785701751709 309.21380615234375 L 53.57856750488281 309.21380615234375 L 53.57856750488281 251.57205200195312 L 31.2785701751709 251.57205200195312 L 31.2785701751709 309.21380615234375" stroke-opacity="1" stroke-linejoin="bevel" stroke-miterlimit="10" stroke-dasharray="" clip-path="url(#GbqSrxHcNtqJ)"/><path fill="rgb(215,25,28)" stroke="none" paint-order="stroke" d="M 63.135711669921875 280.3929138183594 L 85.43571472167969 280.3929138183594 L 85.43571472167969 251.57205200195312 L 63.135711669921875 251.57205200195312 L 63.135711669921875 280.3929138183594" fill-opacity="0.75" clip-path="url(#GbqSrxHcNtqJ)"/><path fill="none" stroke="rgb(0,0,0)" paint-order="fill" d="M 63.135711669921875 280.3929138183594 L 85.43571472167969 280.3929138183594 L 85.43571472167969 251.57205200195312 L 63.135711669921875 251.57205200195312 L 63.135711669921875 280.3929138183594" stroke-opacity="1" stroke-linejoin="bevel" stroke-miterlimit="10" stroke-dasharray="" clip-path="url(#GbqSrxHcNtqJ)"/><path fill="rgb(215,25,28)" stroke="none" paint-order="stroke" d="M 94.99285888671875 193.9302978515625 L 117.29286193847656 193.9302978515625 L 117.29286193847656 136.28854370117188 L 94.99285888671875 136.28854370117188 L 94.99285888671875 193.9302978515625" fill-opacity="0.75" clip-path="url(#GbqSrxHcNtqJ)"/><path fill="none" stroke="rgb(0,0,0)" paint-order="fill" d="M 94.99285888671875 193.9302978515625 L 117.29286193847656 193.9302978515625 L 117.29286193847656 136.28854370117188 L 94.99285888671875 136.28854370117188 L 94.99285888671875 193.9302978515625" stroke-opacity="1" stroke-linejoin="bevel" stroke-miterlimit="10" stroke-dasharray="" clip-path="url(#GbqSrxHcNtqJ)"/><path fill="rgb(215,25,28)" stroke="none" paint-order="stroke" d="M 126.85000610351562 193.9302978515625 L 149.14999389648438 193.9302978515625 L 149.14999389648438 165.1094207763672 L 126.85000610351562 165.1094207763672 L 126.85000610351562 193.9302978515625" fill-opacity="0.75" clip-path="url(#GbqSrxHcNtqJ)"/><path fill="none" stroke="rgb(0,0,0)" paint-order="fill" d="M 126.85000610351562 193.9302978515625 L 149.14999389648438 193.9302978515625 L 149.14999389648438 165.1094207763672 L 126.85000610351562 165.1094207763672 L 126.85000610351562 193.9302978515625" stroke-opacity="1" stroke-linejoin="bevel" stroke-miterlimit="10" stroke-dasharray="" clip-path="url(#GbqSrxHcNtqJ)"/><path fill="rgb(215,25,28)" stroke="none" paint-order="stroke" d="M 158.7071533203125 251.57205200195312 L 181.00714111328125 251.57205200195312 L 181.00714111328125 251.57205200195312 L 158.7071533203125 251.57205200195312 L 158.7071533203125 251.57205200195312" fill-opacity="0.75" clip-path="url(#GbqSrxHcNtqJ)"/><path fill="none" stroke="rgb(0,0,0)" paint-order="fill" d="M 158.7071533203125 251.57205200195312 L 181.00714111328125 251.57205200195312 L 181.00714111328125 251.57205200195312 L 158.7071533203125 251.57205200195312 L 158.7071533203125 251.57205200195312" stroke-opacity="1" stroke-linejoin="bevel" stroke-miterlimit="10" stroke-dasharray="" clip-path="url(#GbqSrxHcNtqJ)"/><path fill="rgb(215,25,28)" stroke="none" paint-order="stroke" d="M 190.56427001953125 280.3929138183594 L 212.86428833007812 280.3929138183594 L 212.86428833007812 251.57205200195312 L 190.56427001953125 251.57205200195312 L 190.56427001953125 280.3929138183594" fill-opacity="0.75" clip-path="url(#GbqSrxHcNtqJ)"/><path fill="none" stroke="rgb(0,0,0)" paint-order="fill" d="M 190.56427001953125 280.3929138183594 L 212.86428833007812 280.3929138183594 L 212.86428833007812 251.57205200195312 L 190.56427001953125 251.57205200195312 L 190.56427001953125 280.3929138183594" stroke-opacity="1" stroke-linejoin="bevel" stroke-miterlimit="10" stroke-dasharray="" clip-path="url(#GbqSrxHcNtqJ)"/><path fill="rgb(215,25,28)" stroke="none" paint-order="stroke" d="M 222.4214324951172 251.57205200195312 L 244.72142028808594 251.57205200195312 L 244.72142028808594 251.57205200195312 L 222.4214324951172 251.57205200195312 L 222.4214324951172 251.57205200195312" fill-opacity="0.75" clip-path="url(#GbqSrxHcNtqJ)"/><path fill="none" stroke="rgb(0,0,0)" paint-order="fill" d="M 222.4214324951172 251.57205200195312 L 244.72142028808594 251.57205200195312 L 244.72142028808594 251.57205200195312 L 222.4214324951172 251.57205200195312 L 222.4214324951172 251.57205200195312" stroke-opacity="1" stroke-linejoin="bevel" stroke-miterlimit="10" stroke-dasharray="" clip-path="url(#GbqSrxHcNtqJ)"/><path fill="rgb(215,25,28)" stroke="none" paint-order="stroke" d="M 254.278564453125 251.57205200195312 L 276.57855224609375 251.57205200195312 L 276.57855224609375 222.7511749267578 L 254.278564453125 222.7511749267578 L 254.278564453125 251.57205200195312" fill-opacity="0.75" clip-path="url(#GbqSrxHcNtqJ)"/><path fill="none" stroke="rgb(0,0,0)" paint-order="fill" d="M 254.278564453125 251.57205200195312 L 276.57855224609375 251.57205200195312 L 276.57855224609375 222.7511749267578 L 254.278564453125 222.7511749267578 L 254.278564453125 251.57205200195312" stroke-opacity="1" stroke-linejoin="bevel" stroke-miterlimit="10" stroke-dasharray="" clip-path="url(#GbqSrxHcNtqJ)"/><path fill="rgb(215,25,28)" stroke="none" paint-order="stroke" d="M 286.13568115234375 251.57205200195312 L 308.43572998046875 251.57205200195312 L 308.43572998046875 222.7511749267578 L 286.13568115234375 222.7511749267578 L 286.13568115234375 251.57205200195312" fill-opacity="0.75" clip-path="url(#GbqSrxHcNtqJ)"/><path fill="none" stroke="rgb(0,0,0)" paint-order="fill" d="M 286.13568115234375 251.57205200195312 L 308.43572998046875 251.57205200195312 L 308.43572998046875 222.7511749267578 L 286.13568115234375 222.7511749267578 L 286.13568115234375 251.57205200195312" stroke-opacity="1" stroke-linejoin="bevel" stroke-miterlimit="10" stroke-dasharray="" clip-path="url(#GbqSrxHcNtqJ)"/><path fill="rgb(215,25,28)" stroke="none" paint-order="stroke" d="M 317.99285888671875 222.7511749267578 L 340.2928466796875 222.7511749267578 L 340.2928466796875 193.9302978515625 L 317.99285888671875 193.9302978515625 L 317.99285888671875 222.7511749267578" fill-opacity="0.75" clip-path="url(#GbqSrxHcNtqJ)"/><path fill="none" stroke="rgb(0,0,0)" paint-order="fill" d="M 317.99285888671875 222.7511749267578 L 340.2928466796875 222.7511749267578 L 340.2928466796875 193.9302978515625 L 317.99285888671875 193.9302978515625 L 317.99285888671875 222.7511749267578" stroke-opacity="1" stroke-linejoin="bevel" stroke-miterlimit="10" stroke-dasharray="" clip-path="url(#GbqSrxHcNtqJ)"/><path fill="rgb(215,25,28)" stroke="none" paint-order="stroke" d="M 349.8499755859375 208.3407440185547 L 372.1500244140625 208.3407440185547 L 372.1500244140625 165.1094207763672 L 349.8499755859375 165.1094207763672 L 349.8499755859375 208.3407440185547" fill-opacity="0.75" clip-path="url(#GbqSrxHcNtqJ)"/><path fill="none" stroke="rgb(0,0,0)" paint-order="fill" d="M 349.8499755859375 208.3407440185547 L 372.1500244140625 208.3407440185547 L 372.1500244140625 165.1094207763672 L 349.8499755859375 165.1094207763672 L 349.8499755859375 208.3407440185547" stroke-opacity="1" stroke-linejoin="bevel" stroke-miterlimit="10" stroke-dasharray="" clip-path="url(#GbqSrxHcNtqJ)"/><path fill="rgb(215,25,28)" stroke="none" paint-order="stroke" d="M 381.7071533203125 251.57205200195312 L 404.00714111328125 251.57205200195312 L 404.00714111328125 222.7511749267578 L 381.7071533203125 222.7511749267578 L 381.7071533203125 251.57205200195312" fill-opacity="0.75" clip-path="url(#GbqSrxHcNtqJ)"/><path fill="none" stroke="rgb(0,0,0)" paint-order="fill" d="M 381.7071533203125 251.57205200195312 L 404.00714111328125 251.57205200195312 L 404.00714111328125 222.7511749267578 L 381.7071533203125 222.7511749267578 L 381.7071533203125 251.57205200195312" stroke-opacity="1" stroke-linejoin="bevel" stroke-miterlimit="10" stroke-dasharray="" clip-path="url(#GbqSrxHcNtqJ)"/><path fill="rgb(215,25,28)" stroke="none" paint-order="stroke" d="M 413.56427001953125 193.9302978515625 L 435.86431884765625 193.9302978515625 L 435.86431884765625 165.1094207763672 L 413.56427001953125 165.1094207763672 L 413.56427001953125 193.9302978515625" fill-opacity="0.75" clip-path="url(#GbqSrxHcNtqJ)"/><path fill="none" stroke="rgb(0,0,0)" paint-order="fill" d="M 413.56427001953125 193.9302978515625 L 435.86431884765625 193.9302978515625 L 435.86431884765625 165.1094207763672 L 413.56427001953125 165.1094207763672 L 413.56427001953125 193.9302978515625" stroke-opacity="1" stroke-linejoin="bevel" stroke-miterlimit="10" stroke-dasharray="" clip-path="url(#GbqSrxHcNtqJ)"/><path fill="rgb(215,25,28)" stroke="none" paint-order="stroke" d="M 445.42144775390625 193.9302978515625 L 467.721435546875 193.9302978515625 L 467.721435546875 165.1094207763672 L 445.42144775390625 165.1094207763672 L 445.42144775390625 193.9302978515625" fill-opacity="0.75" clip-path="url(#GbqSrxHcNtqJ)"/><path fill="none" stroke="rgb(0,0,0)" paint-order="fill" d="M 445.42144775390625 193.9302978515625 L 467.721435546875 193.9302978515625 L 467.721435546875 165.1094207763672 L 445.42144775390625 165.1094207763672 L 445.42144775390625 193.9302978515625" stroke-opacity="1" stroke-linejoin="bevel" stroke-miterlimit="10" stroke-dasharray="" clip-path="url(#GbqSrxHcNtqJ)"/><path fill="rgb(215,25,28)" stroke="none" paint-order="stroke" d="M 477.278564453125 222.7511749267578 L 499.57855224609375 222.7511749267578 L 499.57855224609375 136.28854370117188 L 477.278564453125 136.28854370117188 L 477.278564453125 222.7511749267578" fill-opacity="0.75" clip-path="url(#GbqSrxHcNtqJ)"/><path fill="none" stroke="rgb(0,0,0)" paint-order="fill" d="M 477.278564453125 222.7511749267578 L 499.57855224609375 222.7511749267578 L 499.57855224609375 136.28854370117188 L 477.278564453125 136.28854370117188 L 477.278564453125 222.7511749267578" stroke-opacity="1" stroke-linejoin="bevel" stroke-miterlimit="10" stroke-dasharray="" clip-path="url(#GbqSrxHcNtqJ)"/><path fill="rgb(215,25,28)" stroke="none" paint-order="stroke" d="M 509.13568115234375 193.9302978515625 L 531.4357299804688 193.9302978515625 L 531.4357299804688 165.1094207763672 L 509.13568115234375 165.1094207763672 L 509.13568115234375 193.9302978515625" fill-opacity="0.75" clip-path="url(#GbqSrxHcNtqJ)"/><path fill="none" stroke="rgb(0,0,0)" paint-order="fill" d="M 509.13568115234375 193.9302978515625 L 531.4357299804688 193.9302978515625 L 531.4357299804688 165.1094207763672 L 509.13568115234375 165.1094207763672 L 509.13568115234375 193.9302978515625" stroke-opacity="1" stroke-linejoin="bevel" stroke-miterlimit="10" stroke-dasharray="" clip-path="url(#GbqSrxHcNtqJ)"/><path fill="rgb(215,25,28)" stroke="none" paint-order="stroke" d="M 540.992919921875 309.21380615234375 L 563.2928466796875 309.21380615234375 L 563.2928466796875 280.3929138183594 L 540.992919921875 280.3929138183594 L 540.992919921875 309.21380615234375" fill-opacity="0.75" clip-path="url(#GbqSrxHcNtqJ)"/><path fill="none" stroke="rgb(0,0,0)" paint-order="fill" d="M 540.992919921875 309.21380615234375 L 563.2928466796875 309.21380615234375 L 563.2928466796875 280.3929138183594 L 540.992919921875 280.3929138183594 L 540.992919921875 309.21380615234375" stroke-opacity="1" stroke-linejoin="bevel" stroke-miterlimit="10" stroke-dasharray="" clip-path="url(#GbqSrxHcNtqJ)"/><path fill="rgb(215,25,28)" stroke="none" paint-order="stroke" d="M 572.8499755859375 280.3929138183594 L 595.1500244140625 280.3929138183594 L 595.1500244140625 265.98248291015625 L 572.8499755859375 265.98248291015625 L 572.8499755859375 280.3929138183594" fill-opacity="0.75" clip-path="url(#GbqSrxHcNtqJ)"/><path fill="none" stroke="rgb(0,0,0)" paint-order="fill" d="M 572.8499755859375 280.3929138183594 L 595.1500244140625 280.3929138183594 L 595.1500244140625 265.98248291015625 L 572.8499755859375 265.98248291015625 L 572.8499755859375 280.3929138183594" stroke-opacity="1" stroke-linejoin="bevel" stroke-miterlimit="10" stroke-dasharray="" clip-path="url(#GbqSrxHcNtqJ)"/><path fill="rgb(215,25,28)" stroke="none" paint-order="stroke" d="M 604.7071533203125 280.3929138183594 L 627.007080078125 280.3929138183594 L 627.007080078125 251.57205200195312 L 604.7071533203125 251.57205200195312 L 604.7071533203125 280.3929138183594" fill-opacity="0.75" clip-path="url(#GbqSrxHcNtqJ)"/><path fill="none" stroke="rgb(0,0,0)" paint-order="fill" d="M 604.7071533203125 280.3929138183594 L 627.007080078125 280.3929138183594 L 627.007080078125 251.57205200195312 L 604.7071533203125 251.57205200195312 L 604.7071533203125 280.3929138183594" stroke-opacity="1" stroke-linejoin="bevel" stroke-miterlimit="10" stroke-dasharray="" clip-path="url(#GbqSrxHcNtqJ)"/><path fill="rgb(215,25,28)" stroke="none" paint-order="stroke" d="M 636.5642700195312 136.28854370117188 L 658.8643188476562 136.28854370117188 L 658.8643188476562 107.4676742553711 L 636.5642700195312 107.4676742553711 L 636.5642700195312 136.28854370117188" fill-opacity="0.75" clip-path="url(#GbqSrxHcNtqJ)"/><path fill="none" stroke="rgb(0,0,0)" paint-order="fill" d="M 636.5642700195312 136.28854370117188 L 658.8643188476562 136.28854370117188 L 658.8643188476562 107.4676742553711 L 636.5642700195312 107.4676742553711 L 636.5642700195312 136.28854370117188" stroke-opacity="1" stroke-linejoin="bevel" stroke-miterlimit="10" stroke-dasharray="" clip-path="url(#GbqSrxHcNtqJ)"/><path fill="rgb(215,25,28)" stroke="none" paint-order="stroke" d="M 668.42138671875 251.57205200195312 L 690.721435546875 251.57205200195312 L 690.721435546875 193.9302978515625 L 668.42138671875 193.9302978515625 L 668.42138671875 251.57205200195312" fill-opacity="0.75" clip-path="url(#GbqSrxHcNtqJ)"/><path fill="none" stroke="rgb(0,0,0)" paint-order="fill" d="M 668.42138671875 251.57205200195312 L 690.721435546875 251.57205200195312 L 690.721435546875 193.9302978515625 L 668.42138671875 193.9302978515625 L 668.42138671875 251.57205200195312" stroke-opacity="1" stroke-linejoin="bevel" stroke-miterlimit="10" stroke-dasharray="" clip-path="url(#GbqSrxHcNtqJ)"/><path fill="none" stroke="none"/><path fill="rgb(43,131,186)" stroke="none" paint-order="stroke" d="M 31.2785701751709 309.21380615234375 L 53.57856750488281 309.21380615234375 L 53.57856750488281 309.21380615234375 L 31.2785701751709 309.21380615234375 L 31.2785701751709 309.21380615234375" fill-opacity="0.75" clip-path="url(#eaURKrLtxFrI)"/><path fill="none" stroke="rgb(0,0,0)" paint-order="fill" d="M 31.2785701751709 309.21380615234375 L 53.57856750488281 309.21380615234375 L 53.57856750488281 309.21380615234375 L 31.2785701751709 309.21380615234375 L 31.2785701751709 309.21380615234375" stroke-opacity="1" stroke-linejoin="bevel" stroke-miterlimit="10" stroke-dasharray="" clip-path="url(#eaURKrLtxFrI)"/><path fill="rgb(43,131,186)" stroke="none" paint-order="stroke" d="M 63.135711669921875 309.21380615234375 L 85.43571472167969 309.21380615234375 L 85.43571472167969 280.3929138183594 L 63.135711669921875 280.3929138183594 L 63.135711669921875 309.21380615234375" fill-opacity="0.75" clip-path="url(#eaURKrLtxFrI)"/><path fill="none" stroke="rgb(0,0,0)" paint-order="fill" d="M 63.135711669921875 309.21380615234375 L 85.43571472167969 309.21380615234375 L 85.43571472167969 280.3929138183594 L 63.135711669921875 280.3929138183594 L 63.135711669921875 309.21380615234375" stroke-opacity="1" stroke-linejoin="bevel" stroke-miterlimit="10" stroke-dasharray="" clip-path="url(#eaURKrLtxFrI)"/><path fill="rgb(43,131,186)" stroke="none" paint-order="stroke" d="M 94.99285888671875 193.9302978515625 L 117.29286193847656 193.9302978515625 L 117.29286193847656 193.9302978515625 L 94.99285888671875 193.9302978515625 L 94.99285888671875 193.9302978515625" fill-opacity="0.75" clip-path="url(#eaURKrLtxFrI)"/><path fill="none" stroke="rgb(0,0,0)" paint-order="fill" d="M 94.99285888671875 193.9302978515625 L 117.29286193847656 193.9302978515625 L 117.29286193847656 193.9302978515625 L 94.99285888671875 193.9302978515625 L 94.99285888671875 193.9302978515625" stroke-opacity="1" stroke-linejoin="bevel" stroke-miterlimit="10" stroke-dasharray="" clip-path="url(#eaURKrLtxFrI)"/><path fill="rgb(43,131,186)" stroke="none" paint-order="stroke" d="M 126.85000610351562 193.9302978515625 L 149.14999389648438 193.9302978515625 L 149.14999389648438 193.9302978515625 L 126.85000610351562 193.9302978515625 L 126.85000610351562 193.9302978515625" fill-opacity="0.75" clip-path="url(#eaURKrLtxFrI)"/><path fill="none" stroke="rgb(0,0,0)" paint-order="fill" d="M 126.85000610351562 193.9302978515625 L 149.14999389648438 193.9302978515625 L 149.14999389648438 193.9302978515625 L 126.85000610351562 193.9302978515625 L 126.85000610351562 193.9302978515625" stroke-opacity="1" stroke-linejoin="bevel" stroke-miterlimit="10" stroke-dasharray="" clip-path="url(#eaURKrLtxFrI)"/><path fill="rgb(43,131,186)" stroke="none" paint-order="stroke" d="M 158.7071533203125 280.3929138183594 L 181.00714111328125 280.3929138183594 L 181.00714111328125 251.57205200195312 L 158.7071533203125 251.57205200195312 L 158.7071533203125 280.3929138183594" fill-opacity="0.75" clip-path="url(#eaURKrLtxFrI)"/><path fill="none" stroke="rgb(0,0,0)" paint-order="fill" d="M 158.7071533203125 280.3929138183594 L 181.00714111328125 280.3929138183594 L 181.00714111328125 251.57205200195312 L 158.7071533203125 251.57205200195312 L 158.7071533203125 280.3929138183594" stroke-opacity="1" stroke-linejoin="bevel" stroke-miterlimit="10" stroke-dasharray="" clip-path="url(#eaURKrLtxFrI)"/><path fill="rgb(43,131,186)" stroke="none" paint-order="stroke" d="M 190.56427001953125 309.21380615234375 L 212.86428833007812 309.21380615234375 L 212.86428833007812 280.3929138183594 L 190.56427001953125 280.3929138183594 L 190.56427001953125 309.21380615234375" fill-opacity="0.75" clip-path="url(#eaURKrLtxFrI)"/><path fill="none" stroke="rgb(0,0,0)" paint-order="fill" d="M 190.56427001953125 309.21380615234375 L 212.86428833007812 309.21380615234375 L 212.86428833007812 280.3929138183594 L 190.56427001953125 280.3929138183594 L 190.56427001953125 309.21380615234375" stroke-opacity="1" stroke-linejoin="bevel" stroke-miterlimit="10" stroke-dasharray="" clip-path="url(#eaURKrLtxFrI)"/><path fill="rgb(43,131,186)" stroke="none" paint-order="stroke" d="M 222.4214324951172 338.03466796875 L 244.72142028808594 338.03466796875 L 244.72142028808594 251.57205200195312 L 222.4214324951172 251.57205200195312 L 222.4214324951172 338.03466796875" fill-opacity="0.75" clip-path="url(#eaURKrLtxFrI)"/><path fill="none" stroke="rgb(0,0,0)" paint-order="fill" d="M 222.4214324951172 338.03466796875 L 244.72142028808594 338.03466796875 L 244.72142028808594 251.57205200195312 L 222.4214324951172 251.57205200195312 L 222.4214324951172 338.03466796875" stroke-opacity="1" stroke-linejoin="bevel" stroke-miterlimit="10" stroke-dasharray="" clip-path="url(#eaURKrLtxFrI)"/><path fill="rgb(43,131,186)" stroke="none" paint-order="stroke" d="M 254.278564453125 251.57205200195312 L 276.57855224609375 251.57205200195312 L 276.57855224609375 251.57205200195312 L 254.278564453125 251.57205200195312 L 254.278564453125 251.57205200195312" fill-opacity="0.75" clip-path="url(#eaURKrLtxFrI)"/><path fill="none" stroke="rgb(0,0,0)" paint-order="fill" d="M 254.278564453125 251.57205200195312 L 276.57855224609375 251.57205200195312 L 276.57855224609375 251.57205200195312 L 254.278564453125 251.57205200195312 L 254.278564453125 251.57205200195312" stroke-opacity="1" stroke-linejoin="bevel" stroke-miterlimit="10" stroke-dasharray="" clip-path="url(#eaURKrLtxFrI)"/><path fill="rgb(43,131,186)" stroke="none" paint-order="stroke" d="M 286.13568115234375 280.3929138183594 L 308.43572998046875 280.3929138183594 L 308.43572998046875 251.57205200195312 L 286.13568115234375 251.57205200195312 L 286.13568115234375 280.3929138183594" fill-opacity="0.75" clip-path="url(#eaURKrLtxFrI)"/><path fill="none" stroke="rgb(0,0,0)" paint-order="fill" d="M 286.13568115234375 280.3929138183594 L 308.43572998046875 280.3929138183594 L 308.43572998046875 251.57205200195312 L 286.13568115234375 251.57205200195312 L 286.13568115234375 280.3929138183594" stroke-opacity="1" stroke-linejoin="bevel" stroke-miterlimit="10" stroke-dasharray="" clip-path="url(#eaURKrLtxFrI)"/><path fill="rgb(43,131,186)" stroke="none" paint-order="stroke" d="M 317.99285888671875 251.57205200195312 L 340.2928466796875 251.57205200195312 L 340.2928466796875 222.7511749267578 L 317.99285888671875 222.7511749267578 L 317.99285888671875 251.57205200195312" fill-opacity="0.75" clip-path="url(#eaURKrLtxFrI)"/><path fill="none" stroke="rgb(0,0,0)" paint-order="fill" d="M 317.99285888671875 251.57205200195312 L 340.2928466796875 251.57205200195312 L 340.2928466796875 222.7511749267578 L 317.99285888671875 222.7511749267578 L 317.99285888671875 251.57205200195312" stroke-opacity="1" stroke-linejoin="bevel" stroke-miterlimit="10" stroke-dasharray="" clip-path="url(#eaURKrLtxFrI)"/><path fill="rgb(43,131,186)" stroke="none" paint-order="stroke" d="M 349.8499755859375 229.95639038085938 L 372.1500244140625 229.95639038085938 L 372.1500244140625 208.3407440185547 L 349.8499755859375 208.3407440185547 L 349.8499755859375 229.95639038085938" fill-opacity="0.75" clip-path="url(#eaURKrLtxFrI)"/><path fill="none" stroke="rgb(0,0,0)" paint-order="fill" d="M 349.8499755859375 229.95639038085938 L 372.1500244140625 229.95639038085938 L 372.1500244140625 208.3407440185547 L 349.8499755859375 208.3407440185547 L 349.8499755859375 229.95639038085938" stroke-opacity="1" stroke-linejoin="bevel" stroke-miterlimit="10" stroke-dasharray="" clip-path="url(#eaURKrLtxFrI)"/><path fill="rgb(43,131,186)" stroke="none" paint-order="stroke" d="M 381.7071533203125 280.3929138183594 L 404.00714111328125 280.3929138183594 L 404.00714111328125 251.57205200195312 L 381.7071533203125 251.57205200195312 L 381.7071533203125 280.3929138183594" fill-opacity="0.75" clip-path="url(#eaURKrLtxFrI)"/><path fill="none" stroke="rgb(0,0,0)" paint-order="fill" d="M 381.7071533203125 280.3929138183594 L 404.00714111328125 280.3929138183594 L 404.00714111328125 251.57205200195312 L 381.7071533203125 251.57205200195312 L 381.7071533203125 280.3929138183594" stroke-opacity="1" stroke-linejoin="bevel" stroke-miterlimit="10" stroke-dasharray="" clip-path="url(#eaURKrLtxFrI)"/><path fill="rgb(43,131,186)" stroke="none" paint-order="stroke" d="M 413.56427001953125 222.7511749267578 L 435.86431884765625 222.7511749267578 L 435.86431884765625 193.9302978515625 L 413.56427001953125 193.9302978515625 L 413.56427001953125 222.7511749267578" fill-opacity="0.75" clip-path="url(#eaURKrLtxFrI)"/><path fill="none" stroke="rgb(0,0,0)" paint-order="fill" d="M 413.56427001953125 222.7511749267578 L 435.86431884765625 222.7511749267578 L 435.86431884765625 193.9302978515625 L 413.56427001953125 193.9302978515625 L 413.56427001953125 222.7511749267578" stroke-opacity="1" stroke-linejoin="bevel" stroke-miterlimit="10" stroke-dasharray="" clip-path="url(#eaURKrLtxFrI)"/><path fill="rgb(43,131,186)" stroke="none" paint-order="stroke" d="M 445.42144775390625 251.57205200195312 L 467.721435546875 251.57205200195312 L 467.721435546875 193.9302978515625 L 445.42144775390625 193.9302978515625 L 445.42144775390625 251.57205200195312" fill-opacity="0.75" clip-path="url(#eaURKrLtxFrI)"/><path fill="none" stroke="rgb(0,0,0)" paint-order="fill" d="M 445.42144775390625 251.57205200195312 L 467.721435546875 251.57205200195312 L 467.721435546875 193.9302978515625 L 445.42144775390625 193.9302978515625 L 445.42144775390625 251.57205200195312" stroke-opacity="1" stroke-linejoin="bevel" stroke-miterlimit="10" stroke-dasharray="" clip-path="url(#eaURKrLtxFrI)"/><path fill="rgb(43,131,186)" stroke="none" paint-order="stroke" d="M 477.278564453125 251.57205200195312 L 499.57855224609375 251.57205200195312 L 499.57855224609375 222.7511749267578 L 477.278564453125 222.7511749267578 L 477.278564453125 251.57205200195312" fill-opacity="0.75" clip-path="url(#eaURKrLtxFrI)"/><path fill="none" stroke="rgb(0,0,0)" paint-order="fill" d="M 477.278564453125 251.57205200195312 L 499.57855224609375 251.57205200195312 L 499.57855224609375 222.7511749267578 L 477.278564453125 222.7511749267578 L 477.278564453125 251.57205200195312" stroke-opacity="1" stroke-linejoin="bevel" stroke-miterlimit="10" stroke-dasharray="" clip-path="url(#eaURKrLtxFrI)"/><path fill="rgb(43,131,186)" stroke="none" paint-order="stroke" d="M 509.13568115234375 222.7511749267578 L 531.4357299804688 222.7511749267578 L 531.4357299804688 193.9302978515625 L 509.13568115234375 193.9302978515625 L 509.13568115234375 222.7511749267578" fill-opacity="0.75" clip-path="url(#eaURKrLtxFrI)"/><path fill="none" stroke="rgb(0,0,0)" paint-order="fill" d="M 509.13568115234375 222.7511749267578 L 531.4357299804688 222.7511749267578 L 531.4357299804688 193.9302978515625 L 509.13568115234375 193.9302978515625 L 509.13568115234375 222.7511749267578" stroke-opacity="1" stroke-linejoin="bevel" stroke-miterlimit="10" stroke-dasharray="" clip-path="url(#eaURKrLtxFrI)"/><path fill="rgb(43,131,186)" stroke="none" paint-order="stroke" d="M 540.992919921875 338.03466796875 L 563.2928466796875 338.03466796875 L 563.2928466796875 309.21380615234375 L 540.992919921875 309.21380615234375 L 540.992919921875 338.03466796875" fill-opacity="0.75" clip-path="url(#eaURKrLtxFrI)"/><path fill="none" stroke="rgb(0,0,0)" paint-order="fill" d="M 540.992919921875 338.03466796875 L 563.2928466796875 338.03466796875 L 563.2928466796875 309.21380615234375 L 540.992919921875 309.21380615234375 L 540.992919921875 338.03466796875" stroke-opacity="1" stroke-linejoin="bevel" stroke-miterlimit="10" stroke-dasharray="" clip-path="url(#eaURKrLtxFrI)"/><path fill="rgb(43,131,186)" stroke="none" paint-order="stroke" d="M 572.8499755859375 294.8033752441406 L 595.1500244140625 294.8033752441406 L 595.1500244140625 280.3929138183594 L 572.8499755859375 280.3929138183594 L 572.8499755859375 294.8033752441406" fill-opacity="0.75" clip-path="url(#eaURKrLtxFrI)"/><path fill="none" stroke="rgb(0,0,0)" paint-order="fill" d="M 572.8499755859375 294.8033752441406 L 595.1500244140625 294.8033752441406 L 595.1500244140625 280.3929138183594 L 572.8499755859375 280.3929138183594 L 572.8499755859375 294.8033752441406" stroke-opacity="1" stroke-linejoin="bevel" stroke-miterlimit="10" stroke-dasharray="" clip-path="url(#eaURKrLtxFrI)"/><path fill="rgb(43,131,186)" stroke="none" paint-order="stroke" d="M 604.7071533203125 309.21380615234375 L 627.007080078125 309.21380615234375 L 627.007080078125 280.3929138183594 L 604.7071533203125 280.3929138183594 L 604.7071533203125 309.21380615234375" fill-opacity="0.75" clip-path="url(#eaURKrLtxFrI)"/><path fill="none" stroke="rgb(0,0,0)" paint-order="fill" d="M 604.7071533203125 309.21380615234375 L 627.007080078125 309.21380615234375 L 627.007080078125 280.3929138183594 L 604.7071533203125 280.3929138183594 L 604.7071533203125 309.21380615234375" stroke-opacity="1" stroke-linejoin="bevel" stroke-miterlimit="10" stroke-dasharray="" clip-path="url(#eaURKrLtxFrI)"/><path fill="rgb(43,131,186)" stroke="none" paint-order="stroke" d="M 636.5642700195312 165.1094207763672 L 658.8643188476562 165.1094207763672 L 658.8643188476562 136.28854370117188 L 636.5642700195312 136.28854370117188 L 636.5642700195312 165.1094207763672" fill-opacity="0.75" clip-path="url(#eaURKrLtxFrI)"/><path fill="none" stroke="rgb(0,0,0)" paint-order="fill" d="M 636.5642700195312 165.1094207763672 L 658.8643188476562 165.1094207763672 L 658.8643188476562 136.28854370117188 L 636.5642700195312 136.28854370117188 L 636.5642700195312 165.1094207763672" stroke-opacity="1" stroke-linejoin="bevel" stroke-miterlimit="10" stroke-dasharray="" clip-path="url(#eaURKrLtxFrI)"/><path fill="rgb(43,131,186)" stroke="none" paint-order="stroke" d="M 668.42138671875 309.21380615234375 L 690.721435546875 309.21380615234375 L 690.721435546875 251.57205200195312 L 668.42138671875 251.57205200195312 L 668.42138671875 309.21380615234375" fill-opacity="0.75" clip-path="url(#eaURKrLtxFrI)"/><path fill="none" stroke="rgb(0,0,0)" paint-order="fill" d="M 668.42138671875 309.21380615234375 L 690.721435546875 309.21380615234375 L 690.721435546875 251.57205200195312 L 668.42138671875 251.57205200195312 L 668.42138671875 309.21380615234375" stroke-opacity="1" stroke-linejoin="bevel" stroke-miterlimit="10" stroke-dasharray="" clip-path="url(#eaURKrLtxFrI)"/><path fill="none" stroke="none"/><path fill="rgb(31,119,180)" stroke="none" paint-order="stroke" d="M 39.24285888671875 395.5323181152344 L 45.614288330078125 395.5323181152344 L 45.614288330078125 395.8205261230469 L 39.24285888671875 395.8205261230469 L 39.24285888671875 395.5323181152344" fill-opacity="1" clip-path="url(#WwFaAUSmbWVm)"/><path fill="rgb(31,119,180)" stroke="none" paint-order="stroke" d="M 71.0999984741211 366.7114562988281 L 77.47142791748047 366.7114562988281 L 77.47142791748047 366.9996643066406 L 71.0999984741211 366.9996643066406 L 71.0999984741211 366.7114562988281" fill-opacity="1" clip-path="url(#WwFaAUSmbWVm)"/><path fill="rgb(31,119,180)" stroke="none" paint-order="stroke" d="M 102.95714569091797 222.60707092285156 L 109.32856750488281 222.60707092285156 L 109.32856750488281 222.89527893066406 L 102.95714569091797 222.89527893066406 L 102.95714569091797 222.60707092285156" fill-opacity="1" clip-path="url(#WwFaAUSmbWVm)"/><path fill="rgb(31,119,180)" stroke="none" paint-order="stroke" d="M 134.8142852783203 237.01751708984375 L 141.1857147216797 237.01751708984375 L 141.1857147216797 237.30572509765625 L 134.8142852783203 237.30572509765625 L 134.8142852783203 237.01751708984375" fill-opacity="1" clip-path="url(#WwFaAUSmbWVm)"/><path fill="rgb(31,119,180)" stroke="none" paint-order="stroke" d="M 166.6714324951172 323.4801330566406 L 173.0428466796875 323.4801330566406 L 173.0428466796875 323.7683410644531 L 166.6714324951172 323.7683410644531 L 166.6714324951172 323.4801330566406" fill-opacity="1" clip-path="url(#WwFaAUSmbWVm)"/><path fill="rgb(31,119,180)" stroke="none" paint-order="stroke" d="M 198.52857971191406 395.5323181152344 L 204.89999389648438 395.5323181152344 L 204.89999389648438 395.8205261230469 L 198.52857971191406 395.8205261230469 L 198.52857971191406 395.5323181152344" fill-opacity="1" clip-path="url(#WwFaAUSmbWVm)"/><path fill="rgb(31,119,180)" stroke="none" paint-order="stroke" d="M 230.38571166992188 366.7114562988281 L 236.75714111328125 366.7114562988281 L 236.75714111328125 366.9996643066406 L 230.38571166992188 366.9996643066406 L 230.38571166992188 366.7114562988281" fill-opacity="1" clip-path="url(#WwFaAUSmbWVm)"/><path fill="rgb(31,119,180)" stroke="none" paint-order="stroke" d="M 262.24285888671875 294.6592712402344 L 268.6142883300781 294.6592712402344 L 268.6142883300781 294.9474792480469 L 262.24285888671875 294.9474792480469 L 262.24285888671875 294.6592712402344" fill-opacity="1" clip-path="url(#WwFaAUSmbWVm)"/><path fill="rgb(31,119,180)" stroke="none" paint-order="stroke" d="M 294.0999755859375 337.89056396484375 L 300.471435546875 337.89056396484375 L 300.471435546875 338.17877197265625 L 294.0999755859375 338.17877197265625 L 294.0999755859375 337.89056396484375" fill-opacity="1" clip-path="url(#WwFaAUSmbWVm)"/><path fill="rgb(31,119,180)" stroke="none" paint-order="stroke" d="M 325.9571228027344 280.2488098144531 L 332.3285827636719 280.2488098144531 L 332.3285827636719 280.5370178222656 L 325.9571228027344 280.5370178222656 L 325.9571228027344 280.2488098144531" fill-opacity="1" clip-path="url(#WwFaAUSmbWVm)"/><path fill="rgb(31,119,180)" stroke="none" paint-order="stroke" d="M 357.81427001953125 251.42794799804688 L 364.18572998046875 251.42794799804688 L 364.18572998046875 251.71615600585938 L 357.81427001953125 251.71615600585938 L 357.81427001953125 251.42794799804688" fill-opacity="1" clip-path="url(#WwFaAUSmbWVm)"/><path fill="rgb(31,119,180)" stroke="none" paint-order="stroke" d="M 389.6714172363281 280.2488098144531 L 396.0428771972656 280.2488098144531 L 396.0428771972656 280.5370178222656 L 389.6714172363281 280.5370178222656 L 389.6714172363281 280.2488098144531" fill-opacity="1" clip-path="url(#WwFaAUSmbWVm)"/><path fill="rgb(31,119,180)" stroke="none" paint-order="stroke" d="M 421.528564453125 251.42794799804688 L 427.9000244140625 251.42794799804688 L 427.9000244140625 251.71615600585938 L 421.528564453125 251.71615600585938 L 421.528564453125 251.42794799804688" fill-opacity="1" clip-path="url(#WwFaAUSmbWVm)"/><path fill="rgb(31,119,180)" stroke="none" paint-order="stroke" d="M 453.3857116699219 309.0697021484375 L 459.75714111328125 309.0697021484375 L 459.75714111328125 309.35791015625 L 453.3857116699219 309.35791015625 L 453.3857116699219 309.0697021484375" fill-opacity="1" clip-path="url(#WwFaAUSmbWVm)"/><path fill="rgb(31,119,180)" stroke="none" paint-order="stroke" d="M 485.24285888671875 309.0697021484375 L 491.6142883300781 309.0697021484375 L 491.6142883300781 309.35791015625 L 485.24285888671875 309.35791015625 L 485.24285888671875 309.0697021484375" fill-opacity="1" clip-path="url(#WwFaAUSmbWVm)"/><path fill="rgb(31,119,180)" stroke="none" paint-order="stroke" d="M 517.0999755859375 309.0697021484375 L 523.471435546875 309.0697021484375 L 523.471435546875 309.35791015625 L 517.0999755859375 309.35791015625 L 517.0999755859375 309.0697021484375" fill-opacity="1" clip-path="url(#WwFaAUSmbWVm)"/><path fill="rgb(31,119,180)" stroke="none" paint-order="stroke" d="M 548.9571533203125 424.35321044921875 L 555.32861328125 424.35321044921875 L 555.32861328125 424.64141845703125 L 548.9571533203125 424.64141845703125 L 548.9571533203125 424.35321044921875" fill-opacity="1" clip-path="url(#WwFaAUSmbWVm)"/><path fill="rgb(31,119,180)" stroke="none" paint-order="stroke" d="M 580.8142700195312 337.89056396484375 L 587.1857299804688 337.89056396484375 L 587.1857299804688 338.17877197265625 L 580.8142700195312 338.17877197265625 L 580.8142700195312 337.89056396484375" fill-opacity="1" clip-path="url(#WwFaAUSmbWVm)"/><path fill="rgb(31,119,180)" stroke="none" paint-order="stroke" d="M 612.67138671875 366.7114562988281 L 619.0428466796875 366.7114562988281 L 619.0428466796875 366.9996643066406 L 612.67138671875 366.9996643066406 L 612.67138671875 366.7114562988281" fill-opacity="1" clip-path="url(#WwFaAUSmbWVm)"/><path fill="rgb(31,119,180)" stroke="none" paint-order="stroke" d="M 644.528564453125 251.42794799804688 L 650.9000244140625 251.42794799804688 L 650.9000244140625 251.71615600585938 L 644.528564453125 251.71615600585938 L 644.528564453125 251.42794799804688" fill-opacity="1" clip-path="url(#WwFaAUSmbWVm)"/><path fill="rgb(31,119,180)" stroke="none" paint-order="stroke" d="M 676.3856811523438 424.35321044921875 L 682.7571411132812 424.35321044921875 L 682.7571411132812 424.64141845703125 L 676.3856811523438 424.64141845703125 L 676.3856811523438 424.35321044921875" fill-opacity="1" clip-path="url(#WwFaAUSmbWVm)"/><path fill="none" stroke="rgb(0,0,0)" paint-order="fill" d="M 39.24285888671875 395.5323181152344 L 45.614288330078125 395.5323181152344 L 45.614288330078125 395.8205261230469 L 39.24285888671875 395.8205261230469 L 39.24285888671875 395.5323181152344" stroke-opacity="1" stroke-linejoin="bevel" stroke-miterlimit="10" stroke-dasharray="" clip-path="url(#WwFaAUSmbWVm)"/><path fill="none" stroke="rgb(0,0,0)" paint-order="fill" d="M 71.0999984741211 366.7114562988281 L 77.47142791748047 366.7114562988281 L 77.47142791748047 366.9996643066406 L 71.0999984741211 366.9996643066406 L 71.0999984741211 366.7114562988281" stroke-opacity="1" stroke-linejoin="bevel" stroke-miterlimit="10" stroke-dasharray="" clip-path="url(#WwFaAUSmbWVm)"/><path fill="none" stroke="rgb(0,0,0)" paint-order="fill" d="M 102.95714569091797 222.60707092285156 L 109.32856750488281 222.60707092285156 L 109.32856750488281 222.89527893066406 L 102.95714569091797 222.89527893066406 L 102.95714569091797 222.60707092285156" stroke-opacity="1" stroke-linejoin="bevel" stroke-miterlimit="10" stroke-dasharray="" clip-path="url(#WwFaAUSmbWVm)"/><path fill="none" stroke="rgb(0,0,0)" paint-order="fill" d="M 134.8142852783203 237.01751708984375 L 141.1857147216797 237.01751708984375 L 141.1857147216797 237.30572509765625 L 134.8142852783203 237.30572509765625 L 134.8142852783203 237.01751708984375" stroke-opacity="1" stroke-linejoin="bevel" stroke-miterlimit="10" stroke-dasharray="" clip-path="url(#WwFaAUSmbWVm)"/><path fill="none" stroke="rgb(0,0,0)" paint-order="fill" d="M 166.6714324951172 323.4801330566406 L 173.0428466796875 323.4801330566406 L 173.0428466796875 323.7683410644531 L 166.6714324951172 323.7683410644531 L 166.6714324951172 323.4801330566406" stroke-opacity="1" stroke-linejoin="bevel" stroke-miterlimit="10" stroke-dasharray="" clip-path="url(#WwFaAUSmbWVm)"/><path fill="none" stroke="rgb(0,0,0)" paint-order="fill" d="M 198.52857971191406 395.5323181152344 L 204.89999389648438 395.5323181152344 L 204.89999389648438 395.8205261230469 L 198.52857971191406 395.8205261230469 L 198.52857971191406 395.5323181152344" stroke-opacity="1" stroke-linejoin="bevel" stroke-miterlimit="10" stroke-dasharray="" clip-path="url(#WwFaAUSmbWVm)"/><path fill="none" stroke="rgb(0,0,0)" paint-order="fill" d="M 230.38571166992188 366.7114562988281 L 236.75714111328125 366.7114562988281 L 236.75714111328125 366.9996643066406 L 230.38571166992188 366.9996643066406 L 230.38571166992188 366.7114562988281" stroke-opacity="1" stroke-linejoin="bevel" stroke-miterlimit="10" stroke-dasharray="" clip-path="url(#WwFaAUSmbWVm)"/><path fill="none" stroke="rgb(0,0,0)" paint-order="fill" d="M 262.24285888671875 294.6592712402344 L 268.6142883300781 294.6592712402344 L 268.6142883300781 294.9474792480469 L 262.24285888671875 294.9474792480469 L 262.24285888671875 294.6592712402344" stroke-opacity="1" stroke-linejoin="bevel" stroke-miterlimit="10" stroke-dasharray="" clip-path="url(#WwFaAUSmbWVm)"/><path fill="none" stroke="rgb(0,0,0)" paint-order="fill" d="M 294.0999755859375 337.89056396484375 L 300.471435546875 337.89056396484375 L 300.471435546875 338.17877197265625 L 294.0999755859375 338.17877197265625 L 294.0999755859375 337.89056396484375" stroke-opacity="1" stroke-linejoin="bevel" stroke-miterlimit="10" stroke-dasharray="" clip-path="url(#WwFaAUSmbWVm)"/><path fill="none" stroke="rgb(0,0,0)" paint-order="fill" d="M 325.9571228027344 280.2488098144531 L 332.3285827636719 280.2488098144531 L 332.3285827636719 280.5370178222656 L 325.9571228027344 280.5370178222656 L 325.9571228027344 280.2488098144531" stroke-opacity="1" stroke-linejoin="bevel" stroke-miterlimit="10" stroke-dasharray="" clip-path="url(#WwFaAUSmbWVm)"/><path fill="none" stroke="rgb(0,0,0)" paint-order="fill" d="M 357.81427001953125 251.42794799804688 L 364.18572998046875 251.42794799804688 L 364.18572998046875 251.71615600585938 L 357.81427001953125 251.71615600585938 L 357.81427001953125 251.42794799804688" stroke-opacity="1" stroke-linejoin="bevel" stroke-miterlimit="10" stroke-dasharray="" clip-path="url(#WwFaAUSmbWVm)"/><path fill="none" stroke="rgb(0,0,0)" paint-order="fill" d="M 389.6714172363281 280.2488098144531 L 396.0428771972656 280.2488098144531 L 396.0428771972656 280.5370178222656 L 389.6714172363281 280.5370178222656 L 389.6714172363281 280.2488098144531" stroke-opacity="1" stroke-linejoin="bevel" stroke-miterlimit="10" stroke-dasharray="" clip-path="url(#WwFaAUSmbWVm)"/><path fill="none" stroke="rgb(0,0,0)" paint-order="fill" d="M 421.528564453125 251.42794799804688 L 427.9000244140625 251.42794799804688 L 427.9000244140625 251.71615600585938 L 421.528564453125 251.71615600585938 L 421.528564453125 251.42794799804688" stroke-opacity="1" stroke-linejoin="bevel" stroke-miterlimit="10" stroke-dasharray="" clip-path="url(#WwFaAUSmbWVm)"/><path fill="none" stroke="rgb(0,0,0)" paint-order="fill" d="M 453.3857116699219 309.0697021484375 L 459.75714111328125 309.0697021484375 L 459.75714111328125 309.35791015625 L 453.3857116699219 309.35791015625 L 453.3857116699219 309.0697021484375" stroke-opacity="1" stroke-linejoin="bevel" stroke-miterlimit="10" stroke-dasharray="" clip-path="url(#WwFaAUSmbWVm)"/><path fill="none" stroke="rgb(0,0,0)" paint-order="fill" d="M 485.24285888671875 309.0697021484375 L 491.6142883300781 309.0697021484375 L 491.6142883300781 309.35791015625 L 485.24285888671875 309.35791015625 L 485.24285888671875 309.0697021484375" stroke-opacity="1" stroke-linejoin="bevel" stroke-miterlimit="10" stroke-dasharray="" clip-path="url(#WwFaAUSmbWVm)"/><path fill="none" stroke="rgb(0,0,0)" paint-order="fill" d="M 517.0999755859375 309.0697021484375 L 523.471435546875 309.0697021484375 L 523.471435546875 309.35791015625 L 517.0999755859375 309.35791015625 L 517.0999755859375 309.0697021484375" stroke-opacity="1" stroke-linejoin="bevel" stroke-miterlimit="10" stroke-dasharray="" clip-path="url(#WwFaAUSmbWVm)"/><path fill="none" stroke="rgb(0,0,0)" paint-order="fill" d="M 548.9571533203125 424.35321044921875 L 555.32861328125 424.35321044921875 L 555.32861328125 424.64141845703125 L 548.9571533203125 424.64141845703125 L 548.9571533203125 424.35321044921875" stroke-opacity="1" stroke-linejoin="bevel" stroke-miterlimit="10" stroke-dasharray="" clip-path="url(#WwFaAUSmbWVm)"/><path fill="none" stroke="rgb(0,0,0)" paint-order="fill" d="M 580.8142700195312 337.89056396484375 L 587.1857299804688 337.89056396484375 L 587.1857299804688 338.17877197265625 L 580.8142700195312 338.17877197265625 L 580.8142700195312 337.89056396484375" stroke-opacity="1" stroke-linejoin="bevel" stroke-miterlimit="10" stroke-dasharray="" clip-path="url(#WwFaAUSmbWVm)"/><path fill="none" stroke="rgb(0,0,0)" paint-order="fill" d="M 612.67138671875 366.7114562988281 L 619.0428466796875 366.7114562988281 L 619.0428466796875 366.9996643066406 L 612.67138671875 366.9996643066406 L 612.67138671875 366.7114562988281" stroke-opacity="1" stroke-linejoin="bevel" stroke-miterlimit="10" stroke-dasharray="" clip-path="url(#WwFaAUSmbWVm)"/><path fill="none" stroke="rgb(0,0,0)" paint-order="fill" d="M 644.528564453125 251.42794799804688 L 650.9000244140625 251.42794799804688 L 650.9000244140625 251.71615600585938 L 644.528564453125 251.71615600585938 L 644.528564453125 251.42794799804688" stroke-opacity="1" stroke-linejoin="bevel" stroke-miterlimit="10" stroke-dasharray="" clip-path="url(#WwFaAUSmbWVm)"/><path fill="none" stroke="rgb(0,0,0)" paint-order="fill" d="M 676.3856811523438 424.35321044921875 L 682.7571411132812 424.35321044921875 L 682.7571411132812 424.64141845703125 L 676.3856811523438 424.64141845703125 L 676.3856811523438 424.35321044921875" stroke-opacity="1" stroke-linejoin="bevel" stroke-miterlimit="10" stroke-dasharray="" clip-path="url(#WwFaAUSmbWVm)"/><path fill="none" stroke="rgb(0,0,0)" paint-order="fill" d="" stroke-opacity="1" stroke-linejoin="bevel" stroke-miterlimit="10" stroke-dasharray="" clip-path="url(#WwFaAUSmbWVm)"/><path fill="none" stroke="none"/><path fill="rgb(31,119,180)" stroke="none" paint-order="stroke" d="M 39.24285888671875 193.78619384765625 L 45.614288330078125 193.78619384765625 L 45.614288330078125 194.07440185546875 L 39.24285888671875 194.07440185546875 L 39.24285888671875 193.78619384765625" fill-opacity="1" clip-path="url(#GNktkmBNQRPi)"/><path fill="rgb(31,119,180)" stroke="none" paint-order="stroke" d="M 71.0999984741211 164.96531677246094 L 77.47142791748047 164.96531677246094 L 77.47142791748047 165.25352478027344 L 71.0999984741211 165.25352478027344 L 71.0999984741211 164.96531677246094" fill-opacity="1" clip-path="url(#GNktkmBNQRPi)"/><path fill="rgb(31,119,180)" stroke="none" paint-order="stroke" d="M 102.95714569091797 49.681819915771484 L 109.32856750488281 49.681819915771484 L 109.32856750488281 49.970027923583984 L 102.95714569091797 49.970027923583984 L 102.95714569091797 49.681819915771484" fill-opacity="1" clip-path="url(#GNktkmBNQRPi)"/><path fill="rgb(31,119,180)" stroke="none" paint-order="stroke" d="M 134.8142852783203 121.7340087890625 L 141.1857147216797 121.7340087890625 L 141.1857147216797 122.022216796875 L 134.8142852783203 122.022216796875 L 134.8142852783203 121.7340087890625" fill-opacity="1" clip-path="url(#GNktkmBNQRPi)"/><path fill="rgb(31,119,180)" stroke="none" paint-order="stroke" d="M 166.6714324951172 208.19664001464844 L 173.0428466796875 208.19664001464844 L 173.0428466796875 208.48484802246094 L 166.6714324951172 208.48484802246094 L 166.6714324951172 208.19664001464844" fill-opacity="1" clip-path="url(#GNktkmBNQRPi)"/><path fill="rgb(31,119,180)" stroke="none" paint-order="stroke" d="M 198.52857971191406 164.96531677246094 L 204.89999389648438 164.96531677246094 L 204.89999389648438 165.25352478027344 L 198.52857971191406 165.25352478027344 L 198.52857971191406 164.96531677246094" fill-opacity="1" clip-path="url(#GNktkmBNQRPi)"/><path fill="rgb(31,119,180)" stroke="none" paint-order="stroke" d="M 230.38571166992188 164.96531677246094 L 236.75714111328125 164.96531677246094 L 236.75714111328125 165.25352478027344 L 230.38571166992188 165.25352478027344 L 230.38571166992188 164.96531677246094" fill-opacity="1" clip-path="url(#GNktkmBNQRPi)"/><path fill="rgb(31,119,180)" stroke="none" paint-order="stroke" d="M 262.24285888671875 179.37576293945312 L 268.6142883300781 179.37576293945312 L 268.6142883300781 179.66397094726562 L 262.24285888671875 179.66397094726562 L 262.24285888671875 179.37576293945312" fill-opacity="1" clip-path="url(#GNktkmBNQRPi)"/><path fill="rgb(31,119,180)" stroke="none" paint-order="stroke" d="M 294.0999755859375 164.96531677246094 L 300.471435546875 164.96531677246094 L 300.471435546875 165.25352478027344 L 294.0999755859375 165.25352478027344 L 294.0999755859375 164.96531677246094" fill-opacity="1" clip-path="url(#GNktkmBNQRPi)"/><path fill="rgb(31,119,180)" stroke="none" paint-order="stroke" d="M 325.9571228027344 136.14443969726562 L 332.3285827636719 136.14443969726562 L 332.3285827636719 136.43264770507812 L 325.9571228027344 136.43264770507812 L 325.9571228027344 136.14443969726562" fill-opacity="1" clip-path="url(#GNktkmBNQRPi)"/><path fill="rgb(31,119,180)" stroke="none" paint-order="stroke" d="M 357.81427001953125 164.96531677246094 L 364.18572998046875 164.96531677246094 L 364.18572998046875 165.25352478027344 L 357.81427001953125 165.25352478027344 L 357.81427001953125 164.96531677246094" fill-opacity="1" clip-path="url(#GNktkmBNQRPi)"/><path fill="rgb(31,119,180)" stroke="none" paint-order="stroke" d="M 389.6714172363281 193.78619384765625 L 396.0428771972656 193.78619384765625 L 396.0428771972656 194.07440185546875 L 389.6714172363281 194.07440185546875 L 389.6714172363281 193.78619384765625" fill-opacity="1" clip-path="url(#GNktkmBNQRPi)"/><path fill="rgb(31,119,180)" stroke="none" paint-order="stroke" d="M 421.528564453125 164.96531677246094 L 427.9000244140625 164.96531677246094 L 427.9000244140625 165.25352478027344 L 421.528564453125 165.25352478027344 L 421.528564453125 164.96531677246094" fill-opacity="1" clip-path="url(#GNktkmBNQRPi)"/><path fill="rgb(31,119,180)" stroke="none" paint-order="stroke" d="M 453.3857116699219 78.50269317626953 L 459.75714111328125 78.50269317626953 L 459.75714111328125 78.79090118408203 L 453.3857116699219 78.79090118408203 L 453.3857116699219 78.50269317626953" fill-opacity="1" clip-path="url(#GNktkmBNQRPi)"/><path fill="rgb(31,119,180)" stroke="none" paint-order="stroke" d="M 485.24285888671875 107.32357025146484 L 491.6142883300781 107.32357025146484 L 491.6142883300781 107.61177825927734 L 485.24285888671875 107.61177825927734 L 485.24285888671875 107.32357025146484" fill-opacity="1" clip-path="url(#GNktkmBNQRPi)"/><path fill="rgb(31,119,180)" stroke="none" paint-order="stroke" d="M 517.0999755859375 78.50269317626953 L 523.471435546875 78.50269317626953 L 523.471435546875 78.79090118408203 L 517.0999755859375 78.79090118408203 L 517.0999755859375 78.50269317626953" fill-opacity="1" clip-path="url(#GNktkmBNQRPi)"/><path fill="rgb(31,119,180)" stroke="none" paint-order="stroke" d="M 548.9571533203125 193.78619384765625 L 555.32861328125 193.78619384765625 L 555.32861328125 194.07440185546875 L 548.9571533203125 194.07440185546875 L 548.9571533203125 193.78619384765625" fill-opacity="1" clip-path="url(#GNktkmBNQRPi)"/><path fill="rgb(31,119,180)" stroke="none" paint-order="stroke" d="M 580.8142700195312 251.42794799804688 L 587.1857299804688 251.42794799804688 L 587.1857299804688 251.71615600585938 L 580.8142700195312 251.71615600585938 L 580.8142700195312 251.42794799804688" fill-opacity="1" clip-path="url(#GNktkmBNQRPi)"/><path fill="rgb(31,119,180)" stroke="none" paint-order="stroke" d="M 612.67138671875 164.96531677246094 L 619.0428466796875 164.96531677246094 L 619.0428466796875 165.25352478027344 L 612.67138671875 165.25352478027344 L 612.67138671875 164.96531677246094" fill-opacity="1" clip-path="url(#GNktkmBNQRPi)"/><path fill="rgb(31,119,180)" stroke="none" paint-order="stroke" d="M 644.528564453125 49.681819915771484 L 650.9000244140625 49.681819915771484 L 650.9000244140625 49.970027923583984 L 644.528564453125 49.970027923583984 L 644.528564453125 49.681819915771484" fill-opacity="1" clip-path="url(#GNktkmBNQRPi)"/><path fill="rgb(31,119,180)" stroke="none" paint-order="stroke" d="M 676.3856811523438 136.14443969726562 L 682.7571411132812 136.14443969726562 L 682.7571411132812 136.43264770507812 L 676.3856811523438 136.43264770507812 L 676.3856811523438 136.14443969726562" fill-opacity="1" clip-path="url(#GNktkmBNQRPi)"/><path fill="none" stroke="rgb(0,0,0)" paint-order="fill" d="M 39.24285888671875 193.78619384765625 L 45.614288330078125 193.78619384765625 L 45.614288330078125 194.07440185546875 L 39.24285888671875 194.07440185546875 L 39.24285888671875 193.78619384765625" stroke-opacity="1" stroke-linejoin="bevel" stroke-miterlimit="10" stroke-dasharray="" clip-path="url(#GNktkmBNQRPi)"/><path fill="none" stroke="rgb(0,0,0)" paint-order="fill" d="M 71.0999984741211 164.96531677246094 L 77.47142791748047 164.96531677246094 L 77.47142791748047 165.25352478027344 L 71.0999984741211 165.25352478027344 L 71.0999984741211 164.96531677246094" stroke-opacity="1" stroke-linejoin="bevel" stroke-miterlimit="10" stroke-dasharray="" clip-path="url(#GNktkmBNQRPi)"/><path fill="none" stroke="rgb(0,0,0)" paint-order="fill" d="M 102.95714569091797 49.681819915771484 L 109.32856750488281 49.681819915771484 L 109.32856750488281 49.970027923583984 L 102.95714569091797 49.970027923583984 L 102.95714569091797 49.681819915771484" stroke-opacity="1" stroke-linejoin="bevel" stroke-miterlimit="10" stroke-dasharray="" clip-path="url(#GNktkmBNQRPi)"/><path fill="none" stroke="rgb(0,0,0)" paint-order="fill" d="M 134.8142852783203 121.7340087890625 L 141.1857147216797 121.7340087890625 L 141.1857147216797 122.022216796875 L 134.8142852783203 122.022216796875 L 134.8142852783203 121.7340087890625" stroke-opacity="1" stroke-linejoin="bevel" stroke-miterlimit="10" stroke-dasharray="" clip-path="url(#GNktkmBNQRPi)"/><path fill="none" stroke="rgb(0,0,0)" paint-order="fill" d="M 166.6714324951172 208.19664001464844 L 173.0428466796875 208.19664001464844 L 173.0428466796875 208.48484802246094 L 166.6714324951172 208.48484802246094 L 166.6714324951172 208.19664001464844" stroke-opacity="1" stroke-linejoin="bevel" stroke-miterlimit="10" stroke-dasharray="" clip-path="url(#GNktkmBNQRPi)"/><path fill="none" stroke="rgb(0,0,0)" paint-order="fill" d="M 198.52857971191406 164.96531677246094 L 204.89999389648438 164.96531677246094 L 204.89999389648438 165.25352478027344 L 198.52857971191406 165.25352478027344 L 198.52857971191406 164.96531677246094" stroke-opacity="1" stroke-linejoin="bevel" stroke-miterlimit="10" stroke-dasharray="" clip-path="url(#GNktkmBNQRPi)"/><path fill="none" stroke="rgb(0,0,0)" paint-order="fill" d="M 230.38571166992188 164.96531677246094 L 236.75714111328125 164.96531677246094 L 236.75714111328125 165.25352478027344 L 230.38571166992188 165.25352478027344 L 230.38571166992188 164.96531677246094" stroke-opacity="1" stroke-linejoin="bevel" stroke-miterlimit="10" stroke-dasharray="" clip-path="url(#GNktkmBNQRPi)"/><path fill="none" stroke="rgb(0,0,0)" paint-order="fill" d="M 262.24285888671875 179.37576293945312 L 268.6142883300781 179.37576293945312 L 268.6142883300781 179.66397094726562 L 262.24285888671875 179.66397094726562 L 262.24285888671875 179.37576293945312" stroke-opacity="1" stroke-linejoin="bevel" stroke-miterlimit="10" stroke-dasharray="" clip-path="url(#GNktkmBNQRPi)"/><path fill="none" stroke="rgb(0,0,0)" paint-order="fill" d="M 294.0999755859375 164.96531677246094 L 300.471435546875 164.96531677246094 L 300.471435546875 165.25352478027344 L 294.0999755859375 165.25352478027344 L 294.0999755859375 164.96531677246094" stroke-opacity="1" stroke-linejoin="bevel" stroke-miterlimit="10" stroke-dasharray="" clip-path="url(#GNktkmBNQRPi)"/><path fill="none" stroke="rgb(0,0,0)" paint-order="fill" d="M 325.9571228027344 136.14443969726562 L 332.3285827636719 136.14443969726562 L 332.3285827636719 136.43264770507812 L 325.9571228027344 136.43264770507812 L 325.9571228027344 136.14443969726562" stroke-opacity="1" stroke-linejoin="bevel" stroke-miterlimit="10" stroke-dasharray="" clip-path="url(#GNktkmBNQRPi)"/><path fill="none" stroke="rgb(0,0,0)" paint-order="fill" d="M 357.81427001953125 164.96531677246094 L 364.18572998046875 164.96531677246094 L 364.18572998046875 165.25352478027344 L 357.81427001953125 165.25352478027344 L 357.81427001953125 164.96531677246094" stroke-opacity="1" stroke-linejoin="bevel" stroke-miterlimit="10" stroke-dasharray="" clip-path="url(#GNktkmBNQRPi)"/><path fill="none" stroke="rgb(0,0,0)" paint-order="fill" d="M 389.6714172363281 193.78619384765625 L 396.0428771972656 193.78619384765625 L 396.0428771972656 194.07440185546875 L 389.6714172363281 194.07440185546875 L 389.6714172363281 193.78619384765625" stroke-opacity="1" stroke-linejoin="bevel" stroke-miterlimit="10" stroke-dasharray="" clip-path="url(#GNktkmBNQRPi)"/><path fill="none" stroke="rgb(0,0,0)" paint-order="fill" d="M 421.528564453125 164.96531677246094 L 427.9000244140625 164.96531677246094 L 427.9000244140625 165.25352478027344 L 421.528564453125 165.25352478027344 L 421.528564453125 164.96531677246094" stroke-opacity="1" stroke-linejoin="bevel" stroke-miterlimit="10" stroke-dasharray="" clip-path="url(#GNktkmBNQRPi)"/><path fill="none" stroke="rgb(0,0,0)" paint-order="fill" d="M 453.3857116699219 78.50269317626953 L 459.75714111328125 78.50269317626953 L 459.75714111328125 78.79090118408203 L 453.3857116699219 78.79090118408203 L 453.3857116699219 78.50269317626953" stroke-opacity="1" stroke-linejoin="bevel" stroke-miterlimit="10" stroke-dasharray="" clip-path="url(#GNktkmBNQRPi)"/><path fill="none" stroke="rgb(0,0,0)" paint-order="fill" d="M 485.24285888671875 107.32357025146484 L 491.6142883300781 107.32357025146484 L 491.6142883300781 107.61177825927734 L 485.24285888671875 107.61177825927734 L 485.24285888671875 107.32357025146484" stroke-opacity="1" stroke-linejoin="bevel" stroke-miterlimit="10" stroke-dasharray="" clip-path="url(#GNktkmBNQRPi)"/><path fill="none" stroke="rgb(0,0,0)" paint-order="fill" d="M 517.0999755859375 78.50269317626953 L 523.471435546875 78.50269317626953 L 523.471435546875 78.79090118408203 L 517.0999755859375 78.79090118408203 L 517.0999755859375 78.50269317626953" stroke-opacity="1" stroke-linejoin="bevel" stroke-miterlimit="10" stroke-dasharray="" clip-path="url(#GNktkmBNQRPi)"/><path fill="none" stroke="rgb(0,0,0)" paint-order="fill" d="M 548.9571533203125 193.78619384765625 L 555.32861328125 193.78619384765625 L 555.32861328125 194.07440185546875 L 548.9571533203125 194.07440185546875 L 548.9571533203125 193.78619384765625" stroke-opacity="1" stroke-linejoin="bevel" stroke-miterlimit="10" stroke-dasharray="" clip-path="url(#GNktkmBNQRPi)"/><path fill="none" stroke="rgb(0,0,0)" paint-order="fill" d="M 580.8142700195312 251.42794799804688 L 587.1857299804688 251.42794799804688 L 587.1857299804688 251.71615600585938 L 580.8142700195312 251.71615600585938 L 580.8142700195312 251.42794799804688" stroke-opacity="1" stroke-linejoin="bevel" stroke-miterlimit="10" stroke-dasharray="" clip-path="url(#GNktkmBNQRPi)"/><path fill="none" stroke="rgb(0,0,0)" paint-order="fill" d="M 612.67138671875 164.96531677246094 L 619.0428466796875 164.96531677246094 L 619.0428466796875 165.25352478027344 L 612.67138671875 165.25352478027344 L 612.67138671875 164.96531677246094" stroke-opacity="1" stroke-linejoin="bevel" stroke-miterlimit="10" stroke-dasharray="" clip-path="url(#GNktkmBNQRPi)"/><path fill="none" stroke="rgb(0,0,0)" paint-order="fill" d="M 644.528564453125 49.681819915771484 L 650.9000244140625 49.681819915771484 L 650.9000244140625 49.970027923583984 L 644.528564453125 49.970027923583984 L 644.528564453125 49.681819915771484" stroke-opacity="1" stroke-linejoin="bevel" stroke-miterlimit="10" stroke-dasharray="" clip-path="url(#GNktkmBNQRPi)"/><path fill="none" stroke="rgb(0,0,0)" paint-order="fill" d="M 676.3856811523438 136.14443969726562 L 682.7571411132812 136.14443969726562 L 682.7571411132812 136.43264770507812 L 676.3856811523438 136.43264770507812 L 676.3856811523438 136.14443969726562" stroke-opacity="1" stroke-linejoin="bevel" stroke-miterlimit="10" stroke-dasharray="" clip-path="url(#GNktkmBNQRPi)"/><path fill="none" stroke="rgb(0,0,0)" paint-order="fill" d="" stroke-opacity="1" stroke-linejoin="bevel" stroke-miterlimit="10" stroke-dasharray="" clip-path="url(#GNktkmBNQRPi)"/><path fill="none" stroke="none"/><path fill="rgb(215,25,28)" stroke="rgb(215,25,28)" paint-order="fill" d="M 140.5 280.3929138183594 A 2.5 2.5 0 1 1 140.49999875000012 280.39041381877604" fill-opacity="0.6" clip-path="url(#MExfwCBpnBzN)" stroke-opacity="1" stroke-linejoin="bevel" stroke-miterlimit="10" stroke-dasharray=""/><path fill="rgb(215,25,28)" stroke="rgb(215,25,28)" paint-order="fill" d="M 140.5 251.57205200195312 A 2.5 2.5 0 1 1 140.49999875000012 251.5695520023698" fill-opacity="0.6" clip-path="url(#MExfwCBpnBzN)" stroke-opacity="1" stroke-linejoin="bevel" stroke-miterlimit="10" stroke-dasharray=""/><path fill="rgb(215,25,28)" stroke="rgb(215,25,28)" paint-order="fill" d="M 140.5 49.825923919677734 A 2.5 2.5 0 1 1 140.49999875000012 49.8234239200944" fill-opacity="0.6" clip-path="url(#MExfwCBpnBzN)" stroke-opacity="1" stroke-linejoin="bevel" stroke-miterlimit="10" stroke-dasharray=""/><path fill="rgb(215,25,28)" stroke="rgb(215,25,28)" paint-order="fill" d="M 140.5 251.57205200195312 A 2.5 2.5 0 1 1 140.49999875000012 251.5695520023698" fill-opacity="0.6" clip-path="url(#MExfwCBpnBzN)" stroke-opacity="1" stroke-linejoin="bevel" stroke-miterlimit="10" stroke-dasharray=""/><path fill="rgb(215,25,28)" stroke="rgb(215,25,28)" paint-order="fill" d="M 172.35714721679688 193.9302978515625 A 2.5 2.5 0 1 1 172.357145966797 193.92779785197916" fill-opacity="0.6" clip-path="url(#MExfwCBpnBzN)" stroke-opacity="1" stroke-linejoin="bevel" stroke-miterlimit="10" stroke-dasharray=""/><path fill="rgb(215,25,28)" stroke="rgb(215,25,28)" paint-order="fill" d="M 172.35714721679688 193.9302978515625 A 2.5 2.5 0 1 1 172.357145966797 193.92779785197916" fill-opacity="0.6" clip-path="url(#MExfwCBpnBzN)" stroke-opacity="1" stroke-linejoin="bevel" stroke-miterlimit="10" stroke-dasharray=""/><path fill="rgb(215,25,28)" stroke="rgb(215,25,28)" paint-order="fill" d="M 172.35714721679688 338.03466796875 A 2.5 2.5 0 1 1 172.357145966797 338.03216796916666" fill-opacity="0.6" clip-path="url(#MExfwCBpnBzN)" stroke-opacity="1" stroke-linejoin="bevel" stroke-miterlimit="10" stroke-dasharray=""/><path fill="rgb(215,25,28)" stroke="rgb(215,25,28)" paint-order="fill" d="M 267.9285583496094 309.21380615234375 A 2.5 2.5 0 1 1 267.92855709960946 309.2113061527604" fill-opacity="0.6" clip-path="url(#MExfwCBpnBzN)" stroke-opacity="1" stroke-linejoin="bevel" stroke-miterlimit="10" stroke-dasharray=""/><path fill="rgb(215,25,28)" stroke="rgb(215,25,28)" paint-order="fill" d="M 267.9285583496094 165.1094207763672 A 2.5 2.5 0 1 1 267.92855709960946 165.10692077678385" fill-opacity="0.6" clip-path="url(#MExfwCBpnBzN)" stroke-opacity="1" stroke-linejoin="bevel" stroke-miterlimit="10" stroke-dasharray=""/><path fill="rgb(215,25,28)" stroke="rgb(215,25,28)" paint-order="fill" d="M 267.9285583496094 165.1094207763672 A 2.5 2.5 0 1 1 267.92855709960946 165.10692077678385" fill-opacity="0.6" clip-path="url(#MExfwCBpnBzN)" stroke-opacity="1" stroke-linejoin="bevel" stroke-miterlimit="10" stroke-dasharray=""/><path fill="rgb(215,25,28)" stroke="rgb(215,25,28)" paint-order="fill" d="M 267.9285583496094 309.21380615234375 A 2.5 2.5 0 1 1 267.92855709960946 309.2113061527604" fill-opacity="0.6" clip-path="url(#MExfwCBpnBzN)" stroke-opacity="1" stroke-linejoin="bevel" stroke-miterlimit="10" stroke-dasharray=""/><path fill="rgb(215,25,28)" stroke="rgb(215,25,28)" paint-order="fill" d="M 267.9285583496094 165.1094207763672 A 2.5 2.5 0 1 1 267.92855709960946 165.10692077678385" fill-opacity="0.6" clip-path="url(#MExfwCBpnBzN)" stroke-opacity="1" stroke-linejoin="bevel" stroke-miterlimit="10" stroke-dasharray=""/><path fill="rgb(215,25,28)" stroke="rgb(215,25,28)" paint-order="fill" d="M 554.6428833007812 453.31817626953125 A 2.5 2.5 0 1 1 554.6428820507814 453.3156762699479" fill-opacity="0.6" clip-path="url(#MExfwCBpnBzN)" stroke-opacity="1" stroke-linejoin="bevel" stroke-miterlimit="10" stroke-dasharray=""/><path fill="rgb(215,25,28)" stroke="rgb(215,25,28)" paint-order="fill" d="M 554.6428833007812 453.31817626953125 A 2.5 2.5 0 1 1 554.6428820507814 453.3156762699479" fill-opacity="0.6" clip-path="url(#MExfwCBpnBzN)" stroke-opacity="1" stroke-linejoin="bevel" stroke-miterlimit="10" stroke-dasharray=""/><path fill="rgb(215,25,28)" stroke="rgb(215,25,28)" paint-order="fill" d="M 554.6428833007812 453.31817626953125 A 2.5 2.5 0 1 1 554.6428820507814 453.3156762699479" fill-opacity="0.6" clip-path="url(#MExfwCBpnBzN)" stroke-opacity="1" stroke-linejoin="bevel" stroke-miterlimit="10" stroke-dasharray=""/><path fill="none" stroke="rgb(0,0,0)" paint-order="fill" d="M 26.5 473.5 L 695.5 473.5" stroke-opacity="1" stroke-linejoin="bevel" stroke-miterlimit="10" stroke-dasharray=""/><path fill="none" stroke="rgb(0,0,0)" paint-order="fill" d="M 42.5 479.5 L 42.5 471.5 M 74.5 479.5 L 74.5 471.5 M 106.5 479.5 L 106.5 471.5 M 138.5 479.5 L 138.5 471.5 M 169.5 479.5 L 169.5 471.5 M 201.5 479.5 L 201.5 471.5 M 233.5 479.5 L 233.5 471.5 M 265.5 479.5 L 265.5 471.5 M 297.5 479.5 L 297.5 471.5 M 329.5 479.5 L 329.5 471.5 M 361.5 479.5 L 361.5 471.5 M 392.5 479.5 L 392.5 471.5 M 424.5 479.5 L 424.5 471.5 M 456.5 479.5 L 456.5 471.5 M 488.5 479.5 L 488.5 471.5 M 520.5 479.5 L 520.5 471.5 M 552.5 479.5 L 552.5 471.5 M 584.5 479.5 L 584.5 471.5 M 615.5 479.5 L 615.5 471.5 M 647.5 479.5 L 647.5 471.5 M 679.5 479.5 L 679.5 471.5" stroke-opacity="1" stroke-linejoin="bevel" stroke-miterlimit="10" stroke-dasharray=""/><path fill="none" stroke="rgb(0,0,0)" paint-order="fill" d="" stroke-opacity="1" stroke-linejoin="bevel" stroke-miterlimit="10" stroke-dasharray=""/><text fill="rgb(68,68,68)" stroke="none" font-family="helvetica" font-size="9pt" font-style="normal" font-weight="normal" text-decoration="normal" x="0" y="0" text-anchor="middle" dominant-baseline="hanging" transform="matrix(1, 0, 0, 1, 42.5, 484.5)" fill-opacity="1">CB</text><text fill="rgb(68,68,68)" stroke="none" font-family="helvetica" font-size="9pt" font-style="normal" font-weight="normal" text-decoration="normal" x="0" y="0" text-anchor="middle" dominant-baseline="hanging" transform="matrix(1, 0, 0, 1, 74.5, 484.5)" fill-opacity="1">DB</text><text fill="rgb(68,68,68)" stroke="none" font-family="helvetica" font-size="9pt" font-style="normal" font-weight="normal" text-decoration="normal" x="0" y="0" text-anchor="middle" dominant-baseline="hanging" transform="matrix(1, 0, 0, 1, 106.5, 484.5)" fill-opacity="1">DE</text><text fill="rgb(68,68,68)" stroke="none" font-family="helvetica" font-size="9pt" font-style="normal" font-weight="normal" text-decoration="normal" x="0" y="0" text-anchor="middle" dominant-baseline="hanging" transform="matrix(1, 0, 0, 1, 138.5, 484.5)" fill-opacity="1">DT</text><text fill="rgb(68,68,68)" stroke="none" font-family="helvetica" font-size="9pt" font-style="normal" font-weight="normal" text-decoration="normal" x="0" y="0" text-anchor="middle" dominant-baseline="hanging" transform="matrix(1, 0, 0, 1, 169.5, 484.5)" fill-opacity="1">FB</text><text fill="rgb(68,68,68)" stroke="none" font-family="helvetica" font-size="9pt" font-style="normal" font-weight="normal" text-decoration="normal" x="0" y="0" text-anchor="middle" dominant-baseline="hanging" transform="matrix(1, 0, 0, 1, 201.5, 484.5)" fill-opacity="1">FS</text><text fill="rgb(68,68,68)" stroke="none" font-family="helvetica" font-size="9pt" font-style="normal" font-weight="normal" text-decoration="normal" x="0" y="0" text-anchor="middle" dominant-baseline="hanging" transform="matrix(1, 0, 0, 1, 233.5, 484.5)" fill-opacity="1">HB</text><text fill="rgb(68,68,68)" stroke="none" font-family="helvetica" font-size="9pt" font-style="normal" font-weight="normal" text-decoration="normal" x="0" y="0" text-anchor="middle" dominant-baseline="hanging" transform="matrix(1, 0, 0, 1, 265.5, 484.5)" fill-opacity="1">ILB</text><text fill="rgb(68,68,68)" stroke="none" font-family="helvetica" font-size="9pt" font-style="normal" font-weight="normal" text-decoration="normal" x="0" y="0" text-anchor="middle" dominant-baseline="hanging" transform="matrix(1, 0, 0, 1, 297.5, 484.5)" fill-opacity="1">K</text><text fill="rgb(68,68,68)" stroke="none" font-family="helvetica" font-size="9pt" font-style="normal" font-weight="normal" text-decoration="normal" x="0" y="0" text-anchor="middle" dominant-baseline="hanging" transform="matrix(1, 0, 0, 1, 329.5, 484.5)" fill-opacity="1">LB</text><text fill="rgb(68,68,68)" stroke="none" font-family="helvetica" font-size="9pt" font-style="normal" font-weight="normal" text-decoration="normal" x="0" y="0" text-anchor="middle" dominant-baseline="hanging" transform="matrix(1, 0, 0, 1, 361.5, 484.5)" fill-opacity="1">LS</text><text fill="rgb(68,68,68)" stroke="none" font-family="helvetica" font-size="9pt" font-style="normal" font-weight="normal" text-decoration="normal" x="0" y="0" text-anchor="middle" dominant-baseline="hanging" transform="matrix(1, 0, 0, 1, 392.5, 484.5)" fill-opacity="1">MLB</text><text fill="rgb(68,68,68)" stroke="none" font-family="helvetica" font-size="9pt" font-style="normal" font-weight="normal" text-decoration="normal" x="0" y="0" text-anchor="middle" dominant-baseline="hanging" transform="matrix(1, 0, 0, 1, 424.5, 484.5)" fill-opacity="1">NT</text><text fill="rgb(68,68,68)" stroke="none" font-family="helvetica" font-size="9pt" font-style="normal" font-weight="normal" text-decoration="normal" x="0" y="0" text-anchor="middle" dominant-baseline="hanging" transform="matrix(1, 0, 0, 1, 456.5, 484.5)" fill-opacity="1">OLB</text><text fill="rgb(68,68,68)" stroke="none" font-family="helvetica" font-size="9pt" font-style="normal" font-weight="normal" text-decoration="normal" x="0" y="0" text-anchor="middle" dominant-baseline="hanging" transform="matrix(1, 0, 0, 1, 488.5, 484.5)" fill-opacity="1">P</text><text fill="rgb(68,68,68)" stroke="none" font-family="helvetica" font-size="9pt" font-style="normal" font-weight="normal" text-decoration="normal" x="0" y="0" text-anchor="middle" dominant-baseline="hanging" transform="matrix(1, 0, 0, 1, 520.5, 484.5)" fill-opacity="1">QB</text><text fill="rgb(68,68,68)" stroke="none" font-family="helvetica" font-size="9pt" font-style="normal" font-weight="normal" text-decoration="normal" x="0" y="0" text-anchor="middle" dominant-baseline="hanging" transform="matrix(1, 0, 0, 1, 552.5, 484.5)" fill-opacity="1">RB</text><text fill="rgb(68,68,68)" stroke="none" font-family="helvetica" font-size="9pt" font-style="normal" font-weight="normal" text-decoration="normal" x="0" y="0" text-anchor="middle" dominant-baseline="hanging" transform="matrix(1, 0, 0, 1, 584.5, 484.5)" fill-opacity="1">S</text><text fill="rgb(68,68,68)" stroke="none" font-family="helvetica" font-size="9pt" font-style="normal" font-weight="normal" text-decoration="normal" x="0" y="0" text-anchor="middle" dominant-baseline="hanging" transform="matrix(1, 0, 0, 1, 615.5, 484.5)" fill-opacity="1">SS</text><text fill="rgb(68,68,68)" stroke="none" font-family="helvetica" font-size="9pt" font-style="normal" font-weight="normal" text-decoration="normal" x="0" y="0" text-anchor="middle" dominant-baseline="hanging" transform="matrix(1, 0, 0, 1, 647.5, 484.5)" fill-opacity="1">TE</text><text fill="rgb(68,68,68)" stroke="none" font-family="helvetica" font-size="9pt" font-style="normal" font-weight="normal" text-decoration="normal" x="0" y="0" text-anchor="middle" dominant-baseline="hanging" transform="matrix(1, 0, 0, 1, 679.5, 484.5)" fill-opacity="1">WR</text><path fill="none" stroke="rgb(0,0,0)" paint-order="fill" d="M 26.5 473.5 L 26.5 29.5" stroke-opacity="1" stroke-linejoin="bevel" stroke-miterlimit="10" stroke-dasharray=""/><path fill="none" stroke="rgb(0,0,0)" paint-order="fill" d="M 20.5 453.5 L 28.5 453.5 M 20.5 395.5 L 28.5 395.5 M 20.5 338.5 L 28.5 338.5 M 20.5 280.5 L 28.5 280.5 M 20.5 222.5 L 28.5 222.5 M 20.5 165.5 L 28.5 165.5 M 20.5 107.5 L 28.5 107.5 M 20.5 49.5 L 28.5 49.5" stroke-opacity="1" stroke-linejoin="bevel" stroke-miterlimit="10" stroke-dasharray=""/><path fill="none" stroke="rgb(0,0,0)" paint-order="fill" d="M 22.5 464.5 L 26.5 464.5 M 22.5 453.5 L 26.5 453.5 M 22.5 441.5 L 26.5 441.5 M 22.5 430.5 L 26.5 430.5 M 22.5 418.5 L 26.5 418.5 M 22.5 407.5 L 26.5 407.5 M 22.5 395.5 L 26.5 395.5 M 22.5 384.5 L 26.5 384.5 M 22.5 372.5 L 26.5 372.5 M 22.5 361.5 L 26.5 361.5 M 22.5 349.5 L 26.5 349.5 M 22.5 338.5 L 26.5 338.5 M 22.5 326.5 L 26.5 326.5 M 22.5 314.5 L 26.5 314.5 M 22.5 303.5 L 26.5 303.5 M 22.5 291.5 L 26.5 291.5 M 22.5 280.5 L 26.5 280.5 M 22.5 268.5 L 26.5 268.5 M 22.5 257.5 L 26.5 257.5 M 22.5 245.5 L 26.5 245.5 M 22.5 234.5 L 26.5 234.5 M 22.5 222.5 L 26.5 222.5 M 22.5 211.5 L 26.5 211.5 M 22.5 199.5 L 26.5 199.5 M 22.5 188.5 L 26.5 188.5 M 22.5 176.5 L 26.5 176.5 M 22.5 165.5 L 26.5 165.5 M 22.5 153.5 L 26.5 153.5 M 22.5 142.5 L 26.5 142.5 M 22.5 130.5 L 26.5 130.5 M 22.5 118.5 L 26.5 118.5 M 22.5 107.5 L 26.5 107.5 M 22.5 95.5 L 26.5 95.5 M 22.5 84.5 L 26.5 84.5 M 22.5 72.5 L 26.5 72.5 M 22.5 61.5 L 26.5 61.5 M 22.5 49.5 L 26.5 49.5 M 22.5 38.5 L 26.5 38.5" stroke-opacity="1" stroke-linejoin="bevel" stroke-miterlimit="10" stroke-dasharray=""/><text fill="rgb(68,68,68)" stroke="none" font-family="helvetica" font-size="9pt" font-style="normal" font-weight="normal" text-decoration="normal" x="0" y="0" text-anchor="end" dominant-baseline="central" transform="matrix(1, 0, 0, 1, 15.5, 453.5)" fill-opacity="1">66</text><text fill="rgb(68,68,68)" stroke="none" font-family="helvetica" font-size="9pt" font-style="normal" font-weight="normal" text-decoration="normal" x="0" y="0" text-anchor="end" dominant-baseline="central" transform="matrix(1, 0, 0, 1, 15.5, 395.5)" fill-opacity="1">68</text><text fill="rgb(68,68,68)" stroke="none" font-family="helvetica" font-size="9pt" font-style="normal" font-weight="normal" text-decoration="normal" x="0" y="0" text-anchor="end" dominant-baseline="central" transform="matrix(1, 0, 0, 1, 15.5, 338.5)" fill-opacity="1">70</text><text fill="rgb(68,68,68)" stroke="none" font-family="helvetica" font-size="9pt" font-style="normal" font-weight="normal" text-decoration="normal" x="0" y="0" text-anchor="end" dominant-baseline="central" transform="matrix(1, 0, 0, 1, 15.5, 280.5)" fill-opacity="1">72</text><text fill="rgb(68,68,68)" stroke="none" font-family="helvetica" font-size="9pt" font-style="normal" font-weight="normal" text-decoration="normal" x="0" y="0" text-anchor="end" dominant-baseline="central" transform="matrix(1, 0, 0, 1, 15.5, 222.5)" fill-opacity="1">74</text><text fill="rgb(68,68,68)" stroke="none" font-family="helvetica" font-size="9pt" font-style="normal" font-weight="normal" text-decoration="normal" x="0" y="0" text-anchor="end" dominant-baseline="central" transform="matrix(1, 0, 0, 1, 15.5, 165.5)" fill-opacity="1">76</text><text fill="rgb(68,68,68)" stroke="none" font-family="helvetica" font-size="9pt" font-style="normal" font-weight="normal" text-decoration="normal" x="0" y="0" text-anchor="end" dominant-baseline="central" transform="matrix(1, 0, 0, 1, 15.5, 107.5)" fill-opacity="1">78</text><text fill="rgb(68,68,68)" stroke="none" font-family="helvetica" font-size="9pt" font-style="normal" font-weight="normal" text-decoration="normal" x="0" y="0" text-anchor="end" dominant-baseline="central" transform="matrix(1, 0, 0, 1, 15.5, 49.5)" fill-opacity="1">80</text><path fill="none" stroke="none"/><text fill="rgb(128,128,128)" stroke="none" font-family="helvetica" font-size="15px" font-style="normal" font-weight="bold" text-decoration="normal" x="0" y="0" text-anchor="start" dominant-baseline="text-after-edge" transform="matrix(1, 0, 0, 1, 26.5, 24.5)" fill-opacity="1">Player Height Distribution in inches (by NFL Position)
</text></svg>