<svg version="1.1" xmlns="http://www.w3.org/2000/svg" xmlns:xlink="http://www.w3.org/1999/xlink" width="700" height="500"><defs><clipPath id="UFUyGpzThqbg"><path fill="none" stroke="none" d="M 34.5 29.5 L 695.5 29.5 L 695.5 473.5 L 34.5 473.5 L 34.5 29.5"/></clipPath><clipPath id="gqysRkOyMdLW"><path fill="none" stroke="none" d="M 34.5 29.5 L 695.5 29.5 L 695.5 473.5 L 34.5 473.5 L 34.5 29.5"/></clipPath><clipPath id="BGBuoiWSdoXi"><path fill="none" stroke="none" d="M 34.5 29.5 L 695.5 29.5 L 695.5 473.5 L 34.5 473.5 L 34.5 29.5"/></clipPath><clipPath id="nkxcBzrucENI"><path fill="none" stroke="none" d="M 34.5 29.5 L 695.5 29.5 L 695.5 473.5 L 34.5 473.5 L 34.5 29.5"/></clipPath><clipPath id="efZKiENcPMod"><path fill="none" stroke="none" d="M 34.5 29.5 L 695.5 29.5 L 695.5 473.5 L 34.5 473.5 L 34.5 29.5"/></clipPath><clipPath id="coXvhUuTyWBa"><path fill="none" stroke="none" d="M 34.5 29.5 L 695.5 29.5 L 695.5 473.5 L 34.5 473.5 L 34.5 29.5"/></clipPath><clipPath id="aUKaSweGUMtx"><path fill="none" stroke="none" d="M 34.5 29.5 L 695.5 29.5 L 695.5 473.5 L 34.5 473.5 L 34.5 29.5"/></clipPath><clipPath id="WVENLihoIWWa"><path fill="none" stroke="none" d="M 34.5 29.5 L 695.5 29.5 L 695.5 473.5 L 34.5 473.5 L 34.5 29.5"/></clipPath><clipPath id="DLIPgXVLeJPD"><path fill="none" stroke="none" d="M 34.5 29.5 L 695.5 29.5 L 695.5 473.5 L 34.5 473.5 L 34.5 29.5"/></clipPath></defs><path fill="rgb(255,255,255)" stroke="none" paint-order="stroke" d="M 0.5 0.5 L 700.5 0.5 L 700.5 500.5 L 0.5 500.5 L 0.5 0.5" fill-opacity="1"/><rect fill="#FFFFFF" stroke="none" x="34" y="29" width="661" height="444" transform="matrix(1, 0, 0, 1, 0.5, 0.5)"/><path fill="rgb(239,239,239)" stroke="none" paint-order="stroke" d="M 34.5 29.5 L 695.5 29.5 L 695.5 473.5 L 34.5 473.5 L 34.5 29.5" fill-opacity="1"/><path fill="none" stroke="rgb(229,229,229)" paint-order="fill" d="M 34.5 29.5 L 695.5 29.5 L 695.5 473.5 L 34.5 473.5 L 34.5 29.5" stroke-opacity="1" stroke-linejoin="bevel" stroke-miterlimit="10" stroke-dasharray=""/><path fill="none" stroke="rgb(255,255,255)" paint-order="fill" d="M 34.5 472.5 L 695.5 472.5 M 34.5 367.5 L 695.5 367.5 M 34.5 263.5 L 695.5 263.5 M 34.5 158.5 L 695.5 158.5 M 34.5 53.5 L 695.5 53.5" stroke-opacity="1" stroke-linejoin="bevel" stroke-miterlimit="10" stroke-width="2" stroke-dasharray="" clip-path="url(#gqysRkOyMdLW)"/><path fill="none" stroke="none"/><path fill="none" stroke="rgb(0,0,0)" paint-order="fill" d="M 50.238094329833984 336.20391845703125 L 50.238094329833984 367.5738220214844" stroke-opacity="1" stroke-linejoin="bevel" stroke-miterlimit="10" stroke-dasharray="" clip-path="url(#BGBuoiWSdoXi)"/><path fill="none" stroke="rgb(0,0,0)" paint-order="fill" d="M 81.71428680419922 319.47332763671875 L 81.71428680419922 350.84320068359375" stroke-opacity="1" stroke-linejoin="bevel" stroke-miterlimit="10" stroke-dasharray="" clip-path="url(#BGBuoiWSdoXi)"/><path fill="none" stroke="rgb(0,0,0)" paint-order="fill" d="M 113.19047546386719 137.52796936035156 L 113.19047546386719 189.8111114501953" stroke-opacity="1" stroke-linejoin="bevel" stroke-miterlimit="10" stroke-dasharray="" clip-path="url(#BGBuoiWSdoXi)"/><path fill="none" stroke="rgb(0,0,0)" paint-order="fill" d="M 144.6666717529297 49.69227600097656 L 144.6666717529297 96.22427368164062" stroke-opacity="1" stroke-linejoin="bevel" stroke-miterlimit="10" stroke-dasharray="" clip-path="url(#BGBuoiWSdoXi)"/><path fill="none" stroke="rgb(0,0,0)" paint-order="fill" d="M 176.14285278320312 245.75408935546875 L 176.14285278320312 275.55548095703125" stroke-opacity="1" stroke-linejoin="bevel" stroke-miterlimit="10" stroke-dasharray="" clip-path="url(#BGBuoiWSdoXi)"/><path fill="none" stroke="rgb(0,0,0)" paint-order="fill" d="M 207.61904907226562 311.1080322265625 L 207.61904907226562 344.5692443847656" stroke-opacity="1" stroke-linejoin="bevel" stroke-miterlimit="10" stroke-dasharray="" clip-path="url(#BGBuoiWSdoXi)"/><path fill="none" stroke="rgb(0,0,0)" paint-order="fill" d="M 239.09524536132812 283.9207763671875 L 239.09524536132812 325.747314453125" stroke-opacity="1" stroke-linejoin="bevel" stroke-miterlimit="10" stroke-dasharray="" clip-path="url(#BGBuoiWSdoXi)"/><path fill="none" stroke="rgb(0,0,0)" paint-order="fill" d="M 270.5714416503906 248.3682403564453 L 270.5714416503906 279.7381286621094" stroke-opacity="1" stroke-linejoin="bevel" stroke-miterlimit="10" stroke-dasharray="" clip-path="url(#BGBuoiWSdoXi)"/><path fill="none" stroke="rgb(0,0,0)" paint-order="fill" d="M 302.047607421875 336.20391845703125 L 302.047607421875 346.6605529785156" stroke-opacity="1" stroke-linejoin="bevel" stroke-miterlimit="10" stroke-dasharray="" clip-path="url(#BGBuoiWSdoXi)"/><path fill="none" stroke="rgb(0,0,0)" paint-order="fill" d="M 333.5238037109375 200.2677459716797 L 333.5238037109375 263.00750732421875" stroke-opacity="1" stroke-linejoin="bevel" stroke-miterlimit="10" stroke-dasharray="" clip-path="url(#BGBuoiWSdoXi)"/><path fill="none" stroke="rgb(0,0,0)" paint-order="fill" d="M 365 242.09426879882812 L 365 260.39337158203125" stroke-opacity="1" stroke-linejoin="bevel" stroke-miterlimit="10" stroke-dasharray="" clip-path="url(#BGBuoiWSdoXi)"/><path fill="none" stroke="rgb(0,0,0)" paint-order="fill" d="M 396.4761962890625 242.09426879882812 L 396.4761962890625 273.4641418457031" stroke-opacity="1" stroke-linejoin="bevel" stroke-miterlimit="10" stroke-dasharray="" clip-path="url(#BGBuoiWSdoXi)"/><path fill="none" stroke="rgb(0,0,0)" paint-order="fill" d="M 427.952392578125 120.79735565185547 L 427.952392578125 120.79735565185547" stroke-opacity="1" stroke-linejoin="bevel" stroke-miterlimit="10" stroke-dasharray="" clip-path="url(#BGBuoiWSdoXi)"/><path fill="none" stroke="rgb(0,0,0)" paint-order="fill" d="M 459.4285583496094 189.8111114501953 L 459.4285583496094 252.55088806152344" stroke-opacity="1" stroke-linejoin="bevel" stroke-miterlimit="10" stroke-dasharray="" clip-path="url(#BGBuoiWSdoXi)"/><path fill="none" stroke="rgb(0,0,0)" paint-order="fill" d="M 490.9047546386719 281.8294677734375 L 490.9047546386719 321.56463623046875" stroke-opacity="1" stroke-linejoin="bevel" stroke-miterlimit="10" stroke-dasharray="" clip-path="url(#BGBuoiWSdoXi)"/><path fill="none" stroke="rgb(0,0,0)" paint-order="fill" d="M 522.3809814453125 273.4641418457031 L 522.3809814453125 301.6970520019531" stroke-opacity="1" stroke-linejoin="bevel" stroke-miterlimit="10" stroke-dasharray="" clip-path="url(#BGBuoiWSdoXi)"/><path fill="none" stroke="rgb(0,0,0)" paint-order="fill" d="M 553.8571166992188 255.16505432128906 L 553.8571166992188 316.3363342285156" stroke-opacity="1" stroke-linejoin="bevel" stroke-miterlimit="10" stroke-dasharray="" clip-path="url(#BGBuoiWSdoXi)"/><path fill="none" stroke="rgb(0,0,0)" paint-order="fill" d="M 585.3333129882812 332.0212707519531 L 585.3333129882812 350.84320068359375" stroke-opacity="1" stroke-linejoin="bevel" stroke-miterlimit="10" stroke-dasharray="" clip-path="url(#BGBuoiWSdoXi)"/><path fill="none" stroke="rgb(0,0,0)" paint-order="fill" d="M 616.8095092773438 325.747314453125 L 616.8095092773438 338.8180847167969" stroke-opacity="1" stroke-linejoin="bevel" stroke-miterlimit="10" stroke-dasharray="" clip-path="url(#BGBuoiWSdoXi)"/><path fill="none" stroke="rgb(0,0,0)" paint-order="fill" d="M 648.2857055664062 204.4503936767578 L 648.2857055664062 242.09426879882812" stroke-opacity="1" stroke-linejoin="bevel" stroke-miterlimit="10" stroke-dasharray="" clip-path="url(#BGBuoiWSdoXi)"/><path fill="none" stroke="rgb(0,0,0)" paint-order="fill" d="M 679.7619018554688 278.6924743652344 L 679.7619018554688 344.5692443847656" stroke-opacity="1" stroke-linejoin="bevel" stroke-miterlimit="10" stroke-dasharray="" clip-path="url(#BGBuoiWSdoXi)"/><path fill="none" stroke="none"/><path fill="none" stroke="rgb(0,0,0)" paint-order="fill" d="M 50.238094329833984 419.8569641113281 L 50.238094329833984 388.4870910644531" stroke-opacity="1" stroke-linejoin="bevel" stroke-miterlimit="10" stroke-dasharray="" clip-path="url(#nkxcBzrucENI)"/><path fill="none" stroke="rgb(0,0,0)" paint-order="fill" d="M 81.71428680419922 403.1263732910156 L 81.71428680419922 371.7564697265625" stroke-opacity="1" stroke-linejoin="bevel" stroke-miterlimit="10" stroke-dasharray="" clip-path="url(#nkxcBzrucENI)"/><path fill="none" stroke="rgb(0,0,0)" paint-order="fill" d="M 113.19047546386719 294.3774108886719 L 113.19047546386719 248.3682403564453" stroke-opacity="1" stroke-linejoin="bevel" stroke-miterlimit="10" stroke-dasharray="" clip-path="url(#nkxcBzrucENI)"/><path fill="none" stroke="rgb(0,0,0)" paint-order="fill" d="M 144.6666717529297 206.54171752929688 L 144.6666717529297 168.89785766601562" stroke-opacity="1" stroke-linejoin="bevel" stroke-miterlimit="10" stroke-dasharray="" clip-path="url(#nkxcBzrucENI)"/><path fill="none" stroke="rgb(0,0,0)" paint-order="fill" d="M 176.14285278320312 298.56005859375 L 176.14285278320312 295.4230651855469" stroke-opacity="1" stroke-linejoin="bevel" stroke-miterlimit="10" stroke-dasharray="" clip-path="url(#nkxcBzrucENI)"/><path fill="none" stroke="rgb(0,0,0)" paint-order="fill" d="M 207.61904907226562 398.9436950683594 L 207.61904907226562 369.6651306152344" stroke-opacity="1" stroke-linejoin="bevel" stroke-miterlimit="10" stroke-dasharray="" clip-path="url(#nkxcBzrucENI)"/><path fill="none" stroke="rgb(0,0,0)" paint-order="fill" d="M 239.09524536132812 367.5738220214844 L 239.09524536132812 357.1171875" stroke-opacity="1" stroke-linejoin="bevel" stroke-miterlimit="10" stroke-dasharray="" clip-path="url(#nkxcBzrucENI)"/><path fill="none" stroke="rgb(0,0,0)" paint-order="fill" d="M 270.5714416503906 342.4779052734375 L 270.5714416503906 304.83404541015625" stroke-opacity="1" stroke-linejoin="bevel" stroke-miterlimit="10" stroke-dasharray="" clip-path="url(#nkxcBzrucENI)"/><path fill="none" stroke="rgb(0,0,0)" paint-order="fill" d="M 302.047607421875 393.71539306640625 L 302.047607421875 365.48248291015625" stroke-opacity="1" stroke-linejoin="bevel" stroke-miterlimit="10" stroke-dasharray="" clip-path="url(#nkxcBzrucENI)"/><path fill="none" stroke="rgb(0,0,0)" paint-order="fill" d="M 333.5238037109375 338.2952575683594 L 333.5238037109375 304.83404541015625" stroke-opacity="1" stroke-linejoin="bevel" stroke-miterlimit="10" stroke-dasharray="" clip-path="url(#nkxcBzrucENI)"/><path fill="none" stroke="rgb(0,0,0)" paint-order="fill" d="M 365 298.56005859375 L 365 294.3774108886719" stroke-opacity="1" stroke-linejoin="bevel" stroke-miterlimit="10" stroke-dasharray="" clip-path="url(#nkxcBzrucENI)"/><path fill="none" stroke="rgb(0,0,0)" paint-order="fill" d="M 396.4761962890625 311.1080322265625 L 396.4761962890625 294.3774108886719" stroke-opacity="1" stroke-linejoin="bevel" stroke-miterlimit="10" stroke-dasharray="" clip-path="url(#nkxcBzrucENI)"/><path fill="none" stroke="rgb(0,0,0)" paint-order="fill" d="M 427.952392578125 137.52796936035156 L 427.952392578125 129.16265869140625" stroke-opacity="1" stroke-linejoin="bevel" stroke-miterlimit="10" stroke-dasharray="" clip-path="url(#nkxcBzrucENI)"/><path fill="none" stroke="rgb(0,0,0)" paint-order="fill" d="M 459.4285583496094 336.20391845703125 L 459.4285583496094 294.3774108886719" stroke-opacity="1" stroke-linejoin="bevel" stroke-miterlimit="10" stroke-dasharray="" clip-path="url(#nkxcBzrucENI)"/><path fill="none" stroke="rgb(0,0,0)" paint-order="fill" d="M 490.9047546386719 378.03045654296875 L 490.9047546386719 350.84320068359375" stroke-opacity="1" stroke-linejoin="bevel" stroke-miterlimit="10" stroke-dasharray="" clip-path="url(#nkxcBzrucENI)"/><path fill="none" stroke="rgb(0,0,0)" paint-order="fill" d="M 522.3809814453125 363.39117431640625 L 522.3809814453125 336.20391845703125" stroke-opacity="1" stroke-linejoin="bevel" stroke-miterlimit="10" stroke-dasharray="" clip-path="url(#nkxcBzrucENI)"/><path fill="none" stroke="rgb(0,0,0)" paint-order="fill" d="M 553.8571166992188 398.9436950683594 L 553.8571166992188 357.1171875" stroke-opacity="1" stroke-linejoin="bevel" stroke-miterlimit="10" stroke-dasharray="" clip-path="url(#nkxcBzrucENI)"/><path fill="none" stroke="rgb(0,0,0)" paint-order="fill" d="M 585.3333129882812 392.66973876953125 L 585.3333129882812 367.5738220214844" stroke-opacity="1" stroke-linejoin="bevel" stroke-miterlimit="10" stroke-dasharray="" clip-path="url(#nkxcBzrucENI)"/><path fill="none" stroke="rgb(0,0,0)" paint-order="fill" d="M 616.8095092773438 396.8523864746094 L 616.8095092773438 363.39117431640625" stroke-opacity="1" stroke-linejoin="bevel" stroke-miterlimit="10" stroke-dasharray="" clip-path="url(#nkxcBzrucENI)"/><path fill="none" stroke="rgb(0,0,0)" paint-order="fill" d="M 648.2857055664062 304.83404541015625 L 648.2857055664062 267.190185546875" stroke-opacity="1" stroke-linejoin="bevel" stroke-miterlimit="10" stroke-dasharray="" clip-path="url(#nkxcBzrucENI)"/><path fill="none" stroke="rgb(0,0,0)" paint-order="fill" d="M 679.7619018554688 451.22686767578125 L 679.7619018554688 388.4870910644531" stroke-opacity="1" stroke-linejoin="bevel" stroke-miterlimit="10" stroke-dasharray="" clip-path="url(#nkxcBzrucENI)"/><path fill="none" stroke="none"/><path fill="rgb(253,174,97)" stroke="none" paint-order="stroke" d="M 39.22142791748047 382.2131042480469 L 61.2547607421875 382.2131042480469 L 61.2547607421875 367.5738220214844 L 39.22142791748047 367.5738220214844 L 39.22142791748047 382.2131042480469" fill-opacity="0.85" clip-path="url(#efZKiENcPMod)"/><path fill="none" stroke="rgb(0,0,0)" paint-order="fill" d="M 39.22142791748047 382.2131042480469 L 61.2547607421875 382.2131042480469 L 61.2547607421875 367.5738220214844 L 39.22142791748047 367.5738220214844 L 39.22142791748047 382.2131042480469" stroke-opacity="1" stroke-linejoin="bevel" stroke-miterlimit="10" stroke-dasharray="" clip-path="url(#efZKiENcPMod)"/><path fill="rgb(253,174,97)" stroke="none" paint-order="stroke" d="M 70.69761657714844 363.39117431640625 L 92.73095703125 363.39117431640625 L 92.73095703125 350.84320068359375 L 70.69761657714844 350.84320068359375 L 70.69761657714844 363.39117431640625" fill-opacity="0.85" clip-path="url(#efZKiENcPMod)"/><path fill="none" stroke="rgb(0,0,0)" paint-order="fill" d="M 70.69761657714844 363.39117431640625 L 92.73095703125 363.39117431640625 L 92.73095703125 350.84320068359375 L 70.69761657714844 350.84320068359375 L 70.69761657714844 363.39117431640625" stroke-opacity="1" stroke-linejoin="bevel" stroke-miterlimit="10" stroke-dasharray="" clip-path="url(#efZKiENcPMod)"/><path fill="rgb(253,174,97)" stroke="none" paint-order="stroke" d="M 102.17381286621094 231.63763427734375 L 124.20713806152344 231.63763427734375 L 124.20713806152344 189.8111114501953 L 102.17381286621094 189.8111114501953 L 102.17381286621094 231.63763427734375" fill-opacity="0.85" clip-path="url(#efZKiENcPMod)"/><path fill="none" stroke="rgb(0,0,0)" paint-order="fill" d="M 102.17381286621094 231.63763427734375 L 124.20713806152344 231.63763427734375 L 124.20713806152344 189.8111114501953 L 102.17381286621094 189.8111114501953 L 102.17381286621094 231.63763427734375" stroke-opacity="1" stroke-linejoin="bevel" stroke-miterlimit="10" stroke-dasharray="" clip-path="url(#efZKiENcPMod)"/><path fill="rgb(253,174,97)" stroke="none" paint-order="stroke" d="M 133.65000915527344 145.8932647705078 L 155.68333435058594 145.8932647705078 L 155.68333435058594 96.22427368164062 L 133.65000915527344 96.22427368164062 L 133.65000915527344 145.8932647705078" fill-opacity="0.85" clip-path="url(#efZKiENcPMod)"/><path fill="none" stroke="rgb(0,0,0)" paint-order="fill" d="M 133.65000915527344 145.8932647705078 L 155.68333435058594 145.8932647705078 L 155.68333435058594 96.22427368164062 L 133.65000915527344 96.22427368164062 L 133.65000915527344 145.8932647705078" stroke-opacity="1" stroke-linejoin="bevel" stroke-miterlimit="10" stroke-dasharray="" clip-path="url(#efZKiENcPMod)"/><path fill="rgb(253,174,97)" stroke="none" paint-order="stroke" d="M 165.12619018554688 283.9207763671875 L 187.15951538085938 283.9207763671875 L 187.15951538085938 275.55548095703125 L 165.12619018554688 275.55548095703125 L 165.12619018554688 283.9207763671875" fill-opacity="0.85" clip-path="url(#efZKiENcPMod)"/><path fill="none" stroke="rgb(0,0,0)" paint-order="fill" d="M 165.12619018554688 283.9207763671875 L 187.15951538085938 283.9207763671875 L 187.15951538085938 275.55548095703125 L 165.12619018554688 275.55548095703125 L 165.12619018554688 283.9207763671875" stroke-opacity="1" stroke-linejoin="bevel" stroke-miterlimit="10" stroke-dasharray="" clip-path="url(#efZKiENcPMod)"/><path fill="rgb(253,174,97)" stroke="none" paint-order="stroke" d="M 196.60238647460938 357.1171875 L 218.63571166992188 357.1171875 L 218.63571166992188 344.5692443847656 L 196.60238647460938 344.5692443847656 L 196.60238647460938 357.1171875" fill-opacity="0.85" clip-path="url(#efZKiENcPMod)"/><path fill="none" stroke="rgb(0,0,0)" paint-order="fill" d="M 196.60238647460938 357.1171875 L 218.63571166992188 357.1171875 L 218.63571166992188 344.5692443847656 L 196.60238647460938 344.5692443847656 L 196.60238647460938 357.1171875" stroke-opacity="1" stroke-linejoin="bevel" stroke-miterlimit="10" stroke-dasharray="" clip-path="url(#efZKiENcPMod)"/><path fill="rgb(253,174,97)" stroke="none" paint-order="stroke" d="M 228.07858276367188 327.838623046875 L 250.11190795898438 327.838623046875 L 250.11190795898438 325.747314453125 L 228.07858276367188 325.747314453125 L 228.07858276367188 327.838623046875" fill-opacity="0.85" clip-path="url(#efZKiENcPMod)"/><path fill="none" stroke="rgb(0,0,0)" paint-order="fill" d="M 228.07858276367188 327.838623046875 L 250.11190795898438 327.838623046875 L 250.11190795898438 325.747314453125 L 228.07858276367188 325.747314453125 L 228.07858276367188 327.838623046875" stroke-opacity="1" stroke-linejoin="bevel" stroke-miterlimit="10" stroke-dasharray="" clip-path="url(#efZKiENcPMod)"/><path fill="rgb(253,174,97)" stroke="none" paint-order="stroke" d="M 259.5547790527344 290.19476318359375 L 281.5881042480469 290.19476318359375 L 281.5881042480469 279.7381286621094 L 259.5547790527344 279.7381286621094 L 259.5547790527344 290.19476318359375" fill-opacity="0.85" clip-path="url(#efZKiENcPMod)"/><path fill="none" stroke="rgb(0,0,0)" paint-order="fill" d="M 259.5547790527344 290.19476318359375 L 281.5881042480469 290.19476318359375 L 281.5881042480469 279.7381286621094 L 259.5547790527344 279.7381286621094 L 259.5547790527344 290.19476318359375" stroke-opacity="1" stroke-linejoin="bevel" stroke-miterlimit="10" stroke-dasharray="" clip-path="url(#efZKiENcPMod)"/><path fill="rgb(253,174,97)" stroke="none" paint-order="stroke" d="M 291.03094482421875 352.9345397949219 L 313.06427001953125 352.9345397949219 L 313.06427001953125 346.6605529785156 L 291.03094482421875 346.6605529785156 L 291.03094482421875 352.9345397949219" fill-opacity="0.85" clip-path="url(#efZKiENcPMod)"/><path fill="none" stroke="rgb(0,0,0)" paint-order="fill" d="M 291.03094482421875 352.9345397949219 L 313.06427001953125 352.9345397949219 L 313.06427001953125 346.6605529785156 L 291.03094482421875 346.6605529785156 L 291.03094482421875 352.9345397949219" stroke-opacity="1" stroke-linejoin="bevel" stroke-miterlimit="10" stroke-dasharray="" clip-path="url(#efZKiENcPMod)"/><path fill="rgb(253,174,97)" stroke="none" paint-order="stroke" d="M 322.50714111328125 290.19476318359375 L 344.54046630859375 290.19476318359375 L 344.54046630859375 263.00750732421875 L 322.50714111328125 263.00750732421875 L 322.50714111328125 290.19476318359375" fill-opacity="0.85" clip-path="url(#efZKiENcPMod)"/><path fill="none" stroke="rgb(0,0,0)" paint-order="fill" d="M 322.50714111328125 290.19476318359375 L 344.54046630859375 290.19476318359375 L 344.54046630859375 263.00750732421875 L 322.50714111328125 263.00750732421875 L 322.50714111328125 290.19476318359375" stroke-opacity="1" stroke-linejoin="bevel" stroke-miterlimit="10" stroke-dasharray="" clip-path="url(#efZKiENcPMod)"/><path fill="rgb(253,174,97)" stroke="none" paint-order="stroke" d="M 353.9833068847656 280.7837829589844 L 376.0166931152344 280.7837829589844 L 376.0166931152344 260.39337158203125 L 353.9833068847656 260.39337158203125 L 353.9833068847656 280.7837829589844" fill-opacity="0.85" clip-path="url(#efZKiENcPMod)"/><path fill="none" stroke="rgb(0,0,0)" paint-order="fill" d="M 353.9833068847656 280.7837829589844 L 376.0166931152344 280.7837829589844 L 376.0166931152344 260.39337158203125 L 353.9833068847656 260.39337158203125 L 353.9833068847656 280.7837829589844" stroke-opacity="1" stroke-linejoin="bevel" stroke-miterlimit="10" stroke-dasharray="" clip-path="url(#efZKiENcPMod)"/><path fill="rgb(253,174,97)" stroke="none" paint-order="stroke" d="M 385.45953369140625 288.1034240722656 L 407.49285888671875 288.1034240722656 L 407.49285888671875 273.4641418457031 L 385.45953369140625 273.4641418457031 L 385.45953369140625 288.1034240722656" fill-opacity="0.85" clip-path="url(#efZKiENcPMod)"/><path fill="none" stroke="rgb(0,0,0)" paint-order="fill" d="M 385.45953369140625 288.1034240722656 L 407.49285888671875 288.1034240722656 L 407.49285888671875 273.4641418457031 L 385.45953369140625 273.4641418457031 L 385.45953369140625 288.1034240722656" stroke-opacity="1" stroke-linejoin="bevel" stroke-miterlimit="10" stroke-dasharray="" clip-path="url(#efZKiENcPMod)"/><path fill="rgb(253,174,97)" stroke="none" paint-order="stroke" d="M 416.93572998046875 127.07133483886719 L 438.96905517578125 127.07133483886719 L 438.96905517578125 120.79735565185547 L 416.93572998046875 120.79735565185547 L 416.93572998046875 127.07133483886719" fill-opacity="0.85" clip-path="url(#efZKiENcPMod)"/><path fill="none" stroke="rgb(0,0,0)" paint-order="fill" d="M 416.93572998046875 127.07133483886719 L 438.96905517578125 127.07133483886719 L 438.96905517578125 120.79735565185547 L 416.93572998046875 120.79735565185547 L 416.93572998046875 127.07133483886719" stroke-opacity="1" stroke-linejoin="bevel" stroke-miterlimit="10" stroke-dasharray="" clip-path="url(#efZKiENcPMod)"/><path fill="rgb(253,174,97)" stroke="none" paint-order="stroke" d="M 448.411865234375 273.4641418457031 L 470.44525146484375 273.4641418457031 L 470.44525146484375 252.55088806152344 L 448.411865234375 252.55088806152344 L 448.411865234375 273.4641418457031" fill-opacity="0.85" clip-path="url(#efZKiENcPMod)"/><path fill="none" stroke="rgb(0,0,0)" paint-order="fill" d="M 448.411865234375 273.4641418457031 L 470.44525146484375 273.4641418457031 L 470.44525146484375 252.55088806152344 L 448.411865234375 252.55088806152344 L 448.411865234375 273.4641418457031" stroke-opacity="1" stroke-linejoin="bevel" stroke-miterlimit="10" stroke-dasharray="" clip-path="url(#efZKiENcPMod)"/><path fill="rgb(253,174,97)" stroke="none" paint-order="stroke" d="M 479.8880615234375 340.3865661621094 L 501.92144775390625 340.3865661621094 L 501.92144775390625 321.56463623046875 L 479.8880615234375 321.56463623046875 L 479.8880615234375 340.3865661621094" fill-opacity="0.85" clip-path="url(#efZKiENcPMod)"/><path fill="none" stroke="rgb(0,0,0)" paint-order="fill" d="M 479.8880615234375 340.3865661621094 L 501.92144775390625 340.3865661621094 L 501.92144775390625 321.56463623046875 L 479.8880615234375 321.56463623046875 L 479.8880615234375 340.3865661621094" stroke-opacity="1" stroke-linejoin="bevel" stroke-miterlimit="10" stroke-dasharray="" clip-path="url(#efZKiENcPMod)"/><path fill="rgb(253,174,97)" stroke="none" paint-order="stroke" d="M 511.36431884765625 319.47332763671875 L 533.3976440429688 319.47332763671875 L 533.3976440429688 301.6970520019531 L 511.36431884765625 301.6970520019531 L 511.36431884765625 319.47332763671875" fill-opacity="0.85" clip-path="url(#efZKiENcPMod)"/><path fill="none" stroke="rgb(0,0,0)" paint-order="fill" d="M 511.36431884765625 319.47332763671875 L 533.3976440429688 319.47332763671875 L 533.3976440429688 301.6970520019531 L 511.36431884765625 301.6970520019531 L 511.36431884765625 319.47332763671875" stroke-opacity="1" stroke-linejoin="bevel" stroke-miterlimit="10" stroke-dasharray="" clip-path="url(#efZKiENcPMod)"/><path fill="rgb(253,174,97)" stroke="none" paint-order="stroke" d="M 542.8404541015625 336.20391845703125 L 564.873779296875 336.20391845703125 L 564.873779296875 316.3363342285156 L 542.8404541015625 316.3363342285156 L 542.8404541015625 336.20391845703125" fill-opacity="0.85" clip-path="url(#efZKiENcPMod)"/><path fill="none" stroke="rgb(0,0,0)" paint-order="fill" d="M 542.8404541015625 336.20391845703125 L 564.873779296875 336.20391845703125 L 564.873779296875 316.3363342285156 L 542.8404541015625 316.3363342285156 L 542.8404541015625 336.20391845703125" stroke-opacity="1" stroke-linejoin="bevel" stroke-miterlimit="10" stroke-dasharray="" clip-path="url(#efZKiENcPMod)"/><path fill="rgb(253,174,97)" stroke="none" paint-order="stroke" d="M 574.316650390625 367.5738220214844 L 596.3499755859375 367.5738220214844 L 596.3499755859375 350.84320068359375 L 574.316650390625 350.84320068359375 L 574.316650390625 367.5738220214844" fill-opacity="0.85" clip-path="url(#efZKiENcPMod)"/><path fill="none" stroke="rgb(0,0,0)" paint-order="fill" d="M 574.316650390625 367.5738220214844 L 596.3499755859375 367.5738220214844 L 596.3499755859375 350.84320068359375 L 574.316650390625 350.84320068359375 L 574.316650390625 367.5738220214844" stroke-opacity="1" stroke-linejoin="bevel" stroke-miterlimit="10" stroke-dasharray="" clip-path="url(#efZKiENcPMod)"/><path fill="rgb(253,174,97)" stroke="none" paint-order="stroke" d="M 605.7928466796875 349.79754638671875 L 627.826171875 349.79754638671875 L 627.826171875 338.8180847167969 L 605.7928466796875 338.8180847167969 L 605.7928466796875 349.79754638671875" fill-opacity="0.85" clip-path="url(#efZKiENcPMod)"/><path fill="none" stroke="rgb(0,0,0)" paint-order="fill" d="M 605.7928466796875 349.79754638671875 L 627.826171875 349.79754638671875 L 627.826171875 338.8180847167969 L 605.7928466796875 338.8180847167969 L 605.7928466796875 349.79754638671875" stroke-opacity="1" stroke-linejoin="bevel" stroke-miterlimit="10" stroke-dasharray="" clip-path="url(#efZKiENcPMod)"/><path fill="rgb(253,174,97)" stroke="none" paint-order="stroke" d="M 637.26904296875 254.6422119140625 L 659.3023681640625 254.6422119140625 L 659.3023681640625 242.09426879882812 L 637.26904296875 242.09426879882812 L 637.26904296875 254.6422119140625" fill-opacity="0.85" clip-path="url(#efZKiENcPMod)"/><path fill="none" stroke="rgb(0,0,0)" paint-order="fill" d="M 637.26904296875 254.6422119140625 L 659.3023681640625 254.6422119140625 L 659.3023681640625 242.09426879882812 L 637.26904296875 242.09426879882812 L 637.26904296875 254.6422119140625" stroke-opacity="1" stroke-linejoin="bevel" stroke-miterlimit="10" stroke-dasharray="" clip-path="url(#efZKiENcPMod)"/><path fill="rgb(253,174,97)" stroke="none" paint-order="stroke" d="M 668.7452392578125 365.48248291015625 L 690.778564453125 365.48248291015625 L 690.778564453125 344.5692443847656 L 668.7452392578125 344.5692443847656 L 668.7452392578125 365.48248291015625" fill-opacity="0.85" clip-path="url(#efZKiENcPMod)"/><path fill="none" stroke="rgb(0,0,0)" paint-order="fill" d="M 668.7452392578125 365.48248291015625 L 690.778564453125 365.48248291015625 L 690.778564453125 344.5692443847656 L 668.7452392578125 344.5692443847656 L 668.7452392578125 365.48248291015625" stroke-opacity="1" stroke-linejoin="bevel" stroke-miterlimit="10" stroke-dasharray="" clip-path="url(#efZKiENcPMod)"/><path fill="none" stroke="none"/><path fill="rgb(43,131,186)" stroke="none" paint-order="stroke" d="M 39.22142791748047 388.4870910644531 L 61.2547607421875 388.4870910644531 L 61.2547607421875 382.2131042480469 L 39.22142791748047 382.2131042480469 L 39.22142791748047 388.4870910644531" fill-opacity="0.75" clip-path="url(#coXvhUuTyWBa)"/><path fill="none" stroke="rgb(0,0,0)" paint-order="fill" d="M 39.22142791748047 388.4870910644531 L 61.2547607421875 388.4870910644531 L 61.2547607421875 382.2131042480469 L 39.22142791748047 382.2131042480469 L 39.22142791748047 388.4870910644531" stroke-opacity="1" stroke-linejoin="bevel" stroke-miterlimit="10" stroke-dasharray="" clip-path="url(#coXvhUuTyWBa)"/><path fill="rgb(43,131,186)" stroke="none" paint-order="stroke" d="M 70.69761657714844 371.7564697265625 L 92.73095703125 371.7564697265625 L 92.73095703125 363.39117431640625 L 70.69761657714844 363.39117431640625 L 70.69761657714844 371.7564697265625" fill-opacity="0.75" clip-path="url(#coXvhUuTyWBa)"/><path fill="none" stroke="rgb(0,0,0)" paint-order="fill" d="M 70.69761657714844 371.7564697265625 L 92.73095703125 371.7564697265625 L 92.73095703125 363.39117431640625 L 70.69761657714844 363.39117431640625 L 70.69761657714844 371.7564697265625" stroke-opacity="1" stroke-linejoin="bevel" stroke-miterlimit="10" stroke-dasharray="" clip-path="url(#coXvhUuTyWBa)"/><path fill="rgb(43,131,186)" stroke="none" paint-order="stroke" d="M 102.17381286621094 248.3682403564453 L 124.20713806152344 248.3682403564453 L 124.20713806152344 231.63763427734375 L 102.17381286621094 231.63763427734375 L 102.17381286621094 248.3682403564453" fill-opacity="0.75" clip-path="url(#coXvhUuTyWBa)"/><path fill="none" stroke="rgb(0,0,0)" paint-order="fill" d="M 102.17381286621094 248.3682403564453 L 124.20713806152344 248.3682403564453 L 124.20713806152344 231.63763427734375 L 102.17381286621094 231.63763427734375 L 102.17381286621094 248.3682403564453" stroke-opacity="1" stroke-linejoin="bevel" stroke-miterlimit="10" stroke-dasharray="" clip-path="url(#coXvhUuTyWBa)"/><path fill="rgb(43,131,186)" stroke="none" paint-order="stroke" d="M 133.65000915527344 168.89785766601562 L 155.68333435058594 168.89785766601562 L 155.68333435058594 145.8932647705078 L 133.65000915527344 145.8932647705078 L 133.65000915527344 168.89785766601562" fill-opacity="0.75" clip-path="url(#coXvhUuTyWBa)"/><path fill="none" stroke="rgb(0,0,0)" paint-order="fill" d="M 133.65000915527344 168.89785766601562 L 155.68333435058594 168.89785766601562 L 155.68333435058594 145.8932647705078 L 133.65000915527344 145.8932647705078 L 133.65000915527344 168.89785766601562" stroke-opacity="1" stroke-linejoin="bevel" stroke-miterlimit="10" stroke-dasharray="" clip-path="url(#coXvhUuTyWBa)"/><path fill="rgb(43,131,186)" stroke="none" paint-order="stroke" d="M 165.12619018554688 295.4230651855469 L 187.15951538085938 295.4230651855469 L 187.15951538085938 283.9207763671875 L 165.12619018554688 283.9207763671875 L 165.12619018554688 295.4230651855469" fill-opacity="0.75" clip-path="url(#coXvhUuTyWBa)"/><path fill="none" stroke="rgb(0,0,0)" paint-order="fill" d="M 165.12619018554688 295.4230651855469 L 187.15951538085938 295.4230651855469 L 187.15951538085938 283.9207763671875 L 165.12619018554688 283.9207763671875 L 165.12619018554688 295.4230651855469" stroke-opacity="1" stroke-linejoin="bevel" stroke-miterlimit="10" stroke-dasharray="" clip-path="url(#coXvhUuTyWBa)"/><path fill="rgb(43,131,186)" stroke="none" paint-order="stroke" d="M 196.60238647460938 369.6651306152344 L 218.63571166992188 369.6651306152344 L 218.63571166992188 357.1171875 L 196.60238647460938 357.1171875 L 196.60238647460938 369.6651306152344" fill-opacity="0.75" clip-path="url(#coXvhUuTyWBa)"/><path fill="none" stroke="rgb(0,0,0)" paint-order="fill" d="M 196.60238647460938 369.6651306152344 L 218.63571166992188 369.6651306152344 L 218.63571166992188 357.1171875 L 196.60238647460938 357.1171875 L 196.60238647460938 369.6651306152344" stroke-opacity="1" stroke-linejoin="bevel" stroke-miterlimit="10" stroke-dasharray="" clip-path="url(#coXvhUuTyWBa)"/><path fill="rgb(43,131,186)" stroke="none" paint-order="stroke" d="M 228.07858276367188 357.1171875 L 250.11190795898438 357.1171875 L 250.11190795898438 327.838623046875 L 228.07858276367188 327.838623046875 L 228.07858276367188 357.1171875" fill-opacity="0.75" clip-path="url(#coXvhUuTyWBa)"/><path fill="none" stroke="rgb(0,0,0)" paint-order="fill" d="M 228.07858276367188 357.1171875 L 250.11190795898438 357.1171875 L 250.11190795898438 327.838623046875 L 228.07858276367188 327.838623046875 L 228.07858276367188 357.1171875" stroke-opacity="1" stroke-linejoin="bevel" stroke-miterlimit="10" stroke-dasharray="" clip-path="url(#coXvhUuTyWBa)"/><path fill="rgb(43,131,186)" stroke="none" paint-order="stroke" d="M 259.5547790527344 304.83404541015625 L 281.5881042480469 304.83404541015625 L 281.5881042480469 290.19476318359375 L 259.5547790527344 290.19476318359375 L 259.5547790527344 304.83404541015625" fill-opacity="0.75" clip-path="url(#coXvhUuTyWBa)"/><path fill="none" stroke="rgb(0,0,0)" paint-order="fill" d="M 259.5547790527344 304.83404541015625 L 281.5881042480469 304.83404541015625 L 281.5881042480469 290.19476318359375 L 259.5547790527344 290.19476318359375 L 259.5547790527344 304.83404541015625" stroke-opacity="1" stroke-linejoin="bevel" stroke-miterlimit="10" stroke-dasharray="" clip-path="url(#coXvhUuTyWBa)"/><path fill="rgb(43,131,186)" stroke="none" paint-order="stroke" d="M 291.03094482421875 365.48248291015625 L 313.06427001953125 365.48248291015625 L 313.06427001953125 352.9345397949219 L 291.03094482421875 352.9345397949219 L 291.03094482421875 365.48248291015625" fill-opacity="0.75" clip-path="url(#coXvhUuTyWBa)"/><path fill="none" stroke="rgb(0,0,0)" paint-order="fill" d="M 291.03094482421875 365.48248291015625 L 313.06427001953125 365.48248291015625 L 313.06427001953125 352.9345397949219 L 291.03094482421875 352.9345397949219 L 291.03094482421875 365.48248291015625" stroke-opacity="1" stroke-linejoin="bevel" stroke-miterlimit="10" stroke-dasharray="" clip-path="url(#coXvhUuTyWBa)"/><path fill="rgb(43,131,186)" stroke="none" paint-order="stroke" d="M 322.50714111328125 304.83404541015625 L 344.54046630859375 304.83404541015625 L 344.54046630859375 290.19476318359375 L 322.50714111328125 290.19476318359375 L 322.50714111328125 304.83404541015625" fill-opacity="0.75" clip-path="url(#coXvhUuTyWBa)"/><path fill="none" stroke="rgb(0,0,0)" paint-order="fill" d="M 322.50714111328125 304.83404541015625 L 344.54046630859375 304.83404541015625 L 344.54046630859375 290.19476318359375 L 322.50714111328125 290.19476318359375 L 322.50714111328125 304.83404541015625" stroke-opacity="1" stroke-linejoin="bevel" stroke-miterlimit="10" stroke-dasharray="" clip-path="url(#coXvhUuTyWBa)"/><path fill="rgb(43,131,186)" stroke="none" paint-order="stroke" d="M 353.9833068847656 294.3774108886719 L 376.0166931152344 294.3774108886719 L 376.0166931152344 280.7837829589844 L 353.9833068847656 280.7837829589844 L 353.9833068847656 294.3774108886719" fill-opacity="0.75" clip-path="url(#coXvhUuTyWBa)"/><path fill="none" stroke="rgb(0,0,0)" paint-order="fill" d="M 353.9833068847656 294.3774108886719 L 376.0166931152344 294.3774108886719 L 376.0166931152344 280.7837829589844 L 353.9833068847656 280.7837829589844 L 353.9833068847656 294.3774108886719" stroke-opacity="1" stroke-linejoin="bevel" stroke-miterlimit="10" stroke-dasharray="" clip-path="url(#coXvhUuTyWBa)"/><path fill="rgb(43,131,186)" stroke="none" paint-order="stroke" d="M 385.45953369140625 294.3774108886719 L 407.49285888671875 294.3774108886719 L 407.49285888671875 288.1034240722656 L 385.45953369140625 288.1034240722656 L 385.45953369140625 294.3774108886719" fill-opacity="0.75" clip-path="url(#coXvhUuTyWBa)"/><path fill="none" stroke="rgb(0,0,0)" paint-order="fill" d="M 385.45953369140625 294.3774108886719 L 407.49285888671875 294.3774108886719 L 407.49285888671875 288.1034240722656 L 385.45953369140625 288.1034240722656 L 385.45953369140625 294.3774108886719" stroke-opacity="1" stroke-linejoin="bevel" stroke-miterlimit="10" stroke-dasharray="" clip-path="url(#coXvhUuTyWBa)"/><path fill="rgb(43,131,186)" stroke="none" paint-order="stroke" d="M 416.93572998046875 129.16265869140625 L 438.96905517578125 129.16265869140625 L 438.96905517578125 127.07133483886719 L 416.93572998046875 127.07133483886719 L 416.93572998046875 129.16265869140625" fill-opacity="0.75" clip-path="url(#coXvhUuTyWBa)"/><path fill="none" stroke="rgb(0,0,0)" paint-order="fill" d="M 416.93572998046875 129.16265869140625 L 438.96905517578125 129.16265869140625 L 438.96905517578125 127.07133483886719 L 416.93572998046875 127.07133483886719 L 416.93572998046875 129.16265869140625" stroke-opacity="1" stroke-linejoin="bevel" stroke-miterlimit="10" stroke-dasharray="" clip-path="url(#coXvhUuTyWBa)"/><path fill="rgb(43,131,186)" stroke="none" paint-order="stroke" d="M 448.411865234375 294.3774108886719 L 470.44525146484375 294.3774108886719 L 470.44525146484375 273.4641418457031 L 448.411865234375 273.4641418457031 L 448.411865234375 294.3774108886719" fill-opacity="0.75" clip-path="url(#coXvhUuTyWBa)"/><path fill="none" stroke="rgb(0,0,0)" paint-order="fill" d="M 448.411865234375 294.3774108886719 L 470.44525146484375 294.3774108886719 L 470.44525146484375 273.4641418457031 L 448.411865234375 273.4641418457031 L 448.411865234375 294.3774108886719" stroke-opacity="1" stroke-linejoin="bevel" stroke-miterlimit="10" stroke-dasharray="" clip-path="url(#coXvhUuTyWBa)"/><path fill="rgb(43,131,186)" stroke="none" paint-order="stroke" d="M 479.8880615234375 350.84320068359375 L 501.92144775390625 350.84320068359375 L 501.92144775390625 340.3865661621094 L 479.8880615234375 340.3865661621094 L 479.8880615234375 350.84320068359375" fill-opacity="0.75" clip-path="url(#coXvhUuTyWBa)"/><path fill="none" stroke="rgb(0,0,0)" paint-order="fill" d="M 479.8880615234375 350.84320068359375 L 501.92144775390625 350.84320068359375 L 501.92144775390625 340.3865661621094 L 479.8880615234375 340.3865661621094 L 479.8880615234375 350.84320068359375" stroke-opacity="1" stroke-linejoin="bevel" stroke-miterlimit="10" stroke-dasharray="" clip-path="url(#coXvhUuTyWBa)"/><path fill="rgb(43,131,186)" stroke="none" paint-order="stroke" d="M 511.36431884765625 336.20391845703125 L 533.3976440429688 336.20391845703125 L 533.3976440429688 319.47332763671875 L 511.36431884765625 319.47332763671875 L 511.36431884765625 336.20391845703125" fill-opacity="0.75" clip-path="url(#coXvhUuTyWBa)"/><path fill="none" stroke="rgb(0,0,0)" paint-order="fill" d="M 511.36431884765625 336.20391845703125 L 533.3976440429688 336.20391845703125 L 533.3976440429688 319.47332763671875 L 511.36431884765625 319.47332763671875 L 511.36431884765625 336.20391845703125" stroke-opacity="1" stroke-linejoin="bevel" stroke-miterlimit="10" stroke-dasharray="" clip-path="url(#coXvhUuTyWBa)"/><path fill="rgb(43,131,186)" stroke="none" paint-order="stroke" d="M 542.8404541015625 357.1171875 L 564.873779296875 357.1171875 L 564.873779296875 336.20391845703125 L 542.8404541015625 336.20391845703125 L 542.8404541015625 357.1171875" fill-opacity="0.75" clip-path="url(#coXvhUuTyWBa)"/><path fill="none" stroke="rgb(0,0,0)" paint-order="fill" d="M 542.8404541015625 357.1171875 L 564.873779296875 357.1171875 L 564.873779296875 336.20391845703125 L 542.8404541015625 336.20391845703125 L 542.8404541015625 357.1171875" stroke-opacity="1" stroke-linejoin="bevel" stroke-miterlimit="10" stroke-dasharray="" clip-path="url(#coXvhUuTyWBa)"/><path fill="rgb(43,131,186)" stroke="none" paint-order="stroke" d="M 574.316650390625 367.5738220214844 L 596.3499755859375 367.5738220214844 L 596.3499755859375 367.5738220214844 L 574.316650390625 367.5738220214844 L 574.316650390625 367.5738220214844" fill-opacity="0.75" clip-path="url(#coXvhUuTyWBa)"/><path fill="none" stroke="rgb(0,0,0)" paint-order="fill" d="M 574.316650390625 367.5738220214844 L 596.3499755859375 367.5738220214844 L 596.3499755859375 367.5738220214844 L 574.316650390625 367.5738220214844 L 574.316650390625 367.5738220214844" stroke-opacity="1" stroke-linejoin="bevel" stroke-miterlimit="10" stroke-dasharray="" clip-path="url(#coXvhUuTyWBa)"/><path fill="rgb(43,131,186)" stroke="none" paint-order="stroke" d="M 605.7928466796875 363.39117431640625 L 627.826171875 363.39117431640625 L 627.826171875 349.79754638671875 L 605.7928466796875 349.79754638671875 L 605.7928466796875 363.39117431640625" fill-opacity="0.75" clip-path="url(#coXvhUuTyWBa)"/><path fill="none" stroke="rgb(0,0,0)" paint-order="fill" d="M 605.7928466796875 363.39117431640625 L 627.826171875 363.39117431640625 L 627.826171875 349.79754638671875 L 605.7928466796875 349.79754638671875 L 605.7928466796875 363.39117431640625" stroke-opacity="1" stroke-linejoin="bevel" stroke-miterlimit="10" stroke-dasharray="" clip-path="url(#coXvhUuTyWBa)"/><path fill="rgb(43,131,186)" stroke="none" paint-order="stroke" d="M 637.26904296875 267.190185546875 L 659.3023681640625 267.190185546875 L 659.3023681640625 254.6422119140625 L 637.26904296875 254.6422119140625 L 637.26904296875 267.190185546875" fill-opacity="0.75" clip-path="url(#coXvhUuTyWBa)"/><path fill="none" stroke="rgb(0,0,0)" paint-order="fill" d="M 637.26904296875 267.190185546875 L 659.3023681640625 267.190185546875 L 659.3023681640625 254.6422119140625 L 637.26904296875 254.6422119140625 L 637.26904296875 267.190185546875" stroke-opacity="1" stroke-linejoin="bevel" stroke-miterlimit="10" stroke-dasharray="" clip-path="url(#coXvhUuTyWBa)"/><path fill="rgb(43,131,186)" stroke="none" paint-order="stroke" d="M 668.7452392578125 388.4870910644531 L 690.778564453125 388.4870910644531 L 690.778564453125 365.48248291015625 L 668.7452392578125 365.48248291015625 L 668.7452392578125 388.4870910644531" fill-opacity="0.75" clip-path="url(#coXvhUuTyWBa)"/><path fill="none" stroke="rgb(0,0,0)" paint-order="fill" d="M 668.7452392578125 388.4870910644531 L 690.778564453125 388.4870910644531 L 690.778564453125 365.48248291015625 L 668.7452392578125 365.48248291015625 L 668.7452392578125 388.4870910644531" stroke-opacity="1" stroke-linejoin="bevel" stroke-miterlimit="10" stroke-dasharray="" clip-path="url(#coXvhUuTyWBa)"/><path fill="none" stroke="none"/><path fill="rgb(31,119,180)" stroke="none" paint-order="stroke" d="M 47.090476989746094 419.84649658203125 L 53.38571548461914 419.84649658203125 L 53.38571548461914 419.867431640625 L 47.090476989746094 419.867431640625 L 47.090476989746094 419.84649658203125" fill-opacity="1" clip-path="url(#aUKaSweGUMtx)"/><path fill="rgb(31,119,180)" stroke="none" paint-order="stroke" d="M 78.56666564941406 403.11590576171875 L 84.86190795898438 403.11590576171875 L 84.86190795898438 403.1368103027344 L 78.56666564941406 403.1368103027344 L 78.56666564941406 403.11590576171875" fill-opacity="1" clip-path="url(#aUKaSweGUMtx)"/><path fill="rgb(31,119,180)" stroke="none" paint-order="stroke" d="M 110.04286193847656 294.366943359375 L 116.33808898925781 294.366943359375 L 116.33808898925781 294.38787841796875 L 110.04286193847656 294.38787841796875 L 110.04286193847656 294.366943359375" fill-opacity="1" clip-path="url(#aUKaSweGUMtx)"/><path fill="rgb(31,119,180)" stroke="none" paint-order="stroke" d="M 141.51905822753906 206.53126525878906 L 147.8142852783203 206.53126525878906 L 147.8142852783203 206.5521697998047 L 141.51905822753906 206.5521697998047 L 141.51905822753906 206.53126525878906" fill-opacity="1" clip-path="url(#aUKaSweGUMtx)"/><path fill="rgb(31,119,180)" stroke="none" paint-order="stroke" d="M 172.9952392578125 298.5495910644531 L 179.29046630859375 298.5495910644531 L 179.29046630859375 298.5705261230469 L 172.9952392578125 298.5705261230469 L 172.9952392578125 298.5495910644531" fill-opacity="1" clip-path="url(#aUKaSweGUMtx)"/><path fill="rgb(31,119,180)" stroke="none" paint-order="stroke" d="M 204.471435546875 398.9332580566406 L 210.76666259765625 398.9332580566406 L 210.76666259765625 398.95416259765625 L 204.471435546875 398.95416259765625 L 204.471435546875 398.9332580566406" fill-opacity="1" clip-path="url(#aUKaSweGUMtx)"/><path fill="rgb(31,119,180)" stroke="none" paint-order="stroke" d="M 235.94761657714844 367.5633544921875 L 242.24285888671875 367.5633544921875 L 242.24285888671875 367.58428955078125 L 235.94761657714844 367.58428955078125 L 235.94761657714844 367.5633544921875" fill-opacity="1" clip-path="url(#aUKaSweGUMtx)"/><path fill="rgb(31,119,180)" stroke="none" paint-order="stroke" d="M 267.4237976074219 342.4674377441406 L 273.71905517578125 342.4674377441406 L 273.71905517578125 342.4883728027344 L 267.4237976074219 342.4883728027344 L 267.4237976074219 342.4674377441406" fill-opacity="1" clip-path="url(#aUKaSweGUMtx)"/><path fill="rgb(31,119,180)" stroke="none" paint-order="stroke" d="M 298.8999938964844 393.7049255371094 L 305.19525146484375 393.7049255371094 L 305.19525146484375 393.7258605957031 L 298.8999938964844 393.7258605957031 L 298.8999938964844 393.7049255371094" fill-opacity="1" clip-path="url(#aUKaSweGUMtx)"/><path fill="rgb(31,119,180)" stroke="none" paint-order="stroke" d="M 330.3761901855469 338.2847900390625 L 336.67144775390625 338.2847900390625 L 336.67144775390625 338.30572509765625 L 330.3761901855469 338.30572509765625 L 330.3761901855469 338.2847900390625" fill-opacity="1" clip-path="url(#aUKaSweGUMtx)"/><path fill="rgb(31,119,180)" stroke="none" paint-order="stroke" d="M 361.85235595703125 298.5495910644531 L 368.14764404296875 298.5495910644531 L 368.14764404296875 298.5705261230469 L 361.85235595703125 298.5705261230469 L 361.85235595703125 298.5495910644531" fill-opacity="1" clip-path="url(#aUKaSweGUMtx)"/><path fill="rgb(31,119,180)" stroke="none" paint-order="stroke" d="M 393.32855224609375 311.0975646972656 L 399.6238098144531 311.0975646972656 L 399.6238098144531 311.11846923828125 L 393.32855224609375 311.11846923828125 L 393.32855224609375 311.0975646972656" fill-opacity="1" clip-path="url(#aUKaSweGUMtx)"/><path fill="rgb(31,119,180)" stroke="none" paint-order="stroke" d="M 424.80474853515625 137.5175018310547 L 431.1000061035156 137.5175018310547 L 431.1000061035156 137.53842163085938 L 424.80474853515625 137.53842163085938 L 424.80474853515625 137.5175018310547" fill-opacity="1" clip-path="url(#aUKaSweGUMtx)"/><path fill="rgb(31,119,180)" stroke="none" paint-order="stroke" d="M 456.28094482421875 336.1934814453125 L 462.5762023925781 336.1934814453125 L 462.5762023925781 336.2143859863281 L 456.28094482421875 336.2143859863281 L 456.28094482421875 336.1934814453125" fill-opacity="1" clip-path="url(#aUKaSweGUMtx)"/><path fill="rgb(31,119,180)" stroke="none" paint-order="stroke" d="M 487.75714111328125 378.0199890136719 L 494.0523986816406 378.0199890136719 L 494.0523986816406 378.0408935546875 L 487.75714111328125 378.0408935546875 L 487.75714111328125 378.0199890136719" fill-opacity="1" clip-path="url(#aUKaSweGUMtx)"/><path fill="rgb(31,119,180)" stroke="none" paint-order="stroke" d="M 519.2333374023438 363.3807067871094 L 525.528564453125 363.3807067871094 L 525.528564453125 363.401611328125 L 519.2333374023438 363.401611328125 L 519.2333374023438 363.3807067871094" fill-opacity="1" clip-path="url(#aUKaSweGUMtx)"/><path fill="rgb(31,119,180)" stroke="none" paint-order="stroke" d="M 550.7095336914062 398.9332580566406 L 557.0047607421875 398.9332580566406 L 557.0047607421875 398.95416259765625 L 550.7095336914062 398.95416259765625 L 550.7095336914062 398.9332580566406" fill-opacity="1" clip-path="url(#aUKaSweGUMtx)"/><path fill="rgb(31,119,180)" stroke="none" paint-order="stroke" d="M 582.1857299804688 392.6592712402344 L 588.48095703125 392.6592712402344 L 588.48095703125 392.68017578125 L 582.1857299804688 392.68017578125 L 582.1857299804688 392.6592712402344" fill-opacity="1" clip-path="url(#aUKaSweGUMtx)"/><path fill="rgb(31,119,180)" stroke="none" paint-order="stroke" d="M 613.661865234375 396.8419189453125 L 619.9571533203125 396.8419189453125 L 619.9571533203125 396.8628234863281 L 613.661865234375 396.8628234863281 L 613.661865234375 396.8419189453125" fill-opacity="1" clip-path="url(#aUKaSweGUMtx)"/><path fill="rgb(31,119,180)" stroke="none" paint-order="stroke" d="M 645.1380615234375 304.8235778808594 L 651.433349609375 304.8235778808594 L 651.433349609375 304.844482421875 L 645.1380615234375 304.844482421875 L 645.1380615234375 304.8235778808594" fill-opacity="1" clip-path="url(#aUKaSweGUMtx)"/><path fill="rgb(31,119,180)" stroke="none" paint-order="stroke" d="M 676.6142578125 451.2164001464844 L 682.9095458984375 451.2164001464844 L 682.9095458984375 451.2373046875 L 676.6142578125 451.2373046875 L 676.6142578125 451.2164001464844" fill-opacity="1" clip-path="url(#aUKaSweGUMtx)"/><path fill="none" stroke="rgb(0,0,0)" paint-order="fill" d="M 47.090476989746094 419.84649658203125 L 53.38571548461914 419.84649658203125 L 53.38571548461914 419.867431640625 L 47.090476989746094 419.867431640625 L 47.090476989746094 419.84649658203125" stroke-opacity="1" stroke-linejoin="bevel" stroke-miterlimit="10" stroke-dasharray="" clip-path="url(#aUKaSweGUMtx)"/><path fill="none" stroke="rgb(0,0,0)" paint-order="fill" d="M 78.56666564941406 403.11590576171875 L 84.86190795898438 403.11590576171875 L 84.86190795898438 403.1368103027344 L 78.56666564941406 403.1368103027344 L 78.56666564941406 403.11590576171875" stroke-opacity="1" stroke-linejoin="bevel" stroke-miterlimit="10" stroke-dasharray="" clip-path="url(#aUKaSweGUMtx)"/><path fill="none" stroke="rgb(0,0,0)" paint-order="fill" d="M 110.04286193847656 294.366943359375 L 116.33808898925781 294.366943359375 L 116.33808898925781 294.38787841796875 L 110.04286193847656 294.38787841796875 L 110.04286193847656 294.366943359375" stroke-opacity="1" stroke-linejoin="bevel" stroke-miterlimit="10" stroke-dasharray="" clip-path="url(#aUKaSweGUMtx)"/><path fill="none" stroke="rgb(0,0,0)" paint-order="fill" d="M 141.51905822753906 206.53126525878906 L 147.8142852783203 206.53126525878906 L 147.8142852783203 206.5521697998047 L 141.51905822753906 206.5521697998047 L 141.51905822753906 206.53126525878906" stroke-opacity="1" stroke-linejoin="bevel" stroke-miterlimit="10" stroke-dasharray="" clip-path="url(#aUKaSweGUMtx)"/><path fill="none" stroke="rgb(0,0,0)" paint-order="fill" d="M 172.9952392578125 298.5495910644531 L 179.29046630859375 298.5495910644531 L 179.29046630859375 298.5705261230469 L 172.9952392578125 298.5705261230469 L 172.9952392578125 298.5495910644531" stroke-opacity="1" stroke-linejoin="bevel" stroke-miterlimit="10" stroke-dasharray="" clip-path="url(#aUKaSweGUMtx)"/><path fill="none" stroke="rgb(0,0,0)" paint-order="fill" d="M 204.471435546875 398.9332580566406 L 210.76666259765625 398.9332580566406 L 210.76666259765625 398.95416259765625 L 204.471435546875 398.95416259765625 L 204.471435546875 398.9332580566406" stroke-opacity="1" stroke-linejoin="bevel" stroke-miterlimit="10" stroke-dasharray="" clip-path="url(#aUKaSweGUMtx)"/><path fill="none" stroke="rgb(0,0,0)" paint-order="fill" d="M 235.94761657714844 367.5633544921875 L 242.24285888671875 367.5633544921875 L 242.24285888671875 367.58428955078125 L 235.94761657714844 367.58428955078125 L 235.94761657714844 367.5633544921875" stroke-opacity="1" stroke-linejoin="bevel" stroke-miterlimit="10" stroke-dasharray="" clip-path="url(#aUKaSweGUMtx)"/><path fill="none" stroke="rgb(0,0,0)" paint-order="fill" d="M 267.4237976074219 342.4674377441406 L 273.71905517578125 342.4674377441406 L 273.71905517578125 342.4883728027344 L 267.4237976074219 342.4883728027344 L 267.4237976074219 342.4674377441406" stroke-opacity="1" stroke-linejoin="bevel" stroke-miterlimit="10" stroke-dasharray="" clip-path="url(#aUKaSweGUMtx)"/><path fill="none" stroke="rgb(0,0,0)" paint-order="fill" d="M 298.8999938964844 393.7049255371094 L 305.19525146484375 393.7049255371094 L 305.19525146484375 393.7258605957031 L 298.8999938964844 393.7258605957031 L 298.8999938964844 393.7049255371094" stroke-opacity="1" stroke-linejoin="bevel" stroke-miterlimit="10" stroke-dasharray="" clip-path="url(#aUKaSweGUMtx)"/><path fill="none" stroke="rgb(0,0,0)" paint-order="fill" d="M 330.3761901855469 338.2847900390625 L 336.67144775390625 338.2847900390625 L 336.67144775390625 338.30572509765625 L 330.3761901855469 338.30572509765625 L 330.3761901855469 338.2847900390625" stroke-opacity="1" stroke-linejoin="bevel" stroke-miterlimit="10" stroke-dasharray="" clip-path="url(#aUKaSweGUMtx)"/><path fill="none" stroke="rgb(0,0,0)" paint-order="fill" d="M 361.85235595703125 298.5495910644531 L 368.14764404296875 298.5495910644531 L 368.14764404296875 298.5705261230469 L 361.85235595703125 298.5705261230469 L 361.85235595703125 298.5495910644531" stroke-opacity="1" stroke-linejoin="bevel" stroke-miterlimit="10" stroke-dasharray="" clip-path="url(#aUKaSweGUMtx)"/><path fill="none" stroke="rgb(0,0,0)" paint-order="fill" d="M 393.32855224609375 311.0975646972656 L 399.6238098144531 311.0975646972656 L 399.6238098144531 311.11846923828125 L 393.32855224609375 311.11846923828125 L 393.32855224609375 311.0975646972656" stroke-opacity="1" stroke-linejoin="bevel" stroke-miterlimit="10" stroke-dasharray="" clip-path="url(#aUKaSweGUMtx)"/><path fill="none" stroke="rgb(0,0,0)" paint-order="fill" d="M 424.80474853515625 137.5175018310547 L 431.1000061035156 137.5175018310547 L 431.1000061035156 137.53842163085938 L 424.80474853515625 137.53842163085938 L 424.80474853515625 137.5175018310547" stroke-opacity="1" stroke-linejoin="bevel" stroke-miterlimit="10" stroke-dasharray="" clip-path="url(#aUKaSweGUMtx)"/><path fill="none" stroke="rgb(0,0,0)" paint-order="fill" d="M 456.28094482421875 336.1934814453125 L 462.5762023925781 336.1934814453125 L 462.5762023925781 336.2143859863281 L 456.28094482421875 336.2143859863281 L 456.28094482421875 336.1934814453125" stroke-opacity="1" stroke-linejoin="bevel" stroke-miterlimit="10" stroke-dasharray="" clip-path="url(#aUKaSweGUMtx)"/><path fill="none" stroke="rgb(0,0,0)" paint-order="fill" d="M 487.75714111328125 378.0199890136719 L 494.0523986816406 378.0199890136719 L 494.0523986816406 378.0408935546875 L 487.75714111328125 378.0408935546875 L 487.75714111328125 378.0199890136719" stroke-opacity="1" stroke-linejoin="bevel" stroke-miterlimit="10" stroke-dasharray="" clip-path="url(#aUKaSweGUMtx)"/><path fill="none" stroke="rgb(0,0,0)" paint-order="fill" d="M 519.2333374023438 363.3807067871094 L 525.528564453125 363.3807067871094 L 525.528564453125 363.401611328125 L 519.2333374023438 363.401611328125 L 519.2333374023438 363.3807067871094" stroke-opacity="1" stroke-linejoin="bevel" stroke-miterlimit="10" stroke-dasharray="" clip-path="url(#aUKaSweGUMtx)"/><path fill="none" stroke="rgb(0,0,0)" paint-order="fill" d="M 550.7095336914062 398.9332580566406 L 557.0047607421875 398.9332580566406 L 557.0047607421875 398.95416259765625 L 550.7095336914062 398.95416259765625 L 550.7095336914062 398.9332580566406" stroke-opacity="1" stroke-linejoin="bevel" stroke-miterlimit="10" stroke-dasharray="" clip-path="url(#aUKaSweGUMtx)"/><path fill="none" stroke="rgb(0,0,0)" paint-order="fill" d="M 582.1857299804688 392.6592712402344 L 588.48095703125 392.6592712402344 L 588.48095703125 392.68017578125 L 582.1857299804688 392.68017578125 L 582.1857299804688 392.6592712402344" stroke-opacity="1" stroke-linejoin="bevel" stroke-miterlimit="10" stroke-dasharray="" clip-path="url(#aUKaSweGUMtx)"/><path fill="none" stroke="rgb(0,0,0)" paint-order="fill" d="M 613.661865234375 396.8419189453125 L 619.9571533203125 396.8419189453125 L 619.9571533203125 396.8628234863281 L 613.661865234375 396.8628234863281 L 613.661865234375 396.8419189453125" stroke-opacity="1" stroke-linejoin="bevel" stroke-miterlimit="10" stroke-dasharray="" clip-path="url(#aUKaSweGUMtx)"/><path fill="none" stroke="rgb(0,0,0)" paint-order="fill" d="M 645.1380615234375 304.8235778808594 L 651.433349609375 304.8235778808594 L 651.433349609375 304.844482421875 L 645.1380615234375 304.844482421875 L 645.1380615234375 304.8235778808594" stroke-opacity="1" stroke-linejoin="bevel" stroke-miterlimit="10" stroke-dasharray="" clip-path="url(#aUKaSweGUMtx)"/><path fill="none" stroke="rgb(0,0,0)" paint-order="fill" d="M 676.6142578125 451.2164001464844 L 682.9095458984375 451.2164001464844 L 682.9095458984375 451.2373046875 L 676.6142578125 451.2373046875 L 676.6142578125 451.2164001464844" stroke-opacity="1" stroke-linejoin="bevel" stroke-miterlimit="10" stroke-dasharray="" clip-path="url(#aUKaSweGUMtx)"/><path fill="none" stroke="rgb(0,0,0)" paint-order="fill" d="" stroke-opacity="1" stroke-linejoin="bevel" stroke-miterlimit="10" stroke-dasharray="" clip-path="url(#aUKaSweGUMtx)"/><path fill="none" stroke="none"/><path fill="rgb(31,119,180)" stroke="none" paint-order="stroke" d="M 47.090476989746094 336.1934814453125 L 53.38571548461914 336.1934814453125 L 53.38571548461914 336.2143859863281 L 47.090476989746094 336.2143859863281 L 47.090476989746094 336.1934814453125" fill-opacity="1" clip-path="url(#WVENLihoIWWa)"/><path fill="rgb(31,119,180)" stroke="none" paint-order="stroke" d="M 78.56666564941406 319.4628601074219 L 84.86190795898438 319.4628601074219 L 84.86190795898438 319.4837646484375 L 78.56666564941406 319.4837646484375 L 78.56666564941406 319.4628601074219" fill-opacity="1" clip-path="url(#WVENLihoIWWa)"/><path fill="rgb(31,119,180)" stroke="none" paint-order="stroke" d="M 110.04286193847656 137.5175018310547 L 116.33808898925781 137.5175018310547 L 116.33808898925781 137.53842163085938 L 110.04286193847656 137.53842163085938 L 110.04286193847656 137.5175018310547" fill-opacity="1" clip-path="url(#WVENLihoIWWa)"/><path fill="rgb(31,119,180)" stroke="none" paint-order="stroke" d="M 141.51905822753906 49.681819915771484 L 147.8142852783203 49.681819915771484 L 147.8142852783203 49.70273208618164 L 141.51905822753906 49.70273208618164 L 141.51905822753906 49.681819915771484" fill-opacity="1" clip-path="url(#WVENLihoIWWa)"/><path fill="rgb(31,119,180)" stroke="none" paint-order="stroke" d="M 172.9952392578125 245.74362182617188 L 179.29046630859375 245.74362182617188 L 179.29046630859375 245.76454162597656 L 172.9952392578125 245.76454162597656 L 172.9952392578125 245.74362182617188" fill-opacity="1" clip-path="url(#WVENLihoIWWa)"/><path fill="rgb(31,119,180)" stroke="none" paint-order="stroke" d="M 204.471435546875 311.0975646972656 L 210.76666259765625 311.0975646972656 L 210.76666259765625 311.11846923828125 L 204.471435546875 311.11846923828125 L 204.471435546875 311.0975646972656" fill-opacity="1" clip-path="url(#WVENLihoIWWa)"/><path fill="rgb(31,119,180)" stroke="none" paint-order="stroke" d="M 235.94761657714844 283.9103088378906 L 242.24285888671875 283.9103088378906 L 242.24285888671875 283.9312438964844 L 235.94761657714844 283.9312438964844 L 235.94761657714844 283.9103088378906" fill-opacity="1" clip-path="url(#WVENLihoIWWa)"/><path fill="rgb(31,119,180)" stroke="none" paint-order="stroke" d="M 267.4237976074219 248.3577880859375 L 273.71905517578125 248.3577880859375 L 273.71905517578125 248.37869262695312 L 267.4237976074219 248.37869262695312 L 267.4237976074219 248.3577880859375" fill-opacity="1" clip-path="url(#WVENLihoIWWa)"/><path fill="rgb(31,119,180)" stroke="none" paint-order="stroke" d="M 298.8999938964844 336.1934814453125 L 305.19525146484375 336.1934814453125 L 305.19525146484375 336.2143859863281 L 298.8999938964844 336.2143859863281 L 298.8999938964844 336.1934814453125" fill-opacity="1" clip-path="url(#WVENLihoIWWa)"/><path fill="rgb(31,119,180)" stroke="none" paint-order="stroke" d="M 330.3761901855469 200.25729370117188 L 336.67144775390625 200.25729370117188 L 336.67144775390625 200.2781982421875 L 330.3761901855469 200.2781982421875 L 330.3761901855469 200.25729370117188" fill-opacity="1" clip-path="url(#WVENLihoIWWa)"/><path fill="rgb(31,119,180)" stroke="none" paint-order="stroke" d="M 361.85235595703125 242.08380126953125 L 368.14764404296875 242.08380126953125 L 368.14764404296875 242.10472106933594 L 361.85235595703125 242.10472106933594 L 361.85235595703125 242.08380126953125" fill-opacity="1" clip-path="url(#WVENLihoIWWa)"/><path fill="rgb(31,119,180)" stroke="none" paint-order="stroke" d="M 393.32855224609375 242.08380126953125 L 399.6238098144531 242.08380126953125 L 399.6238098144531 242.10472106933594 L 393.32855224609375 242.10472106933594 L 393.32855224609375 242.08380126953125" fill-opacity="1" clip-path="url(#WVENLihoIWWa)"/><path fill="rgb(31,119,180)" stroke="none" paint-order="stroke" d="M 424.80474853515625 120.78690338134766 L 431.1000061035156 120.78690338134766 L 431.1000061035156 120.80781555175781 L 424.80474853515625 120.80781555175781 L 424.80474853515625 120.78690338134766" fill-opacity="1" clip-path="url(#WVENLihoIWWa)"/><path fill="rgb(31,119,180)" stroke="none" paint-order="stroke" d="M 456.28094482421875 189.8006591796875 L 462.5762023925781 189.8006591796875 L 462.5762023925781 189.82156372070312 L 456.28094482421875 189.82156372070312 L 456.28094482421875 189.8006591796875" fill-opacity="1" clip-path="url(#WVENLihoIWWa)"/><path fill="rgb(31,119,180)" stroke="none" paint-order="stroke" d="M 487.75714111328125 281.8190002441406 L 494.0523986816406 281.8190002441406 L 494.0523986816406 281.83990478515625 L 487.75714111328125 281.83990478515625 L 487.75714111328125 281.8190002441406" fill-opacity="1" clip-path="url(#WVENLihoIWWa)"/><path fill="rgb(31,119,180)" stroke="none" paint-order="stroke" d="M 519.2333374023438 273.4537048339844 L 525.528564453125 273.4537048339844 L 525.528564453125 273.474609375 L 519.2333374023438 273.474609375 L 519.2333374023438 273.4537048339844" fill-opacity="1" clip-path="url(#WVENLihoIWWa)"/><path fill="rgb(31,119,180)" stroke="none" paint-order="stroke" d="M 550.7095336914062 255.1545867919922 L 557.0047607421875 255.1545867919922 L 557.0047607421875 255.17550659179688 L 550.7095336914062 255.17550659179688 L 550.7095336914062 255.1545867919922" fill-opacity="1" clip-path="url(#WVENLihoIWWa)"/><path fill="rgb(31,119,180)" stroke="none" paint-order="stroke" d="M 582.1857299804688 332.0108337402344 L 588.48095703125 332.0108337402344 L 588.48095703125 332.03173828125 L 582.1857299804688 332.03173828125 L 582.1857299804688 332.0108337402344" fill-opacity="1" clip-path="url(#WVENLihoIWWa)"/><path fill="rgb(31,119,180)" stroke="none" paint-order="stroke" d="M 613.661865234375 325.7368469238281 L 619.9571533203125 325.7368469238281 L 619.9571533203125 325.75775146484375 L 613.661865234375 325.75775146484375 L 613.661865234375 325.7368469238281" fill-opacity="1" clip-path="url(#WVENLihoIWWa)"/><path fill="rgb(31,119,180)" stroke="none" paint-order="stroke" d="M 645.1380615234375 204.43994140625 L 651.433349609375 204.43994140625 L 651.433349609375 204.46084594726562 L 645.1380615234375 204.46084594726562 L 645.1380615234375 204.43994140625" fill-opacity="1" clip-path="url(#WVENLihoIWWa)"/><path fill="rgb(31,119,180)" stroke="none" paint-order="stroke" d="M 676.6142578125 278.6820068359375 L 682.9095458984375 278.6820068359375 L 682.9095458984375 278.7029113769531 L 676.6142578125 278.7029113769531 L 676.6142578125 278.6820068359375" fill-opacity="1" clip-path="url(#WVENLihoIWWa)"/><path fill="none" stroke="rgb(0,0,0)" paint-order="fill" d="M 47.090476989746094 336.1934814453125 L 53.38571548461914 336.1934814453125 L 53.38571548461914 336.2143859863281 L 47.090476989746094 336.2143859863281 L 47.090476989746094 336.1934814453125" stroke-opacity="1" stroke-linejoin="bevel" stroke-miterlimit="10" stroke-dasharray="" clip-path="url(#WVENLihoIWWa)"/><path fill="none" stroke="rgb(0,0,0)" paint-order="fill" d="M 78.56666564941406 319.4628601074219 L 84.86190795898438 319.4628601074219 L 84.86190795898438 319.4837646484375 L 78.56666564941406 319.4837646484375 L 78.56666564941406 319.4628601074219" stroke-opacity="1" stroke-linejoin="bevel" stroke-miterlimit="10" stroke-dasharray="" clip-path="url(#WVENLihoIWWa)"/><path fill="none" stroke="rgb(0,0,0)" paint-order="fill" d="M 110.04286193847656 137.5175018310547 L 116.33808898925781 137.5175018310547 L 116.33808898925781 137.53842163085938 L 110.04286193847656 137.53842163085938 L 110.04286193847656 137.5175018310547" stroke-opacity="1" stroke-linejoin="bevel" stroke-miterlimit="10" stroke-dasharray="" clip-path="url(#WVENLihoIWWa)"/><path fill="none" stroke="rgb(0,0,0)" paint-order="fill" d="M 141.51905822753906 49.681819915771484 L 147.8142852783203 49.681819915771484 L 147.8142852783203 49.70273208618164 L 141.51905822753906 49.70273208618164 L 141.51905822753906 49.681819915771484" stroke-opacity="1" stroke-linejoin="bevel" stroke-miterlimit="10" stroke-dasharray="" clip-path="url(#WVENLihoIWWa)"/><path fill="none" stroke="rgb(0,0,0)" paint-order="fill" d="M 172.9952392578125 245.74362182617188 L 179.29046630859375 245.74362182617188 L 179.29046630859375 245.76454162597656 L 172.9952392578125 245.76454162597656 L 172.9952392578125 245.74362182617188" stroke-opacity="1" stroke-linejoin="bevel" stroke-miterlimit="10" stroke-dasharray="" clip-path="url(#WVENLihoIWWa)"/><path fill="none" stroke="rgb(0,0,0)" paint-order="fill" d="M 204.471435546875 311.0975646972656 L 210.76666259765625 311.0975646972656 L 210.76666259765625 311.11846923828125 L 204.471435546875 311.11846923828125 L 204.471435546875 311.0975646972656" stroke-opacity="1" stroke-linejoin="bevel" stroke-miterlimit="10" stroke-dasharray="" clip-path="url(#WVENLihoIWWa)"/><path fill="none" stroke="rgb(0,0,0)" paint-order="fill" d="M 235.94761657714844 283.9103088378906 L 242.24285888671875 283.9103088378906 L 242.24285888671875 283.9312438964844 L 235.94761657714844 283.9312438964844 L 235.94761657714844 283.9103088378906" stroke-opacity="1" stroke-linejoin="bevel" stroke-miterlimit="10" stroke-dasharray="" clip-path="url(#WVENLihoIWWa)"/><path fill="none" stroke="rgb(0,0,0)" paint-order="fill" d="M 267.4237976074219 248.3577880859375 L 273.71905517578125 248.3577880859375 L 273.71905517578125 248.37869262695312 L 267.4237976074219 248.37869262695312 L 267.4237976074219 248.3577880859375" stroke-opacity="1" stroke-linejoin="bevel" stroke-miterlimit="10" stroke-dasharray="" clip-path="url(#WVENLihoIWWa)"/><path fill="none" stroke="rgb(0,0,0)" paint-order="fill" d="M 298.8999938964844 336.1934814453125 L 305.19525146484375 336.1934814453125 L 305.19525146484375 336.2143859863281 L 298.8999938964844 336.2143859863281 L 298.8999938964844 336.1934814453125" stroke-opacity="1" stroke-linejoin="bevel" stroke-miterlimit="10" stroke-dasharray="" clip-path="url(#WVENLihoIWWa)"/><path fill="none" stroke="rgb(0,0,0)" paint-order="fill" d="M 330.3761901855469 200.25729370117188 L 336.67144775390625 200.25729370117188 L 336.67144775390625 200.2781982421875 L 330.3761901855469 200.2781982421875 L 330.3761901855469 200.25729370117188" stroke-opacity="1" stroke-linejoin="bevel" stroke-miterlimit="10" stroke-dasharray="" clip-path="url(#WVENLihoIWWa)"/><path fill="none" stroke="rgb(0,0,0)" paint-order="fill" d="M 361.85235595703125 242.08380126953125 L 368.14764404296875 242.08380126953125 L 368.14764404296875 242.10472106933594 L 361.85235595703125 242.10472106933594 L 361.85235595703125 242.08380126953125" stroke-opacity="1" stroke-linejoin="bevel" stroke-miterlimit="10" stroke-dasharray="" clip-path="url(#WVENLihoIWWa)"/><path fill="none" stroke="rgb(0,0,0)" paint-order="fill" d="M 393.32855224609375 242.08380126953125 L 399.6238098144531 242.08380126953125 L 399.6238098144531 242.10472106933594 L 393.32855224609375 242.10472106933594 L 393.32855224609375 242.08380126953125" stroke-opacity="1" stroke-linejoin="bevel" stroke-miterlimit="10" stroke-dasharray="" clip-path="url(#WVENLihoIWWa)"/><path fill="none" stroke="rgb(0,0,0)" paint-order="fill" d="M 424.80474853515625 120.78690338134766 L 431.1000061035156 120.78690338134766 L 431.1000061035156 120.80781555175781 L 424.80474853515625 120.80781555175781 L 424.80474853515625 120.78690338134766" stroke-opacity="1" stroke-linejoin="bevel" stroke-miterlimit="10" stroke-dasharray="" clip-path="url(#WVENLihoIWWa)"/><path fill="none" stroke="rgb(0,0,0)" paint-order="fill" d="M 456.28094482421875 189.8006591796875 L 462.5762023925781 189.8006591796875 L 462.5762023925781 189.82156372070312 L 456.28094482421875 189.82156372070312 L 456.28094482421875 189.8006591796875" stroke-opacity="1" stroke-linejoin="bevel" stroke-miterlimit="10" stroke-dasharray="" clip-path="url(#WVENLihoIWWa)"/><path fill="none" stroke="rgb(0,0,0)" paint-order="fill" d="M 487.75714111328125 281.8190002441406 L 494.0523986816406 281.8190002441406 L 494.0523986816406 281.83990478515625 L 487.75714111328125 281.83990478515625 L 487.75714111328125 281.8190002441406" stroke-opacity="1" stroke-linejoin="bevel" stroke-miterlimit="10" stroke-dasharray="" clip-path="url(#WVENLihoIWWa)"/><path fill="none" stroke="rgb(0,0,0)" paint-order="fill" d="M 519.2333374023438 273.4537048339844 L 525.528564453125 273.4537048339844 L 525.528564453125 273.474609375 L 519.2333374023438 273.474609375 L 519.2333374023438 273.4537048339844" stroke-opacity="1" stroke-linejoin="bevel" stroke-miterlimit="10" stroke-dasharray="" clip-path="url(#WVENLihoIWWa)"/><path fill="none" stroke="rgb(0,0,0)" paint-order="fill" d="M 550.7095336914062 255.1545867919922 L 557.0047607421875 255.1545867919922 L 557.0047607421875 255.17550659179688 L 550.7095336914062 255.17550659179688 L 550.7095336914062 255.1545867919922" stroke-opacity="1" stroke-linejoin="bevel" stroke-miterlimit="10" stroke-dasharray="" clip-path="url(#WVENLihoIWWa)"/><path fill="none" stroke="rgb(0,0,0)" paint-order="fill" d="M 582.1857299804688 332.0108337402344 L 588.48095703125 332.0108337402344 L 588.48095703125 332.03173828125 L 582.1857299804688 332.03173828125 L 582.1857299804688 332.0108337402344" stroke-opacity="1" stroke-linejoin="bevel" stroke-miterlimit="10" stroke-dasharray="" clip-path="url(#WVENLihoIWWa)"/><path fill="none" stroke="rgb(0,0,0)" paint-order="fill" d="M 613.661865234375 325.7368469238281 L 619.9571533203125 325.7368469238281 L 619.9571533203125 325.75775146484375 L 613.661865234375 325.75775146484375 L 613.661865234375 325.7368469238281" stroke-opacity="1" stroke-linejoin="bevel" stroke-miterlimit="10" stroke-dasharray="" clip-path="url(#WVENLihoIWWa)"/><path fill="none" stroke="rgb(0,0,0)" paint-order="fill" d="M 645.1380615234375 204.43994140625 L 651.433349609375 204.43994140625 L 651.433349609375 204.46084594726562 L 645.1380615234375 204.46084594726562 L 645.1380615234375 204.43994140625" stroke-opacity="1" stroke-linejoin="bevel" stroke-miterlimit="10" stroke-dasharray="" clip-path="url(#WVENLihoIWWa)"/><path fill="none" stroke="rgb(0,0,0)" paint-order="fill" d="M 676.6142578125 278.6820068359375 L 682.9095458984375 278.6820068359375 L 682.9095458984375 278.7029113769531 L 676.6142578125 278.7029113769531 L 676.6142578125 278.6820068359375" stroke-opacity="1" stroke-linejoin="bevel" stroke-miterlimit="10" stroke-dasharray="" clip-path="url(#WVENLihoIWWa)"/><path fill="none" stroke="rgb(0,0,0)" paint-order="fill" d="" stroke-opacity="1" stroke-linejoin="bevel" stroke-miterlimit="10" stroke-dasharray="" clip-path="url(#WVENLihoIWWa)"/><path fill="none" stroke="none"/><path fill="rgb(243,134,48)" stroke="rgb(243,134,48)" paint-order="fill" d="M 52.738094329833984 329.9299621582031 A 2.5 2.5 0 1 1 52.73809307983409 329.9274621586198" fill-opacity="0.6" clip-path="url(#DLIPgXVLeJPD)" stroke-opacity="1" stroke-linejoin="bevel" stroke-miterlimit="10" stroke-dasharray=""/><path fill="rgb(243,134,48)" stroke="rgb(243,134,48)" paint-order="fill" d="M 52.738094329833984 327.838623046875 A 2.5 2.5 0 1 1 52.73809307983409 327.83612304729166" fill-opacity="0.6" clip-path="url(#DLIPgXVLeJPD)" stroke-opacity="1" stroke-linejoin="bevel" stroke-miterlimit="10" stroke-dasharray=""/><path fill="rgb(243,134,48)" stroke="rgb(243,134,48)" paint-order="fill" d="M 52.738094329833984 453.31817626953125 A 2.5 2.5 0 1 1 52.73809307983409 453.3156762699479" fill-opacity="0.6" clip-path="url(#DLIPgXVLeJPD)" stroke-opacity="1" stroke-linejoin="bevel" stroke-miterlimit="10" stroke-dasharray=""/><path fill="rgb(243,134,48)" stroke="rgb(243,134,48)" paint-order="fill" d="M 52.738094329833984 334.11260986328125 A 2.5 2.5 0 1 1 52.73809307983409 334.1101098636979" fill-opacity="0.6" clip-path="url(#DLIPgXVLeJPD)" stroke-opacity="1" stroke-linejoin="bevel" stroke-miterlimit="10" stroke-dasharray=""/><path fill="rgb(243,134,48)" stroke="rgb(243,134,48)" paint-order="fill" d="M 84.21428680419922 407.30902099609375 A 2.5 2.5 0 1 1 84.21428555419932 407.3065209965104" fill-opacity="0.6" clip-path="url(#DLIPgXVLeJPD)" stroke-opacity="1" stroke-linejoin="bevel" stroke-miterlimit="10" stroke-dasharray=""/><path fill="rgb(243,134,48)" stroke="rgb(243,134,48)" paint-order="fill" d="M 84.21428680419922 317.3819885253906 A 2.5 2.5 0 1 1 84.21428555419932 317.3794885258073" fill-opacity="0.6" clip-path="url(#DLIPgXVLeJPD)" stroke-opacity="1" stroke-linejoin="bevel" stroke-miterlimit="10" stroke-dasharray=""/><path fill="rgb(243,134,48)" stroke="rgb(243,134,48)" paint-order="fill" d="M 84.21428680419922 317.3819885253906 A 2.5 2.5 0 1 1 84.21428555419932 317.3794885258073" fill-opacity="0.6" clip-path="url(#DLIPgXVLeJPD)" stroke-opacity="1" stroke-linejoin="bevel" stroke-miterlimit="10" stroke-dasharray=""/><path fill="rgb(243,134,48)" stroke="rgb(243,134,48)" paint-order="fill" d="M 178.64285278320312 135.4366455078125 A 2.5 2.5 0 1 1 178.64285153320324 135.43414550822916" fill-opacity="0.6" clip-path="url(#DLIPgXVLeJPD)" stroke-opacity="1" stroke-linejoin="bevel" stroke-miterlimit="10" stroke-dasharray=""/><path fill="rgb(243,134,48)" stroke="rgb(243,134,48)" paint-order="fill" d="M 273.0714416503906 344.5692443847656 A 2.5 2.5 0 1 1 273.0714404003907 344.5667443851823" fill-opacity="0.6" clip-path="url(#DLIPgXVLeJPD)" stroke-opacity="1" stroke-linejoin="bevel" stroke-miterlimit="10" stroke-dasharray=""/><path fill="rgb(243,134,48)" stroke="rgb(243,134,48)" paint-order="fill" d="M 304.547607421875 398.9436950683594 A 2.5 2.5 0 1 1 304.5476061718751 398.94119506877604" fill-opacity="0.6" clip-path="url(#DLIPgXVLeJPD)" stroke-opacity="1" stroke-linejoin="bevel" stroke-miterlimit="10" stroke-dasharray=""/><path fill="rgb(243,134,48)" stroke="rgb(243,134,48)" paint-order="fill" d="M 336.0238037109375 189.8111114501953 A 2.5 2.5 0 1 1 336.0238024609376 189.80861145061198" fill-opacity="0.6" clip-path="url(#DLIPgXVLeJPD)" stroke-opacity="1" stroke-linejoin="bevel" stroke-miterlimit="10" stroke-dasharray=""/><path fill="rgb(243,134,48)" stroke="rgb(243,134,48)" paint-order="fill" d="M 556.3571166992188 252.55088806152344 A 2.5 2.5 0 1 1 556.3571154492189 252.5483880619401" fill-opacity="0.6" clip-path="url(#DLIPgXVLeJPD)" stroke-opacity="1" stroke-linejoin="bevel" stroke-miterlimit="10" stroke-dasharray=""/><path fill="rgb(243,134,48)" stroke="rgb(243,134,48)" paint-order="fill" d="M 587.8333129882812 396.8523864746094 A 2.5 2.5 0 1 1 587.8333117382814 396.84988647502604" fill-opacity="0.6" clip-path="url(#DLIPgXVLeJPD)" stroke-opacity="1" stroke-linejoin="bevel" stroke-miterlimit="10" stroke-dasharray=""/><path fill="rgb(243,134,48)" stroke="rgb(243,134,48)" paint-order="fill" d="M 650.7857055664062 319.47332763671875 A 2.5 2.5 0 1 1 650.7857043164064 319.4708276371354" fill-opacity="0.6" clip-path="url(#DLIPgXVLeJPD)" stroke-opacity="1" stroke-linejoin="bevel" stroke-miterlimit="10" stroke-dasharray=""/><path fill="rgb(243,134,48)" stroke="rgb(243,134,48)" paint-order="fill" d="M 650.7857055664062 200.2677459716797 A 2.5 2.5 0 1 1 650.7857043164064 200.26524597209635" fill-opacity="0.6" clip-path="url(#DLIPgXVLeJPD)" stroke-opacity="1" stroke-linejoin="bevel" stroke-miterlimit="10" stroke-dasharray=""/><path fill="rgb(243,134,48)" stroke="rgb(243,134,48)" paint-order="fill" d="M 650.7857055664062 325.747314453125 A 2.5 2.5 0 1 1 650.7857043164064 325.74481445354166" fill-opacity="0.6" clip-path="url(#DLIPgXVLeJPD)" stroke-opacity="1" stroke-linejoin="bevel" stroke-miterlimit="10" stroke-dasharray=""/><path fill="rgb(243,134,48)" stroke="rgb(243,134,48)" paint-order="fill" d="M 682.2619018554688 273.4641418457031 A 2.5 2.5 0 1 1 682.2619006054689 273.4616418461198" fill-opacity="0.6" clip-path="url(#DLIPgXVLeJPD)" stroke-opacity="1" stroke-linejoin="bevel" stroke-miterlimit="10" stroke-dasharray=""/><path fill="none" stroke="rgb(0,0,0)" paint-order="fill" d="M 34.5 473.5 L 695.5 473.5" stroke-opacity="1" stroke-linejoin="bevel" stroke-miterlimit="10" stroke-dasharray=""/><path fill="none" stroke="rgb(0,0,0)" paint-order="fill" d="M 50.5 479.5 L 50.5 471.5 M 81.5 479.5 L 81.5 471.5 M 113.5 479.5 L 113.5 471.5 M 144.5 479.5 L 144.5 471.5 M 176.5 479.5 L 176.5 471.5 M 207.5 479.5 L 207.5 471.5 M 239.5 479.5 L 239.5 471.5 M 270.5 479.5 L 270.5 471.5 M 302.5 479.5 L 302.5 471.5 M 333.5 479.5 L 333.5 471.5 M 365.5 479.5 L 365.5 471.5 M 396.5 479.5 L 396.5 471.5 M 427.5 479.5 L 427.5 471.5 M 459.5 479.5 L 459.5 471.5 M 490.5 479.5 L 490.5 471.5 M 522.5 479.5 L 522.5 471.5 M 553.5 479.5 L 553.5 471.5 M 585.5 479.5 L 585.5 471.5 M 616.5 479.5 L 616.5 471.5 M 648.5 479.5 L 648.5 471.5 M 679.5 479.5 L 679.5 471.5" stroke-opacity="1" stroke-linejoin="bevel" stroke-miterlimit="10" stroke-dasharray=""/><path fill="none" stroke="rgb(0,0,0)" paint-order="fill" d="" stroke-opacity="1" stroke-linejoin="bevel" stroke-miterlimit="10" stroke-dasharray=""/><text fill="rgb(68,68,68)" stroke="none" font-family="helvetica" font-size="9pt" font-style="normal" font-weight="normal" text-decoration="normal" x="0" y="0" text-anchor="middle" dominant-baseline="hanging" transform="matrix(1, 0, 0, 1, 50.5, 484.5)" fill-opacity="1">CB</text><text fill="rgb(68,68,68)" stroke="none" font-family="helvetica" font-size="9pt" font-style="normal" font-weight="normal" text-decoration="normal" x="0" y="0" text-anchor="middle" dominant-baseline="hanging" transform="matrix(1, 0, 0, 1, 81.5, 484.5)" fill-opacity="1">DB</text><text fill="rgb(68,68,68)" stroke="none" font-family="helvetica" font-size="9pt" font-style="normal" font-weight="normal" text-decoration="normal" x="0" y="0" text-anchor="middle" dominant-baseline="hanging" transform="matrix(1, 0, 0, 1, 113.5, 484.5)" fill-opacity="1">DE</text><text fill="rgb(68,68,68)" stroke="none" font-family="helvetica" font-size="9pt" font-style="normal" font-weight="normal" text-decoration="normal" x="0" y="0" text-anchor="middle" dominant-baseline="hanging" transform="matrix(1, 0, 0, 1, 144.5, 484.5)" fill-opacity="1">DT</text><text fill="rgb(68,68,68)" stroke="none" font-family="helvetica" font-size="9pt" font-style="normal" font-weight="normal" text-decoration="normal" x="0" y="0" text-anchor="middle" dominant-baseline="hanging" transform="matrix(1, 0, 0, 1, 176.5, 484.5)" fill-opacity="1">FB</text><text fill="rgb(68,68,68)" stroke="none" font-family="helvetica" font-size="9pt" font-style="normal" font-weight="normal" text-decoration="normal" x="0" y="0" text-anchor="middle" dominant-baseline="hanging" transform="matrix(1, 0, 0, 1, 207.5, 484.5)" fill-opacity="1">FS</text><text fill="rgb(68,68,68)" stroke="none" font-family="helvetica" font-size="9pt" font-style="normal" font-weight="normal" text-decoration="normal" x="0" y="0" text-anchor="middle" dominant-baseline="hanging" transform="matrix(1, 0, 0, 1, 239.5, 484.5)" fill-opacity="1">HB</text><text fill="rgb(68,68,68)" stroke="none" font-family="helvetica" font-size="9pt" font-style="normal" font-weight="normal" text-decoration="normal" x="0" y="0" text-anchor="middle" dominant-baseline="hanging" transform="matrix(1, 0, 0, 1, 270.5, 484.5)" fill-opacity="1">ILB</text><text fill="rgb(68,68,68)" stroke="none" font-family="helvetica" font-size="9pt" font-style="normal" font-weight="normal" text-decoration="normal" x="0" y="0" text-anchor="middle" dominant-baseline="hanging" transform="matrix(1, 0, 0, 1, 302.5, 484.5)" fill-opacity="1">K</text><text fill="rgb(68,68,68)" stroke="none" font-family="helvetica" font-size="9pt" font-style="normal" font-weight="normal" text-decoration="normal" x="0" y="0" text-anchor="middle" dominant-baseline="hanging" transform="matrix(1, 0, 0, 1, 333.5, 484.5)" fill-opacity="1">LB</text><text fill="rgb(68,68,68)" stroke="none" font-family="helvetica" font-size="9pt" font-style="normal" font-weight="normal" text-decoration="normal" x="0" y="0" text-anchor="middle" dominant-baseline="hanging" transform="matrix(1, 0, 0, 1, 365.5, 484.5)" fill-opacity="1">LS</text><text fill="rgb(68,68,68)" stroke="none" font-family="helvetica" font-size="9pt" font-style="normal" font-weight="normal" text-decoration="normal" x="0" y="0" text-anchor="middle" dominant-baseline="hanging" transform="matrix(1, 0, 0, 1, 396.5, 484.5)" fill-opacity="1">MLB</text><text fill="rgb(68,68,68)" stroke="none" font-family="helvetica" font-size="9pt" font-style="normal" font-weight="normal" text-decoration="normal" x="0" y="0" text-anchor="middle" dominant-baseline="hanging" transform="matrix(1, 0, 0, 1, 427.5, 484.5)" fill-opacity="1">NT</text><text fill="rgb(68,68,68)" stroke="none" font-family="helvetica" font-size="9pt" font-style="normal" font-weight="normal" text-decoration="normal" x="0" y="0" text-anchor="middle" dominant-baseline="hanging" transform="matrix(1, 0, 0, 1, 459.5, 484.5)" fill-opacity="1">OLB</text><text fill="rgb(68,68,68)" stroke="none" font-family="helvetica" font-size="9pt" font-style="normal" font-weight="normal" text-decoration="normal" x="0" y="0" text-anchor="middle" dominant-baseline="hanging" transform="matrix(1, 0, 0, 1, 490.5, 484.5)" fill-opacity="1">P</text><text fill="rgb(68,68,68)" stroke="none" font-family="helvetica" font-size="9pt" font-style="normal" font-weight="normal" text-decoration="normal" x="0" y="0" text-anchor="middle" dominant-baseline="hanging" transform="matrix(1, 0, 0, 1, 522.5, 484.5)" fill-opacity="1">QB</text><text fill="rgb(68,68,68)" stroke="none" font-family="helvetica" font-size="9pt" font-style="normal" font-weight="normal" text-decoration="normal" x="0" y="0" text-anchor="middle" dominant-baseline="hanging" transform="matrix(1, 0, 0, 1, 553.5, 484.5)" fill-opacity="1">RB</text><text fill="rgb(68,68,68)" stroke="none" font-family="helvetica" font-size="9pt" font-style="normal" font-weight="normal" text-decoration="normal" x="0" y="0" text-anchor="middle" dominant-baseline="hanging" transform="matrix(1, 0, 0, 1, 585.5, 484.5)" fill-opacity="1">S</text><text fill="rgb(68,68,68)" stroke="none" font-family="helvetica" font-size="9pt" font-style="normal" font-weight="normal" text-decoration="normal" x="0" y="0" text-anchor="middle" dominant-baseline="hanging" transform="matrix(1, 0, 0, 1, 616.5, 484.5)" fill-opacity="1">SS</text><text fill="rgb(68,68,68)" stroke="none" font-family="helvetica" font-size="9pt" font-style="normal" font-weight="normal" text-decoration="normal" x="0" y="0" text-anchor="middle" dominant-baseline="hanging" transform="matrix(1, 0, 0, 1, 648.5, 484.5)" fill-opacity="1">TE</text><text fill="rgb(68,68,68)" stroke="none" font-family="helvetica" font-size="9pt" font-style="normal" font-weight="normal" text-decoration="normal" x="0" y="0" text-anchor="middle" dominant-baseline="hanging" transform="matrix(1, 0, 0, 1, 679.5, 484.5)" fill-opacity="1">WR</text><path fill="none" stroke="rgb(0,0,0)" paint-order="fill" d="M 34.5 473.5 L 34.5 29.5" stroke-opacity="1" stroke-linejoin="bevel" stroke-miterlimit="10" stroke-dasharray=""/><path fill="none" stroke="rgb(0,0,0)" paint-order="fill" d="M 28.5 472.5 L 36.5 472.5 M 28.5 367.5 L 36.5 367.5 M 28.5 263.5 L 36.5 263.5 M 28.5 158.5 L 36.5 158.5 M 28.5 53.5 L 36.5 53.5" stroke-opacity="1" stroke-linejoin="bevel" stroke-miterlimit="10" stroke-dasharray=""/><path fill="none" stroke="rgb(0,0,0)" paint-order="fill" d="M 30.5 472.5 L 34.5 472.5 M 30.5 451.5 L 34.5 451.5 M 30.5 430.5 L 34.5 430.5 M 30.5 409.5 L 34.5 409.5 M 30.5 388.5 L 34.5 388.5 M 30.5 367.5 L 34.5 367.5 M 30.5 346.5 L 34.5 346.5 M 30.5 325.5 L 34.5 325.5 M 30.5 304.5 L 34.5 304.5 M 30.5 283.5 L 34.5 283.5 M 30.5 263.5 L 34.5 263.5 M 30.5 242.5 L 34.5 242.5 M 30.5 221.5 L 34.5 221.5 M 30.5 200.5 L 34.5 200.5 M 30.5 179.5 L 34.5 179.5 M 30.5 158.5 L 34.5 158.5 M 30.5 137.5 L 34.5 137.5 M 30.5 116.5 L 34.5 116.5 M 30.5 95.5 L 34.5 95.5 M 30.5 74.5 L 34.5 74.5 M 30.5 53.5 L 34.5 53.5 M 30.5 32.5 L 34.5 32.5" stroke-opacity="1" stroke-linejoin="bevel" stroke-miterlimit="10" stroke-dasharray=""/><text fill="rgb(68,68,68)" stroke="none" font-family="helvetica" font-size="9pt" font-style="normal" font-weight="normal" text-decoration="normal" x="0" y="0" text-anchor="end" dominant-baseline="central" transform="matrix(1, 0, 0, 1, 23.5, 472.5)" fill-opacity="1">150</text><text fill="rgb(68,68,68)" stroke="none" font-family="helvetica" font-size="9pt" font-style="normal" font-weight="normal" text-decoration="normal" x="0" y="0" text-anchor="end" dominant-baseline="central" transform="matrix(1, 0, 0, 1, 23.5, 367.5)" fill-opacity="1">200</text><text fill="rgb(68,68,68)" stroke="none" font-family="helvetica" font-size="9pt" font-style="normal" font-weight="normal" text-decoration="normal" x="0" y="0" text-anchor="end" dominant-baseline="central" transform="matrix(1, 0, 0, 1, 23.5, 263.5)" fill-opacity="1">250</text><text fill="rgb(68,68,68)" stroke="none" font-family="helvetica" font-size="9pt" font-style="normal" font-weight="normal" text-decoration="normal" x="0" y="0" text-anchor="end" dominant-baseline="central" transform="matrix(1, 0, 0, 1, 23.5, 158.5)" fill-opacity="1">300</text><text fill="rgb(68,68,68)" stroke="none" font-family="helvetica" font-size="9pt" font-style="normal" font-weight="normal" text-decoration="normal" x="0" y="0" text-anchor="end" dominant-baseline="central" transform="matrix(1, 0, 0, 1, 23.5, 53.5)" fill-opacity="1">350</text><path fill="none" stroke="none"/><text fill="rgb(128,128,128)" stroke="none" font-family="helvetica" font-size="15px" font-style="normal" font-weight="bold" text-decoration="normal" x="0" y="0" text-anchor="start" dominant-baseline="text-after-edge" transform="matrix(1, 0, 0, 1, 34.5, 24.5)" fill-opacity="1">Player Weight Distribution in lbs (by NFL Position)
</text></svg>